<svg width="12" height="10" viewBox="0 0 12 10" fill="none" xmlns="http://www.w3.org/2000/svg">
<path d="M11.5243 5.11733C11.5206 4.71974 11.3601 4.33962 11.0776 4.05932L7.82939 0.809724C7.68753 0.66897 7.49563 0.589966 7.2956 0.589966C7.09558 0.589966 6.90367 0.66897 6.76181 0.809724C6.69085 0.879978 6.63452 0.963562 6.59608 1.05565C6.55764 1.14774 6.53785 1.24652 6.53785 1.34629C6.53785 1.44605 6.55764 1.54483 6.59608 1.63692C6.63452 1.72901 6.69085 1.81259 6.76181 1.88285L9.25283 4.36161H1.68134C1.48053 4.36161 1.28795 4.44123 1.14596 4.58296C1.00397 4.72468 0.924194 4.9169 0.924194 5.11733C0.924194 5.31776 1.00397 5.50998 1.14596 5.65171C1.28795 5.79343 1.48053 5.87305 1.68134 5.87305H9.25283L6.76181 8.35938C6.61924 8.50068 6.53874 8.69272 6.53803 8.89326C6.53732 9.0938 6.61646 9.28641 6.75803 9.42872C6.8996 9.57102 7.09201 9.65137 7.29293 9.65208C7.49385 9.65279 7.68682 9.5738 7.82939 9.4325L11.0776 6.1829C11.3619 5.90075 11.5226 5.51754 11.5243 5.11733Z" fill="#202529"/>
</svg>
