<svg width="12" height="12" viewBox="0 0 12 12" fill="none" xmlns="http://www.w3.org/2000/svg">
<g id="calender-svgrepo-com">
<path id="Shape" fill-rule="evenodd" clip-rule="evenodd" d="M10.2 1.2H9V0.6C9 0.268629 8.73137 0 8.4 0C8.06863 0 7.8 0.268629 7.8 0.6V1.2H4.2V0.6C4.2 0.268629 3.93137 0 3.6 0C3.26863 0 3 0.268629 3 0.6V1.2H1.8C0.805887 1.2 0 2.00589 0 3V10.2C0 11.1941 0.805887 12 1.8 12H10.2C11.1941 12 12 11.1941 12 10.2V3C12 2.00589 11.1941 1.2 10.2 1.2ZM10.8 10.2C10.8 10.5314 10.5314 10.8 10.2 10.8H1.8C1.46863 10.8 1.2 10.5314 1.2 10.2V6H10.8V10.2ZM1.2002 4.79844H10.8002V2.99844C10.8002 2.66707 10.5316 2.39844 10.2002 2.39844H9.0002V2.99844C9.0002 3.32981 8.73157 3.59844 8.4002 3.59844C8.06882 3.59844 7.8002 3.32981 7.8002 2.99844V2.39844H4.2002V2.99844C4.2002 3.32981 3.93157 3.59844 3.6002 3.59844C3.26882 3.59844 3.0002 3.32981 3.0002 2.99844V2.39844H1.8002C1.46882 2.39844 1.2002 2.66707 1.2002 2.99844V4.79844Z" fill="#0C3B2E"/>
</g>
</svg>
