<svg width="23" height="21" viewBox="0 0 23 21" fill="none" xmlns="http://www.w3.org/2000/svg">
<path d="M11.5001 14.7201C13.2398 14.7201 14.6501 13.3023 14.6501 11.5534C14.6501 9.80448 13.2398 8.38672 11.5001 8.38672C9.7604 8.38672 8.3501 9.80448 8.3501 11.5534C8.3501 13.3023 9.7604 14.7201 11.5001 14.7201Z" stroke="#FC6002" stroke-width="2"/>
<path d="M1 11.9394C1 8.70492 1 7.08761 1.78647 5.92586C2.12694 5.42293 2.56445 4.9911 3.074 4.65505C3.83033 4.15625 4.7772 3.97797 6.2269 3.91424C6.91869 3.91424 7.51433 3.39683 7.65 2.72727C7.85351 1.72294 8.74695 1 9.78461 1H13.2154C14.253 1 15.1464 1.72294 15.35 2.72727C15.4857 3.39683 16.0813 3.91424 16.7731 3.91424C18.2228 3.97797 19.1696 4.15625 19.926 4.65505C20.4355 4.9911 20.873 5.42293 21.2135 5.92586C22 7.08761 22 8.70492 22 11.9394C22 15.1739 22 16.7912 21.2135 17.953C20.873 18.4558 20.4355 18.8877 19.926 19.2237C18.749 20 17.1105 20 13.8333 20H9.16667C5.88959 20 4.25105 20 3.074 19.2237C2.56445 18.8877 2.12694 18.4558 1.78647 17.953C1.56433 17.6248 1.40494 17.2603 1.29057 16.8333" stroke="#FC6002" stroke-width="2" stroke-linecap="round"/>
<path d="M18.8503 8.38672H17.8003" stroke="#FC6002" stroke-width="2" stroke-linecap="round"/>
</svg>
