<svg width="18" height="18" viewBox="0 0 18 18" fill="none" xmlns="http://www.w3.org/2000/svg">
<g clip-path="url(#clip0_748_834)">
<path fill-rule="evenodd" clip-rule="evenodd" d="M11.3898 5.7955C10.7023 5.33612 9.89395 5.09091 9.06708 5.09091V0.910156C10.7208 0.910156 12.3374 1.40055 13.7125 2.31933C15.0875 3.2381 16.1592 4.54399 16.7921 6.07185C17.425 7.5997 17.5906 9.28095 17.2679 10.9029C16.9453 12.5249 16.149 14.0148 14.9796 15.1841C13.8102 16.3535 12.3203 17.1499 10.6983 17.4725C9.07636 17.7951 7.39511 17.6295 5.86726 16.9967C4.3394 16.3638 3.03351 15.2921 2.11474 13.9171C1.19596 12.542 0.705566 10.9254 0.705566 9.27167H4.88632C4.88632 10.0985 5.13153 10.9068 5.59091 11.5944C6.05029 12.2819 6.70324 12.8177 7.46719 13.1342C8.2311 13.4506 9.07172 13.5334 9.88271 13.3721C10.6937 13.2108 11.4386 12.8126 12.0233 12.2279C12.608 11.6432 13.0062 10.8983 13.1675 10.0873C13.3288 9.27631 13.246 8.43569 12.9296 7.67178C12.6132 6.90783 12.0773 6.25488 11.3898 5.7955Z" fill="white"/>
<path fill-rule="evenodd" clip-rule="evenodd" d="M4.88632 0.910158C4.88632 1.45918 4.77819 2.00283 4.56808 2.51006C4.35798 3.0173 4.05003 3.47818 3.66181 3.8664C3.27359 4.25462 2.81271 4.56257 2.30547 4.77268C1.79824 4.98278 1.25459 5.09092 0.705567 5.09092L0.705566 9.27167C1.80362 9.27167 2.89091 9.0554 3.90538 8.63519C4.91985 8.21499 5.84163 7.59908 6.61803 6.82263C7.39448 6.04622 8.01039 5.12445 8.4306 4.10997C8.85081 3.0955 9.06708 2.0082 9.06708 0.910156L4.88632 0.910158Z" fill="white"/>
</g>
<defs>
<clipPath id="clip0_748_834">
<rect width="16.723" height="16.723" fill="white" transform="translate(0.705566 0.910156)"/>
</clipPath>
</defs>
</svg>
