<svg width="12" height="12" viewBox="0 0 12 12" fill="none" xmlns="http://www.w3.org/2000/svg">
<g id="clock-svgrepo-com(1)">
<path id="Shape" fill-rule="evenodd" clip-rule="evenodd" d="M0 6C0 2.68221 2.68221 0 6 0C9.32025 0 12 2.67975 12 6C12 9.32025 9.31779 12 6 12C2.68221 12 0 9.31779 0 6ZM6.51043 10.7239V10.9791C8.86135 10.7387 10.7387 8.86135 10.9791 6.51043H10.7239C10.4442 6.51043 10.2135 6.27975 10.2135 6C10.2135 5.72025 10.4442 5.48957 10.7239 5.48957H10.9767C10.7387 3.1411 8.86135 1.2638 6.51043 1.02331V1.25153C6.51043 1.53129 6.27975 1.76196 6 1.76196C5.72025 1.76196 5.48957 1.53129 5.48957 1.25153V1.02577C3.1411 1.2638 1.2638 3.1411 1.02331 5.49202H1.25153C1.53129 5.49202 1.76196 5.7227 1.76196 6.00245C1.76196 6.28221 1.53129 6.51288 1.25153 6.51288H1.02331C1.26135 8.86135 3.13865 10.7387 5.48957 10.9791V10.7239C5.48957 10.4442 5.72025 10.2135 6 10.2135C6.27975 10.2135 6.51043 10.4442 6.51043 10.7239Z" fill="#0C3B2E"/>
<path id="Path" d="M5.83875 3C5.56898 3 5.34654 3.22711 5.34654 3.50253V5.71318L3.10556 8.53026C2.93281 8.75736 2.98251 9.05695 3.17892 9.23332C3.45342 9.43868 3.74449 9.28405 3.84388 9.15842L6.23394 6.19156C6.28364 6.11666 6.33333 6.01519 6.33333 5.88955V3.50253C6.33097 3.22469 6.11089 3 5.83875 3Z" fill="#0C3B2E"/>
</g>
</svg>
