<svg width="17" height="17" viewBox="0 0 17 17" fill="none" xmlns="http://www.w3.org/2000/svg">
<path d="M8.4 0C3.7608 0 0 3.7608 0 8.4C0 13.0392 3.7608 16.8 8.4 16.8C13.0392 16.8 16.8 13.0392 16.8 8.4C16.795 3.76287 13.0371 0.00502031 8.4 0ZM11.2 10.2109C11.4844 10.4727 11.5028 10.9155 11.241 11.2C10.9792 11.4844 10.5364 11.5028 10.2519 11.241C10.2377 11.2279 10.224 11.2142 10.2109 11.2L8.4 9.38979L6.5898 11.2C6.31171 11.4686 5.86858 11.4608 5.60001 11.1828C5.33804 10.9115 5.33804 10.4815 5.60001 10.2102L7.41021 8.4L5.60001 6.5898C5.33144 6.31171 5.33915 5.86858 5.61724 5.60001C5.8885 5.33804 6.31854 5.33804 6.5898 5.60001L8.4 7.41021L10.2109 5.60001C10.4727 5.31556 10.9155 5.29718 11.2 5.559C11.4844 5.82081 11.5028 6.26364 11.241 6.5481C11.2279 6.56234 11.2142 6.57599 11.2 6.58911L9.38979 8.4L11.2 10.2109Z" fill="#0D5E95"/>
</svg>
