<svg width="17" height="20" viewBox="0 0 17 20" fill="none" xmlns="http://www.w3.org/2000/svg">
<path d="M15.8333 3.33333H13.25C13.0566 2.39284 12.5449 1.54779 11.801 0.940598C11.0572 0.333408 10.1268 0.0012121 9.16667 0L7.5 0C6.53983 0.0012121 5.60943 0.333408 4.86562 0.940598C4.12182 1.54779 3.61008 2.39284 3.41667 3.33333H0.833333C0.61232 3.33333 0.400358 3.42113 0.244078 3.57741C0.0877973 3.73369 0 3.94565 0 4.16667C0 4.38768 0.0877973 4.59964 0.244078 4.75592C0.400358 4.9122 0.61232 5 0.833333 5H1.66667V15.8333C1.66799 16.938 2.1074 17.997 2.88852 18.7782C3.66963 19.5593 4.72867 19.9987 5.83333 20H10.8333C11.938 19.9987 12.997 19.5593 13.7782 18.7782C14.5593 17.997 14.9987 16.938 15 15.8333V5H15.8333C16.0543 5 16.2663 4.9122 16.4226 4.75592C16.5789 4.59964 16.6667 4.38768 16.6667 4.16667C16.6667 3.94565 16.5789 3.73369 16.4226 3.57741C16.2663 3.42113 16.0543 3.33333 15.8333 3.33333ZM7.5 1.66667H9.16667C9.68356 1.6673 10.1876 1.82781 10.6097 2.1262C11.0317 2.42459 11.3512 2.84624 11.5242 3.33333H5.1425C5.31549 2.84624 5.63492 2.42459 6.05699 2.1262C6.47906 1.82781 6.98311 1.6673 7.5 1.66667ZM13.3333 15.8333C13.3333 16.4964 13.0699 17.1323 12.6011 17.6011C12.1323 18.0699 11.4964 18.3333 10.8333 18.3333H5.83333C5.17029 18.3333 4.53441 18.0699 4.06557 17.6011C3.59673 17.1323 3.33333 16.4964 3.33333 15.8333V5H13.3333V15.8333Z" fill="#1D66A5"/>
<path d="M6.66536 15C6.88638 15 7.09834 14.9122 7.25462 14.7559C7.4109 14.5996 7.4987 14.3877 7.4987 14.1667V9.16666C7.4987 8.94565 7.4109 8.73369 7.25462 8.57741C7.09834 8.42113 6.88638 8.33333 6.66536 8.33333C6.44435 8.33333 6.23239 8.42113 6.07611 8.57741C5.91983 8.73369 5.83203 8.94565 5.83203 9.16666V14.1667C5.83203 14.3877 5.91983 14.5996 6.07611 14.7559C6.23239 14.9122 6.44435 15 6.66536 15Z" fill="black"/>
<path d="M10.0013 15C10.2223 15 10.4343 14.9122 10.5906 14.7559C10.7468 14.5996 10.8346 14.3877 10.8346 14.1667V9.16666C10.8346 8.94565 10.7468 8.73369 10.5906 8.57741C10.4343 8.42113 10.2223 8.33333 10.0013 8.33333C9.78029 8.33333 9.56833 8.42113 9.41205 8.57741C9.25577 8.73369 9.16797 8.94565 9.16797 9.16666V14.1667C9.16797 14.3877 9.25577 14.5996 9.41205 14.7559C9.56833 14.9122 9.78029 15 10.0013 15Z" fill="black"/>
</svg>
