<svg width="16" height="15" viewBox="0 0 16 15" fill="none" xmlns="http://www.w3.org/2000/svg">
<path d="M11.6652 0C10.9148 0.0117211 10.1808 0.222079 9.53722 0.609831C8.89368 0.997582 8.36343 1.549 8 2.20839C7.63657 1.549 7.10632 0.997582 6.46278 0.609831C5.81924 0.222079 5.08521 0.0117211 4.33481 0C3.13859 0.0521921 2.01155 0.577697 1.19993 1.46171C0.38831 2.34572 -0.0419227 3.51637 0.0032261 4.71792C0.0032261 7.76082 3.19261 11.0841 5.86753 13.3373C6.46477 13.8413 7.21988 14.1176 8 14.1176C8.78012 14.1176 9.53523 13.8413 10.1325 13.3373C12.8074 11.0841 15.9968 7.76082 15.9968 4.71792C16.0419 3.51637 15.6117 2.34572 14.8001 1.46171C13.9884 0.577697 12.8614 0.0521921 11.6652 0ZM9.27615 12.3134C8.91895 12.6155 8.46698 12.7812 8 12.7812C7.53302 12.7812 7.08105 12.6155 6.72385 12.3134C3.2999 9.42848 1.33602 6.66064 1.33602 4.71792C1.29047 3.87118 1.58017 3.0407 2.14194 2.40761C2.70371 1.77452 3.49197 1.39018 4.33481 1.33842C5.17765 1.39018 5.96591 1.77452 6.52768 2.40761C7.08946 3.0407 7.37916 3.87118 7.3336 4.71792C7.3336 4.89541 7.40381 5.06562 7.52879 5.19112C7.65376 5.31663 7.82326 5.38713 8 5.38713C8.17674 5.38713 8.34624 5.31663 8.47121 5.19112C8.59619 5.06562 8.6664 4.89541 8.6664 4.71792C8.62084 3.87118 8.91054 3.0407 9.47231 2.40761C10.0341 1.77452 10.8223 1.39018 11.6652 1.33842C12.508 1.39018 13.2963 1.77452 13.8581 2.40761C14.4198 3.0407 14.7095 3.87118 14.664 4.71792C14.664 6.66064 12.7001 9.42848 9.27615 12.3108V12.3134Z" fill="black"/>
</svg>
