<svg width="23" height="22" viewBox="0 0 23 22" fill="none" xmlns="http://www.w3.org/2000/svg">
<path d="M22 11.9586C22 15.9184 22 17.8983 20.7698 19.1284C19.5397 20.3586 17.5598 20.3586 13.6 20.3586H9.4C5.4402 20.3586 3.46031 20.3586 2.23015 19.1284C1 17.8983 1 15.9184 1 11.9586C1 7.99879 1 6.0189 2.23015 4.78874C3.46031 3.55859 5.4402 3.55859 9.4 3.55859H13.6C17.5598 3.55859 19.5397 3.55859 20.7698 4.78874C21.4667 5.48556 21.7688 6.42294 21.8997 7.82447" stroke="#FC6002" stroke-width="2" stroke-linecap="round"/>
<path d="M3.08745 4.15C3.2055 3.17243 3.45196 2.49687 3.9665 1.98412C4.95408 1 6.54356 1 9.72251 1H13.0943C16.2733 1 17.8627 1 18.8503 1.98412C19.3649 2.49687 19.6113 3.17243 19.7293 4.15" stroke="#FC6002" stroke-width="2"/>
<path d="M17.2752 9.86094C18.145 9.86094 18.8502 9.15579 18.8502 8.28594C18.8502 7.41609 18.145 6.71094 17.2752 6.71094C16.4053 6.71094 15.7002 7.41609 15.7002 8.28594C15.7002 9.15579 16.4053 9.86094 17.2752 9.86094Z" stroke="#FC6002" stroke-width="2"/>
<path d="M1 12.488L2.83917 10.8787C3.796 10.0416 5.23809 10.0896 6.13711 10.9886L10.6413 15.4928C11.3629 16.2144 12.4988 16.3128 13.3337 15.726L13.6468 15.506C14.8482 14.6616 16.4737 14.7594 17.5653 15.7418L20.95 18.788" stroke="#FC6002" stroke-width="2" stroke-linecap="round"/>
</svg>
