<svg width="16" height="9" viewBox="0 0 16 9" fill="none" xmlns="http://www.w3.org/2000/svg">
<rect x="7.21191" y="4" width="1.27273" height="1.27273" fill="#0C3B2E"/>
<rect x="3.81836" y="4" width="1.27273" height="1.27273" fill="#0C3B2E"/>
<rect x="2.12109" y="4" width="1.27273" height="1.27273" fill="#0C3B2E"/>
<rect x="5.51562" y="4" width="1.27273" height="1.27273" fill="#0C3B2E"/>
<rect x="10.6064" y="4" width="1.27273" height="1.27273" fill="#0C3B2E"/>
<rect x="8.90918" y="4" width="1.27273" height="1.27273" fill="#0C3B2E"/>
<path fill-rule="evenodd" clip-rule="evenodd" d="M3.18178 0C4.93623 0 6.36364 1.42753 6.36364 3.1822C6.36364 5.00449 5.27308 6.40288 4.35816 7.2551C3.90579 7.67658 3.54505 7.91382 3.52999 7.9237C3.42419 7.99281 3.30294 8.02739 3.18178 8.02739C3.06061 8.02739 2.93936 7.99281 2.8336 7.9237C2.71787 7.84806 0 6.03862 0 3.1822C0 1.42753 1.42732 0 3.18178 0ZM2.33301 3.18056C2.33301 3.64913 2.71296 4.029 3.18154 4.029C3.65007 4.029 4.02998 3.64913 4.02998 3.18056C4.02998 2.71194 3.65007 2.33203 3.18154 2.33203C2.71296 2.33203 2.33301 2.71194 2.33301 3.18056Z" fill="#0C3B2E"/>
<path fill-rule="evenodd" clip-rule="evenodd" d="M9.36328 3.1822C9.36328 1.42753 10.7906 0 12.5451 0C14.2995 0 15.7269 1.42753 15.7269 3.1822C15.7269 5.00449 14.6364 6.40288 13.7214 7.2551C13.2691 7.67658 12.9083 7.91382 12.8933 7.9237C12.7875 7.99281 12.6663 8.02739 12.5451 8.02739C12.4239 8.02739 12.3026 7.99281 12.1969 7.9237C12.0811 7.84806 9.36328 6.03862 9.36328 3.1822ZM11.6963 3.18056C11.6963 3.64913 12.0762 4.029 12.5448 4.029C13.0133 4.029 13.3933 3.64913 13.3933 3.18056C13.3933 2.71194 13.0133 2.33203 12.5448 2.33203C12.0762 2.33203 11.6963 2.71194 11.6963 3.18056Z" fill="#0C3B2E"/>
</svg>
