<svg width="15" height="18" viewBox="0 0 15 18" fill="none" xmlns="http://www.w3.org/2000/svg">
<path d="M7.25366 4.33203C6.68297 4.33203 6.12508 4.50126 5.65057 4.81833C5.17605 5.13539 4.80621 5.58604 4.58781 6.1133C4.36941 6.64055 4.31227 7.22073 4.42361 7.78046C4.53495 8.34019 4.80976 8.85434 5.21331 9.25788C5.61685 9.66143 6.131 9.93624 6.69073 10.0476C7.25046 10.1589 7.83064 10.1018 8.35789 9.88338C8.88515 9.66498 9.3358 9.29514 9.65287 8.82062C9.96993 8.34611 10.1392 7.78823 10.1392 7.21753C10.1392 6.45225 9.83515 5.71831 9.29402 5.17717C8.75288 4.63604 8.01894 4.33203 7.25366 4.33203ZM7.25366 8.66028C6.96831 8.66028 6.68937 8.57566 6.45211 8.41713C6.21486 8.2586 6.02993 8.03327 5.92074 7.76964C5.81154 7.50602 5.78297 7.21593 5.83864 6.93606C5.8943 6.6562 6.03171 6.39912 6.23349 6.19735C6.43526 5.99558 6.69233 5.85817 6.9722 5.8025C7.25206 5.74683 7.54215 5.7754 7.80578 5.8846C8.06941 5.9938 8.29473 6.17872 8.45326 6.41598C8.6118 6.65324 8.69641 6.93218 8.69641 7.21753C8.69641 7.60017 8.54441 7.96714 8.27384 8.2377C8.00327 8.50827 7.6363 8.66028 7.25366 8.66028Z" fill="#FC6002"/>
<path d="M7.25342 17.3144C6.64598 17.3175 6.04664 17.1751 5.50558 16.8989C4.96451 16.6228 4.49748 16.2211 4.14357 15.7274C1.39442 11.9351 0 9.08427 0 7.25342C0 5.32969 0.764197 3.48476 2.12448 2.12448C3.48476 0.764197 5.32969 0 7.25342 0C9.17714 0 11.0221 0.764197 12.3824 2.12448C13.7426 3.48476 14.5068 5.32969 14.5068 7.25342C14.5068 9.08427 13.1124 11.9351 10.3633 15.7274C10.0094 16.2211 9.54232 16.6228 9.00126 16.8989C8.4602 17.1751 7.86086 17.3175 7.25342 17.3144ZM7.25342 1.57476C5.74749 1.57648 4.30373 2.17547 3.23888 3.24032C2.17402 4.30517 1.57504 5.74893 1.57332 7.25486C1.57332 8.70482 2.93888 11.3862 5.41752 14.8048C5.62794 15.0946 5.90399 15.3305 6.22309 15.4931C6.54218 15.6558 6.89526 15.7406 7.25342 15.7406C7.61158 15.7406 7.96465 15.6558 8.28375 15.4931C8.60284 15.3305 8.87889 15.0946 9.08932 14.8048C11.568 11.3862 12.9335 8.70482 12.9335 7.25486C12.9318 5.74893 12.3328 4.30517 11.268 3.24032C10.2031 2.17547 8.75935 1.57648 7.25342 1.57476Z" fill="#FC6002"/>
</svg>
