<svg width="12" height="12" viewBox="0 0 12 12" fill="none" xmlns="http://www.w3.org/2000/svg">
<path d="M5.04007 4.76928C5.04007 5.0675 5.28185 5.30928 5.58007 5.30928C5.8783 5.30928 6.12007 5.0675 6.12007 4.76928H5.04007ZM6.12007 0.54C6.12007 0.241769 5.8783 0 5.58007 0C5.28185 0 5.04007 0.241769 5.04007 0.54H6.12007ZM3.64386 2.45632C3.91529 2.33274 4.0351 2.01251 3.91154 1.74109C3.78792 1.46967 3.4677 1.34984 3.19628 1.47344L3.64386 2.45632ZM0.540072 6.4152L0 6.41239L0.000108147 6.42146L0.540072 6.4152ZM5.58007 11.34L5.58626 10.8C5.58216 10.8 5.57798 10.8 5.57388 10.8L5.58007 11.34ZM10.6201 6.4152L11.1601 6.42146L11.1601 6.41239L10.6201 6.4152ZM7.96385 1.47344C7.69241 1.34984 7.37222 1.46967 7.2486 1.74109C7.12505 2.01251 7.24486 2.33274 7.5163 2.45632L7.96385 1.47344ZM6.12007 4.76928V0.54H5.04007V4.76928H6.12007ZM3.19628 1.47344C1.25894 2.35563 0.0111528 4.28365 0 6.41239L1.08006 6.41801C1.08901 4.71051 2.08984 3.16397 3.64386 2.45632L3.19628 1.47344ZM0.000108147 6.42146C0.0356041 9.47131 2.53647 11.915 5.58626 11.88L5.57388 10.8C3.12044 10.8282 1.10859 8.86234 1.08004 6.40894L0.000108147 6.42146ZM5.57388 11.88C8.62366 11.915 11.1247 9.47131 11.1601 6.42146L10.0801 6.40894C10.0516 8.86234 8.03974 10.8282 5.58626 10.8L5.57388 11.88ZM11.1601 6.41239C11.1489 4.28365 9.90122 2.35563 7.96385 1.47344L7.5163 2.45632C9.07027 3.16397 10.0711 4.71051 10.0801 6.41801L11.1601 6.41239Z" fill="#EB4335"/>
</svg>
