<svg width="21" height="16" viewBox="0 0 21 16" fill="none" xmlns="http://www.w3.org/2000/svg">
<path d="M6.7659 3.38268H19.0289C19.3653 3.38268 19.688 3.24903 19.9259 3.01112C20.1638 2.77322 20.2974 2.45055 20.2974 2.1141C20.2974 1.77765 20.1638 1.45498 19.9259 1.21708C19.688 0.979174 19.3653 0.84552 19.0289 0.84552H6.7659C6.42945 0.84552 6.10678 0.979174 5.86887 1.21708C5.63097 1.45498 5.49731 1.77765 5.49731 2.1141C5.49731 2.45055 5.63097 2.77322 5.86887 3.01112C6.10678 3.24903 6.42945 3.38268 6.7659 3.38268Z" fill="#8F9BB3"/>
<path d="M19.0289 6.76593H6.7659C6.42945 6.76593 6.10678 6.89958 5.86887 7.13749C5.63097 7.37539 5.49731 7.69806 5.49731 8.03451C5.49731 8.37096 5.63097 8.69363 5.86887 8.93153C6.10678 9.16944 6.42945 9.30309 6.7659 9.30309H19.0289C19.3653 9.30309 19.688 9.16944 19.9259 8.93153C20.1638 8.69363 20.2974 8.37096 20.2974 8.03451C20.2974 7.69806 20.1638 7.37539 19.9259 7.13749C19.688 6.89958 19.3653 6.76593 19.0289 6.76593Z" fill="#8F9BB3"/>
<path d="M19.0289 12.6858H6.7659C6.42945 12.6858 6.10678 12.8194 5.86887 13.0574C5.63097 13.2953 5.49731 13.6179 5.49731 13.9544C5.49731 14.2908 5.63097 14.6135 5.86887 14.8514C6.10678 15.0893 6.42945 15.223 6.7659 15.223H19.0289C19.3653 15.223 19.688 15.0893 19.9259 14.8514C20.1638 14.6135 20.2974 14.2908 20.2974 13.9544C20.2974 13.6179 20.1638 13.2953 19.9259 13.0574C19.688 12.8194 19.3653 12.6858 19.0289 12.6858Z" fill="#8F9BB3"/>
<path d="M2.1143 4.2286C3.282 4.2286 4.2286 3.282 4.2286 2.1143C4.2286 0.946605 3.282 0 2.1143 0C0.946605 0 0 0.946605 0 2.1143C0 3.282 0.946605 4.2286 2.1143 4.2286Z" fill="#8F9BB3"/>
<path d="M2.1143 9.72568C3.282 9.72568 4.2286 8.77907 4.2286 7.61137C4.2286 6.44368 3.282 5.49707 2.1143 5.49707C0.946605 5.49707 0 6.44368 0 7.61137C0 8.77907 0.946605 9.72568 2.1143 9.72568Z" fill="#8F9BB3"/>
<path d="M2.1143 15.6461C3.282 15.6461 4.2286 14.6995 4.2286 13.5318C4.2286 12.3641 3.282 11.4175 2.1143 11.4175C0.946605 11.4175 0 12.3641 0 13.5318C0 14.6995 0.946605 15.6461 2.1143 15.6461Z" fill="#8F9BB3"/>
</svg>
