<svg width="15" height="16" viewBox="0 0 15 16" fill="none" xmlns="http://www.w3.org/2000/svg">
<path d="M12.398 5.33311C13.833 5.33311 15 4.13716 15 2.66656C15 1.19595 13.833 0 12.398 0C10.963 0 9.79604 1.19595 9.79604 2.66656C9.79604 4.13716 10.963 5.33311 12.398 5.33311ZM12.398 1.33328C13.1155 1.33328 13.699 1.93125 13.699 2.66656C13.699 3.40186 13.1155 3.99983 12.398 3.99983C11.6805 3.99983 11.097 3.40186 11.097 2.66656C11.097 1.93125 11.6805 1.33328 12.398 1.33328ZM13.6131 6.86705C13.5305 6.5084 13.1741 6.28774 12.8313 6.3704C12.4813 6.45506 12.2647 6.81372 12.3466 7.1717L13.0342 10.1642C13.1539 10.6029 13.0674 11.0629 12.7968 11.4262C12.5242 11.7908 12.1099 11.9995 11.6597 11.9995H2.72841C2.29258 11.9995 1.88667 11.8015 1.61477 11.4562C1.34351 11.1115 1.24203 10.6676 1.3292 10.2656L2.69133 5.08112C3.1727 2.87455 5.06044 1.33394 7.28123 1.33394C7.56094 1.33394 7.84 1.35928 8.11061 1.40994C8.46903 1.47527 8.80273 1.23395 8.86713 0.87263C8.93153 0.509979 8.69605 0.163327 8.34284 0.0973293C7.99547 0.0326653 7.63835 0 7.28058 0C4.44637 0 2.03694 1.96992 1.42807 4.76247L0.0659373 9.94625C-0.1149 10.7756 0.0802483 11.6308 0.601945 12.2935C1.12169 12.9541 1.89708 13.3334 2.72841 13.3334H4.00729C4.30977 14.8527 5.62312 16 7.19406 16C8.76501 16 10.0784 14.8527 10.3808 13.3334H11.6591C12.5177 13.3334 13.3094 12.9335 13.8298 12.2362C14.3508 11.5375 14.5173 10.6516 14.2936 9.83292L13.6131 6.86771V6.86705ZM7.19406 14.6661C6.34712 14.6661 5.63157 14.1067 5.36227 13.3328H9.0252C8.7559 14.1067 8.04035 14.6661 7.19341 14.6661H7.19406Z" fill="black"/>
</svg>
