<svg width="97" height="70" viewBox="0 0 97 70" fill="none" xmlns="http://www.w3.org/2000/svg">
<mask id="mask0_28_192" style="mask-type:luminance" maskUnits="userSpaceOnUse" x="0" y="0" width="97" height="70">
<path d="M96.1993 0H-6.10352e-05V69.684H96.1993V0Z" fill="white"/>
</mask>
<g mask="url(#mask0_28_192)">
<path d="M71.8417 46.3247L64.196 45.3065L64.2557 46.0658L57.7189 46.9363C57.7189 46.9363 53.5051 57.5075 57.2189 80.7568H62.5364L64.4503 57.1822H65.13L66.9837 80.7568H72.3013C76.0146 57.5075 71.8417 46.3247 71.8417 46.3247Z" fill="#8E716C"/>
<path d="M62.0193 57.1823H67.5671" stroke="#282828" stroke-width="0.258327" stroke-miterlimit="10" stroke-linecap="round" stroke-linejoin="round"/>
<path d="M76.3094 35.1725C75.6553 34.1284 71.9809 34.1655 71.787 34.1426C70.7937 34.0262 72.4239 41.9304 74.4902 48.8396C74.8863 50.1642 76.344 50.8542 77.6169 50.3146C77.6307 50.3088 77.6443 50.3029 77.6581 50.297C78.665 49.8706 79.2381 48.8015 79.0355 47.7267C78.0527 42.5133 77.066 36.3797 76.3094 35.1725Z" fill="#FFB1A5"/>
<path d="M77.1844 38.032L72.4933 39.8525L72.0535 37.6267L76.9111 36.4148L77.1844 38.032Z" fill="#F3978E"/>
<path d="M78.0703 42.4858C78.0703 42.4858 75.8479 45.4704 75.9539 45.3332C76.0599 45.196 77.6968 40.51 77.6968 40.51L78.0703 42.4858Z" fill="#F3978E"/>
<path d="M81.2465 38.4689L74.8764 46.7224C74.04 47.806 74.3071 49.3729 75.4553 50.1182C76.6015 50.8622 78.1387 50.4711 78.7899 49.2697L84.0922 39.4871L81.2465 38.4689Z" fill="#FFB1A5"/>
<path d="M82.8954 40.5905C81.5144 40.1443 80.7566 38.6632 81.2028 37.2822C81.6489 35.9013 83.13 35.1435 84.511 35.5896C85.8919 36.0358 86.6498 37.5168 86.2036 38.8978C85.7577 40.2788 84.2764 41.0366 82.8954 40.5905Z" fill="#FFB1A5"/>
<path d="M85.6195 36.5119C85.6195 36.5119 86.3386 35.7652 85.063 35.2419C83.7874 34.7187 82.2102 34.8387 81.2033 37.2836L85.6195 36.5119Z" fill="#FFB1A5"/>
<path d="M86.9405 31.2927L89.6077 32.4492C89.756 32.5135 89.8101 32.6894 89.7284 32.8421L86.2195 39.3961C86.1378 39.5488 85.9512 39.6204 85.8029 39.5561L83.1356 38.3997C82.9873 38.3354 82.9333 38.1595 83.015 38.0068L86.5239 31.4528C86.6056 31.3001 86.7922 31.2284 86.9405 31.2927Z" fill="#372F5F"/>
<path d="M86.686 31.1756L89.3532 32.3321C89.5015 32.3964 89.5556 32.5723 89.4739 32.725L85.965 39.279C85.8833 39.4317 85.6967 39.5034 85.5484 39.439L82.8811 38.2826C82.7328 38.2183 82.6788 38.0424 82.7605 37.8897L86.2693 31.3357C86.351 31.183 86.5377 31.1113 86.686 31.1756Z" fill="#261B43"/>
<path d="M86.3854 31.8416L88.729 32.8577L85.8695 38.1991L83.5258 37.1831L86.3854 31.8416Z" fill="#E6E6E6"/>
<path d="M88.729 32.8577L83.5258 37.1831L86.3854 31.8416L88.729 32.8577Z" fill="white"/>
<path d="M84.2969 35.021C84.2969 35.021 84.8907 35.1368 85.4267 35.4405C85.6628 35.5741 85.7839 35.8469 85.7183 36.1102C85.6586 36.3502 85.4573 36.5291 85.2118 36.5599L83.8252 36.7348C83.8252 36.7348 83.1017 37.9817 82.1564 38.1218L83.0236 35.9325L84.2969 35.021Z" fill="#FFB1A5"/>
<path d="M66.5878 24.7873C66.4347 24.7864 76.4211 26.1691 78.0691 37.5549L72.8871 38.3488L71.8423 46.9442H57.3862L54.5162 31.0629C54.5162 31.0629 57.7189 26.4728 63.6658 24.787L66.5878 24.7873Z" fill="#56DFED"/>
<path d="M72.8869 38.3489L73.3367 33.3776" stroke="#282828" stroke-width="0.258327" stroke-miterlimit="10" stroke-linecap="round" stroke-linejoin="round"/>
<path d="M67.5364 24.9434V20.9886H62.9019V24.9899C62.6648 25.0607 62.27 25.2036 61.6569 25.4949L65.2715 27.6482L68.9668 25.4949C68.9668 25.4949 68.3803 25.1537 67.5364 24.9434Z" fill="#FFB1A5"/>
<path d="M62.8596 21.4724C62.8596 21.4724 63.692 23.6824 65.914 23.4918C67.956 23.3164 67.6311 20.2535 67.6311 20.2535L62.8596 21.4724Z" fill="#282828"/>
<path d="M60.8381 18.53C60.1117 19.189 58.4873 16.6897 59.1892 15.988C59.8911 15.2863 60.4265 16.3872 60.4265 16.3872L60.7399 17.1331L60.9764 18.1435L61.0325 18.4081L60.8381 18.53Z" fill="#F3978E"/>
<path d="M59.5278 16.8742C59.5278 16.8742 60.0776 16.6268 60.5661 17.424" stroke="#282828" stroke-width="0.207952" stroke-miterlimit="10" stroke-linecap="round" stroke-linejoin="round"/>
<path d="M69.4286 18.4561C70.0968 19.1741 71.9266 16.8213 71.2865 16.0628C70.6464 15.3044 70.0199 16.3558 70.0199 16.3558L69.6446 17.0726L69.3235 18.0594L69.2451 18.3183L69.4286 18.4561Z" fill="#F3978E"/>
<path d="M70.8734 16.9167C70.8734 16.9167 70.3464 16.6237 69.7923 17.3767" stroke="#282828" stroke-width="0.207952" stroke-miterlimit="10" stroke-linecap="round" stroke-linejoin="round"/>
<path d="M59.5641 13.6085C59.5641 16.9167 62.0865 18.4856 65.1978 18.4856C68.3091 18.4856 70.8314 16.9169 70.8314 13.6085C70.8314 10.3003 68.3091 8.04962 65.1978 8.04962C62.0865 8.04962 59.5641 10.3001 59.5641 13.6085Z" fill="#282828"/>
<path d="M60.3293 13.836C60.3293 15.8669 60.6162 17.6194 60.9026 18.8632C61.183 20.081 61.9723 20.9321 63.0874 21.617L63.2906 21.7418C64.4705 22.4666 65.9952 22.4835 67.1933 21.785C68.4016 21.0806 69.2477 20.1518 69.508 18.845C69.9816 16.468 70.0333 13.8358 70.0333 13.8358C70.0333 13.8358 70.4839 8.7088 65.2505 8.8085C60.0172 8.90842 60.3293 13.836 60.3293 13.836Z" fill="#FFB1A5"/>
<path d="M64.865 16.7635V17.473C64.865 17.5151 64.8731 17.5553 64.8878 17.5922C64.946 17.7371 65.1134 17.8067 65.2646 17.7664L65.5899 17.6801" stroke="#282828" stroke-width="0.257971" stroke-miterlimit="10" stroke-linecap="round" stroke-linejoin="round"/>
<path d="M64.0326 14.0123L61.4317 14.6218C61.4317 14.6218 61.5498 13.9599 62.6139 13.7195C63.6779 13.479 64.0326 14.0123 64.0326 14.0123Z" fill="#282828"/>
<path d="M66.3409 14.0123L68.8523 14.6218C68.8523 14.6218 68.7382 13.9599 67.7108 13.7195C66.6834 13.479 66.3409 14.0123 66.3409 14.0123Z" fill="#282828"/>
<path d="M63.0445 16.3599C63.2868 16.3599 63.4831 16.1641 63.4831 15.9226C63.4831 15.681 63.2868 15.4852 63.0445 15.4852C62.8023 15.4852 62.6059 15.681 62.6059 15.9226C62.6059 16.1641 62.8023 16.3599 63.0445 16.3599Z" fill="#282828"/>
<path d="M67.6418 15.9226C67.6418 16.1641 67.4453 16.3599 67.2032 16.3599C66.9608 16.3599 66.7646 16.1641 66.7646 15.9226C66.7646 15.681 66.961 15.4852 67.2032 15.4852C67.4455 15.485 67.6418 15.6808 67.6418 15.9226Z" fill="#282828"/>
<path d="M63.4834 18.5916H66.8657C66.8657 18.5916 65.3666 20.4151 63.4834 18.5916Z" fill="white"/>
<path d="M64.1784 17.4126C64.9069 16.6842 64.9069 15.5032 64.1784 14.7748C63.45 14.0464 62.269 14.0464 61.5406 14.7748C60.8122 15.5032 60.8122 16.6842 61.5406 17.4126C62.269 18.141 63.45 18.141 64.1784 17.4126Z" stroke="#C98BD2" stroke-width="0.281158" stroke-miterlimit="10"/>
<path d="M68.7608 17.4126C69.4892 16.6842 69.4892 15.5032 68.7608 14.7748C68.0323 14.0464 66.8513 14.0464 66.1229 14.7748C65.3945 15.5032 65.3945 16.6842 66.1229 17.4126C66.8513 18.141 68.0323 18.141 68.7608 17.4126Z" stroke="#C98BD2" stroke-width="0.281158" stroke-miterlimit="10"/>
<path d="M64.726 16.0948C64.726 16.0948 65.1677 15.6826 65.5776 16.0948" stroke="#C98BD2" stroke-width="0.281158" stroke-miterlimit="10"/>
<path d="M60.9955 16.0923L60.4079 16.0775" stroke="#C98BD2" stroke-width="0.281158" stroke-miterlimit="10"/>
<path d="M69.3074 16.0923L69.8983 16.0775" stroke="#C98BD2" stroke-width="0.281158" stroke-miterlimit="10"/>
<path d="M69.9664 15.5356C69.9664 15.5356 67.8741 12.7071 68.3567 9.84143C68.3567 9.84143 69.9096 10.6229 70.3141 12.6402C70.7185 14.6573 69.9664 15.5356 69.9664 15.5356Z" fill="#282828"/>
<path d="M60.3259 15.7279C60.3259 15.7279 62.7565 12.5152 62.2739 9.64954C62.2739 9.64954 60.5881 10.6235 60.1837 12.6406C59.7792 14.6579 60.3259 15.7279 60.3259 15.7279Z" fill="#282828"/>
<path d="M69.7905 10.9695C69.7905 10.9695 67.1038 13.9108 59.7532 13.4072C59.7532 13.4072 60.8789 9.09109 64.4411 8.63154C64.4411 8.63154 68.5543 8.14035 69.7905 10.9695Z" fill="#282828"/>
<path d="M73.0712 8.09405C73.3802 6.1805 72.0794 4.37879 70.1658 4.06981C68.2523 3.76084 66.4506 5.0616 66.1416 6.97515C65.8326 8.8887 67.1334 10.6904 69.0469 10.9994C70.9605 11.3084 72.7622 10.0076 73.0712 8.09405Z" fill="#282828"/>
<path d="M26.7585 46.3164L20.2216 45.4458L20.2813 44.6866L12.6356 45.7047C12.6356 45.7047 8.46277 56.8876 12.1765 80.1368H17.4941L19.3478 56.5623H20.0275L21.9413 80.1368H27.2589C30.972 56.8876 26.7585 46.3164 26.7585 46.3164Z" fill="#282828"/>
<path d="M26.2365 14.5124C25.3517 13.4716 24.6433 12.2573 24.0414 10.5534C23.395 8.72436 21.2788 9.46773 21.2788 9.46773C21.2788 9.46773 19.5153 7.19907 16.8617 7.98915C14.208 8.77924 13.286 10.6677 13.232 12.9127C13.1779 15.1577 11.412 15.509 10.0521 18.1061C7.65152 22.6912 11.6933 26.553 19.0503 25.4818L19.0602 25.4104C19.7845 25.6303 20.6726 25.7264 21.7566 25.6621C30.5949 25.1374 29.742 18.6364 26.2365 14.5124Z" fill="#282828"/>
<path d="M23.3432 17.9117C24.0696 18.5707 25.6939 16.0714 24.992 15.3697C24.2901 14.668 23.7548 15.7689 23.7548 15.7689L23.4414 16.515L23.2049 17.5255L23.1488 17.79L23.3432 17.9117Z" fill="#F3978E"/>
<path d="M24.6529 16.2529C24.6529 16.2529 24.1031 16.0055 23.6147 16.8027" stroke="#282828" stroke-width="0.207952" stroke-miterlimit="10" stroke-linecap="round" stroke-linejoin="round"/>
<path d="M14.7528 17.8365C14.0846 18.5546 12.2548 16.2017 12.8949 15.4432C13.535 14.6848 14.1615 15.7363 14.1615 15.7363L14.5369 16.4531L14.858 17.4398L14.9363 17.6987L14.7528 17.8365Z" fill="#F3978E"/>
<path d="M13.307 16.2909C13.307 16.2909 13.834 15.9979 14.388 16.7509" stroke="#282828" stroke-width="0.207952" stroke-miterlimit="10" stroke-linecap="round" stroke-linejoin="round"/>
<path d="M24.6171 12.9863C24.6171 16.2945 22.0948 17.8634 18.9834 17.8634C15.8721 17.8634 13.3498 16.2947 13.3498 12.9863C13.3498 9.67787 15.8721 7.42743 18.9834 7.42743C22.095 7.42743 24.6171 9.67807 24.6171 12.9863Z" fill="#282828"/>
<path d="M21.2785 20.3679H16.644V26.3692H21.2785V20.3679Z" fill="#FFB1A5"/>
<path d="M15.9683 19.9939C15.9683 19.9939 17.2583 22.5685 18.8454 22.9705C19.2696 23.078 19.7222 23.0411 20.1311 22.8961C20.7285 22.6844 21.4859 21.7938 21.6147 20.8082L21.6744 20.2452C21.6744 20.2452 18.8504 21.7831 15.9683 19.9939Z" fill="#282828"/>
<path d="M23.8516 13.2153C23.8516 15.2462 23.5646 16.9987 23.2783 18.2425C22.9978 19.4603 22.2086 20.3114 21.0934 20.9963L20.8902 21.1211C19.7103 21.8459 18.1857 21.8628 16.9876 21.1643C15.7792 20.4599 14.9332 19.5311 14.6728 18.2243C14.1992 15.8476 14.1475 13.2151 14.1475 13.2151C14.1475 13.2151 13.697 8.0881 18.9303 8.18781C24.1637 8.28751 23.8516 13.2153 23.8516 13.2153Z" fill="#FFB1A5"/>
<path d="M18.6334 16.4162V16.8377C18.6334 16.8796 18.6416 16.9198 18.6563 16.9566C18.7145 17.1012 18.8819 17.1705 19.0331 17.1305L19.3584 17.0444" stroke="#282828" stroke-width="0.257594" stroke-miterlimit="10" stroke-linecap="round" stroke-linejoin="round"/>
<path d="M19.7239 13.6385L22.5083 14.2974C22.5083 14.2974 22.3818 13.5819 21.2427 13.322C20.1035 13.0618 19.7239 13.6385 19.7239 13.6385Z" fill="#282828"/>
<path d="M18.2616 13.6385L15.4417 14.2974C15.4417 14.2974 15.5699 13.5819 16.7236 13.322C17.8771 13.0618 18.2616 13.6385 18.2616 13.6385Z" fill="#282828"/>
<path d="M17.2516 15.3658C17.2516 15.6067 17.0551 15.8019 16.813 15.8019C16.5707 15.8019 16.3744 15.6067 16.3744 15.3658C16.3744 15.1249 16.5709 14.9297 16.813 14.9297C17.0554 14.9297 17.2516 15.1251 17.2516 15.3658Z" fill="#282828"/>
<path d="M21.4095 15.3658C21.4095 15.6067 21.213 15.8019 20.9709 15.8019C20.7285 15.8019 20.5322 15.6067 20.5322 15.3658C20.5322 15.1249 20.7287 14.9297 20.9709 14.9297C21.2132 14.9297 21.4095 15.1251 21.4095 15.3658Z" fill="#282828"/>
<path d="M16.9615 17.8604H20.8112C20.8112 17.8604 20.5395 18.9182 18.7939 18.9182C17.4644 18.9182 16.9615 17.8604 16.9615 17.8604Z" fill="white"/>
<path d="M14.2146 14.9149C14.2146 14.9149 16.3069 12.0864 15.8243 9.22076C15.8243 9.22076 14.2714 10.0023 13.8669 12.0196C13.4625 14.0365 14.2146 14.9149 14.2146 14.9149Z" fill="#282828"/>
<path d="M23.8549 14.8212C23.8549 14.8212 21.4244 11.8945 21.907 9.02884C21.907 9.02884 23.5927 10.0028 23.9972 12.0199C24.4016 14.037 23.8549 14.8212 23.8549 14.8212Z" fill="#282828"/>
<path d="M14.3899 10.3488C14.3899 10.3488 16.7907 13.5758 24.1413 13.0724C24.1413 13.0724 23.3016 8.4706 19.7393 8.01084C19.7393 8.01084 15.6261 7.51965 14.3899 10.3488Z" fill="#282828"/>
<path d="M7.68988 60.5194C7.58306 60.6876 13.8078 33.4352 11.9597 33.8472C11.7911 33.8847 8.55433 34.1853 8.0732 35.1635C6.67861 37.9987 5.67865 60.3127 5.67865 60.3127L7.68988 60.5194Z" fill="#FFB1A5"/>
<path d="M5.67842 60.3135C5.67842 60.3135 4.6751 64.9687 8.468 65.4777C8.71789 65.5112 8.9594 65.3638 9.04171 65.1254L9.05261 65.0938C9.1433 64.8307 9.01155 64.5487 8.75748 64.4352C8.13915 64.1587 7.17982 63.4602 7.65593 61.8735C7.65593 61.8735 8.20408 61.8063 8.50675 62.8289C8.58467 63.0919 8.8798 63.2241 9.12487 63.1007C9.29223 63.0165 9.38628 62.8366 9.36282 62.6508C9.27191 61.9345 8.91143 60.2102 7.52899 59.7475L5.67842 60.3135Z" fill="#FFB1A5"/>
<path d="M6.9547 41.7089C6.9547 41.7089 10.5413 46.7598 10.5601 46.6622C10.579 46.5646 11.8144 39.5707 11.8144 39.5707L7.46222 37.6856L6.9547 41.7089Z" fill="#F3978E"/>
<path d="M16.9204 25.383C17.0735 25.3822 8.05643 25.5437 6.4084 36.9293L11.5904 37.7232L12.6352 46.3186H27.0913L29.9613 30.4373C29.9613 30.4373 27.921 26.9965 21.974 25.3108L16.9204 25.383Z" fill="#00857B"/>
<path d="M12.513 26.7597C12.513 26.7597 13.7874 28.4513 19.0086 28.4513C24.1812 28.4513 25.5039 26.6711 25.5039 26.6711C25.5039 26.6711 22.4546 24.9673 18.9162 24.4163C18.9162 24.4163 15.7567 24.9789 12.513 26.7597Z" fill="#FFB1A5"/>
<path d="M30.2526 62.8224L30.2652 85.5289H41.4981L42.3615 62.8224H30.2526Z" fill="#005683"/>
<path d="M54.6423 62.8224L54.6297 85.5289H43.3968L42.5334 62.8224H54.6423Z" fill="#005683"/>
<path d="M48.5075 62.8224H36.8931V70.7111H48.5075V62.8224Z" fill="#005683"/>
<path d="M61.7399 43.0059C62.4364 50.7002 61.7018 56.3064 61.9048 70.4644L55.2004 70.7453L54.2012 44.244L61.7399 43.0059Z" fill="#FFB1A5"/>
<path d="M55.0281 49.0108C55.0281 49.0108 59.18 48.6306 62.0184 46.7582L61.9437 45.1104L55.0258 46.0526L55.0281 49.0108Z" fill="#F3978E"/>
<path d="M48.3685 25.2923C48.3685 25.2923 61.5561 28.6086 63.9454 45.3477C63.9454 45.3477 57.4911 48.1458 51.023 46.9423L52.4781 41.3436L48.3685 25.2923Z" fill="#FA6E20"/>
<path d="M8.97749 32.2522L18.7966 43.8481L15.7919 52.3099C15.7919 52.3099 8.3288 41.9338 4.97534 33.9138L8.97749 32.2522Z" fill="#FFB1A5"/>
<path d="M9.30114 32.6671C9.30114 32.6671 5.85322 34.615 4.97621 33.9104C3.44359 32.679 2.17699 28.1714 2.17699 28.1714C2.17699 28.1714 8.62459 25.7406 8.56405 25.8357C8.50373 25.9306 9.30114 32.6671 9.30114 32.6671Z" fill="#FFB1A5"/>
<path d="M9.30112 32.6663C9.24017 32.3192 10.5797 28.5745 11.0388 27.1702C11.1496 26.8315 10.9161 26.4602 10.5485 26.3898C10.309 26.3439 9.93013 26.3734 9.75083 26.7168L8.13359 29.4808L9.30112 32.6663Z" fill="#FFB1A5"/>
<path d="M9.18314 28.6184L8.0728 23.0943C8.00703 22.7267 7.63754 22.4734 7.2691 22.543C6.95009 22.6033 6.73979 22.8873 6.77749 23.2072L7.26135 27.3206L9.18314 28.6184Z" fill="#FFB1A5"/>
<path d="M6.97503 26.5802L5.46713 22.6355C5.3425 22.2901 4.95374 22.0986 4.61043 22.2136C4.31279 22.3133 4.14585 22.6133 4.21623 22.9212L5.33517 27.4792L6.97503 26.5802Z" fill="#FFB1A5"/>
<path d="M5.3543 27.7445L3.44654 23.8684C3.27143 23.5088 2.83575 23.3416 2.4782 23.4972C2.14223 23.6432 1.99351 24.0238 2.13741 24.3699L3.6583 28.0291L5.3543 27.7445Z" fill="#FFB1A5"/>
<path d="M2.17724 28.1718L0.680229 25.7974C0.556229 25.5179 0.670592 25.2048 0.941843 25.0808C1.20136 24.9622 1.52205 25.0555 1.68982 25.2984L3.65833 28.0294L2.17724 28.1718Z" fill="#FFB1A5"/>
<path d="M8.88133 28.2031C8.88133 28.2031 6.6332 27.9673 6.40216 30.9634" stroke="#282828" stroke-width="0.32083" stroke-miterlimit="10" stroke-linecap="round" stroke-linejoin="round"/>
<path d="M13.8021 48.3534C13.8021 48.3534 15.6489 54.7447 19.3289 53.8949C23.0091 53.0451 28.7448 45.1851 28.7448 45.1851L27.461 31.7642L17.1317 44.4771L13.8021 48.3534Z" fill="#FFB1A5"/>
<path d="M20.3361 40.5291C20.3361 40.5291 23.8234 45.7893 26.7981 47.644L28.7453 45.1862L21.2338 39.3756L20.3361 40.5291Z" fill="#F3978E"/>
<path d="M35.5925 25.0016C35.5925 25.0016 25.3541 27.3094 19.8981 39.2085C19.8981 39.2085 23.1946 44.1756 28.4795 46.3833L32.0177 42.0487L35.5925 25.0016Z" fill="#FA6E20"/>
<path d="M35.591 24.9627C31.5916 27.0141 29.0772 29.7348 29.0772 29.7348L29.8662 64.5178H55.0699L54.9882 29.9143C54.9882 29.9143 51.8112 26.8055 48.368 25.2899C45.4438 24.0023 38.4342 23.5044 35.591 24.9627Z" fill="#FA6E20"/>
<path d="M47.5177 41.9102C45.5817 41.9102 44.0122 40.3408 44.0122 38.4047V34.899H51.0234V38.4047C51.0234 40.3408 49.454 41.9102 47.5177 41.9102Z" stroke="#282828" stroke-width="0.292574" stroke-miterlimit="10" stroke-linecap="round" stroke-linejoin="round"/>
<path d="M55.0293 47.0679L55.3562 35.6894" stroke="#282828" stroke-width="0.292574" stroke-miterlimit="10" stroke-linecap="round" stroke-linejoin="round"/>
<path d="M29.4648 45.1721L28.9202 35.3088" stroke="#282828" stroke-width="0.292574" stroke-miterlimit="10" stroke-linecap="round" stroke-linejoin="round"/>
<path d="M35.8858 12.2608L34.8352 7.06301C34.7761 6.63969 34.6119 5.98618 34.813 5.37246C35.1458 4.35679 36.3688 2.40609 38.459 3.29922L38.9108 5.35717C38.9108 5.35717 36.74 5.79536 35.8693 8.63522L35.8858 12.2608Z" fill="#282828"/>
<path d="M38.305 4.37241C38.2669 5.05525 37.664 8.04361 35.5449 9.13218C35.5449 9.13218 33.6887 5.15118 38.305 4.37241Z" fill="#282828"/>
<path d="M45.7393 24.0073V15.1813H37.603V24.0073L35.181 25.1114C35.181 25.1114 35.7491 28.7694 41.7564 28.8504C47.7639 28.9315 48.3674 25.2913 48.3674 25.2913L45.7393 24.0073Z" fill="#FFB1A5"/>
<path d="M38.459 3.29831C38.459 3.29831 39.9522 -0.640792 44.5568 1.45339C47.3436 2.72083 48.1243 4.42039 48.4565 5.62437C48.5669 6.02444 48.6109 6.6547 48.5809 7.0288L47.467 12.2596L43.1188 5.02238L38.911 5.35605L38.459 3.29831Z" fill="#282828"/>
<path d="M47.4679 12.2599C47.4679 12.2599 48.0165 11.3875 49.1478 11.8165C50.2791 12.2457 49.7673 14.9931 48.0703 15.3434C48.0703 15.3434 47.462 15.476 46.9849 15.0595C46.9849 15.0595 47.4021 13.0301 47.4679 12.2599Z" fill="#F3978E"/>
<path d="M48.9233 12.7834C48.9233 12.7834 47.9755 12.4671 47.3029 13.8627" stroke="#282828" stroke-width="0.292574" stroke-miterlimit="10" stroke-linecap="round" stroke-linejoin="round"/>
<path d="M35.8857 12.2599C35.8857 12.2599 35.3371 11.3875 34.2058 11.8165C33.0745 12.2457 33.5863 14.9931 35.2833 15.3434C35.2833 15.3434 35.8916 15.476 36.3687 15.0595C36.3687 15.0595 35.9513 13.0301 35.8857 12.2599Z" fill="#F3978E"/>
<path d="M34.4304 12.7834C34.4304 12.7834 35.3782 12.4671 36.0508 13.8627" stroke="#282828" stroke-width="0.292574" stroke-miterlimit="10" stroke-linecap="round" stroke-linejoin="round"/>
<path d="M47.5802 9.65364C47.5809 11.3101 47.4181 14.7754 46.3999 16.8323C45.4437 18.7635 43.8625 19.8028 41.7895 19.8646C39.7163 19.9266 38.1719 19.1275 36.9342 16.6211C35.6965 14.1147 35.7556 9.68443 35.7556 9.68443C35.7556 9.68443 35.7556 3.7674 41.6037 3.7674C47.7631 3.7674 47.5802 9.65364 47.5802 9.65364Z" fill="#FFB1A5"/>
<path d="M37.6645 17.855C37.6645 17.855 38.3459 21.3122 41.3548 21.7095C44.8175 22.1666 45.7398 17.943 45.7398 17.943C45.7398 17.943 44.2097 19.8604 41.7898 19.8633C39.0909 19.8665 37.6645 17.855 37.6645 17.855Z" fill="#282828"/>
<path d="M41.2512 12.1057V13.4752C41.2512 13.5341 41.2625 13.5904 41.2833 13.6419C41.3643 13.8447 41.5979 13.9419 41.809 13.8857L42.2629 13.7651" stroke="#282828" stroke-width="0.292574" stroke-miterlimit="10" stroke-linecap="round" stroke-linejoin="round"/>
<path d="M39.5244 11.4509C39.5244 11.745 39.2861 11.9834 38.992 11.9834C38.6979 11.9834 38.4595 11.745 38.4595 11.4509C38.4595 11.1569 38.6979 10.9185 38.992 10.9185C39.2861 10.9185 39.5244 11.1569 39.5244 11.4509Z" fill="#282828"/>
<path d="M44.515 11.4509C44.515 11.745 44.2766 11.9834 43.9825 11.9834C43.6884 11.9834 43.4501 11.745 43.4501 11.4509C43.4501 11.1569 43.6884 10.9185 43.9825 10.9185C44.2768 10.9185 44.515 11.1569 44.515 11.4509Z" fill="#282828"/>
<path d="M42.6198 8.80304L46.1993 9.7276C46.1993 9.7276 46.0365 8.72366 44.5722 8.35878C43.1079 7.9939 42.6198 8.80304 42.6198 8.80304Z" fill="#282828"/>
<path d="M40.3955 8.80304L36.8161 9.7276C36.8161 9.7276 36.9788 8.72366 38.4432 8.35878C39.9075 7.9939 40.3955 8.80304 40.3955 8.80304Z" fill="#282828"/>
<path d="M39.6842 14.8543C39.6842 14.8543 40.2123 15.259 41.6008 15.259C42.8636 15.259 43.6522 14.8543 43.6522 14.8543" stroke="#282828" stroke-width="0.292574" stroke-miterlimit="10" stroke-linecap="round" stroke-linejoin="round"/>
<path d="M38.8479 13.8686C40.0973 13.8686 41.1101 12.8558 41.1101 11.6064C41.1101 10.3571 40.0973 9.34427 38.8479 9.34427C37.5985 9.34427 36.5857 10.3571 36.5857 11.6064C36.5857 12.8558 37.5985 13.8686 38.8479 13.8686Z" stroke="white" stroke-width="0.40874" stroke-miterlimit="10"/>
<path d="M44.4052 13.8686C45.6546 13.8686 46.6674 12.8558 46.6674 11.6064C46.6674 10.3571 45.6546 9.34427 44.4052 9.34427C43.1559 9.34427 42.1431 10.3571 42.1431 11.6064C42.1431 12.8558 43.1559 13.8686 44.4052 13.8686Z" stroke="white" stroke-width="0.40874" stroke-miterlimit="10"/>
<path d="M41.1103 11.606C41.1103 11.606 41.6461 11.106 42.1433 11.606" stroke="white" stroke-width="0.40874" stroke-miterlimit="10"/>
<path d="M36.5857 11.6047L35.827 11.5854" stroke="white" stroke-width="0.40874" stroke-miterlimit="10"/>
<path d="M46.6676 11.6057L47.5143 11.5919" stroke="white" stroke-width="0.40874" stroke-miterlimit="10"/>
<path d="M37.6645 4.50673C37.6645 4.50673 38.751 7.59313 43.6532 7.49845C46.9842 7.43415 47.7802 9.84461 47.7802 9.84461C47.7802 9.84461 47.2004 4.45584 47.0479 4.50673C46.8954 4.55763 41.9792 3.19489 41.9792 3.19489L37.6645 4.50673Z" fill="#282828"/>
</g>
</svg>
