<svg width="85" height="73" viewBox="0 0 85 73" fill="none" xmlns="http://www.w3.org/2000/svg">
<path d="M26.0439 6.3798H34.0296C35.1024 6.3798 35.972 5.51019 35.972 4.43742V1.94239C35.972 0.869617 35.1024 0 34.0296 0H26.0439C24.9711 0 24.1015 0.869617 24.1015 1.94239V4.43742C24.1015 5.51019 24.9711 6.3798 26.0439 6.3798Z" fill="#00B4FF"/>
<path d="M33.1983 5.99279C32.6527 6.0314 32.5313 6.77924 33.0366 6.98853V6.98853C33.4799 7.17213 33.9132 6.70659 33.6982 6.27758V6.27758C33.6044 6.09038 33.4072 5.97801 33.1983 5.99279V5.99279Z" fill="#00B4FF"/>
<path d="M31.4862 3.1935C31.4862 3.5678 31.7897 3.87106 32.1638 3.87106C32.5381 3.87106 32.8414 3.56764 32.8414 3.1935C32.8414 2.81919 32.5379 2.51593 32.1638 2.51593C31.7897 2.51593 31.4862 2.81936 31.4862 3.1935Z" fill="#E8EDFE"/>
<path d="M29.3586 3.1935C29.3586 3.5678 29.6621 3.87106 30.0362 3.87106C30.4105 3.87106 30.7138 3.56764 30.7138 3.1935C30.7138 2.81919 30.4103 2.51593 30.0362 2.51593C29.6621 2.51593 29.3586 2.81936 29.3586 3.1935Z" fill="#E8EDFE"/>
<path d="M27.2323 3.1935C27.2323 3.5678 27.5358 3.87106 27.9099 3.87106C28.2842 3.87106 28.5875 3.56764 28.5875 3.1935C28.5875 2.81919 28.284 2.51593 27.9099 2.51593C27.5356 2.51593 27.2323 2.81936 27.2323 3.1935Z" fill="#E8EDFE"/>
<path d="M48.6519 41.8627C48.5814 40.8626 47.7495 40.0874 46.7471 40.0874H39.11C38.8688 40.0874 38.6733 40.2829 38.6733 40.5241C38.6733 40.7653 38.8688 40.9608 39.11 40.9608H39.7296C39.9319 40.9608 40.0998 41.1172 40.114 41.3191L42.0064 68.1497C42.1 69.4752 41.0498 70.6021 39.7209 70.6021H33.3885C33.0026 70.6021 32.6897 70.915 32.6897 71.3008C32.6897 71.6867 33.0026 71.9996 33.3885 71.9996H42.278H47.9709H48.7285C49.8361 71.9996 50.7113 71.0605 50.6334 69.9557L48.6519 41.8627Z" fill="#5542CD"/>
<path d="M68.1154 58.9531H15.3608C13.0712 58.9531 11.3769 56.8231 11.8919 54.5921L20.3751 17.8471C20.7481 16.232 22.1864 15.0878 23.844 15.0878H76.5986C78.8882 15.0878 80.5825 17.2179 80.0674 19.4487L71.5842 56.1937C71.2112 57.809 69.773 58.9531 68.1154 58.9531Z" fill="#5142CE"/>
<path d="M66.0692 58.9531H13.3146C11.025 58.9531 9.33068 56.8231 9.84575 54.5921L18.329 17.8471C18.7018 16.232 20.1402 15.0878 21.7978 15.0878H74.5524C76.842 15.0878 78.5363 17.2179 78.0213 19.4487L69.5381 56.1937C69.1652 57.809 67.7268 58.9531 66.0692 58.9531Z" fill="#00004C"/>
<path d="M13.3145 57.1468C12.7759 57.1468 12.2747 56.9049 11.9393 56.4836C11.6041 56.0621 11.4815 55.5197 11.6024 54.995L20.0857 18.2495C20.2709 17.4476 20.9746 16.8878 21.7975 16.8878H74.552C75.0906 16.8878 75.5918 17.1297 75.9269 17.551C76.2623 17.9725 76.385 18.5153 76.2638 19.0401L67.7809 55.7851C67.5961 56.5869 66.892 57.1468 66.0691 57.1468H13.3145Z" fill="#E8EDFE"/>
<path d="M18.8518 45.5663C18.5054 45.5663 18.183 45.4109 17.9673 45.1398C17.7517 44.8687 17.6728 44.5199 17.7506 44.1825L23.207 20.5478C23.3261 20.0321 23.7788 19.672 24.308 19.672H58.2396C58.586 19.672 58.9084 19.8275 59.1239 20.0986C59.3397 20.3697 59.4185 20.7188 59.3406 21.0564L53.8843 44.6905C53.7654 45.2062 53.3126 45.5663 52.7833 45.5663H18.8518Z" fill="#DEE4FF"/>
<path d="M15.7022 55.0414C15.7022 55.0414 15.7022 55.0413 15.7022 55.0413C15.6169 55.0413 15.5376 55.0031 15.4846 54.9363C15.4315 54.8695 15.412 54.7838 15.4311 54.7007L16.7745 48.882C16.8039 48.755 16.9153 48.6664 17.0456 48.6664H40.07C40.1552 48.6664 40.2346 48.7047 40.2877 48.7714C40.3407 48.8382 40.3602 48.9241 40.3411 49.0073L38.9977 54.8259C38.9685 54.9528 38.8569 55.0415 38.7266 55.0415H15.7023C15.7023 55.0415 15.7022 55.0415 15.7022 55.0414V55.0414Z" fill="#DEE4FF"/>
<path d="M48.498 55.0414C48.498 55.0414 48.498 55.0413 48.4979 55.0413C48.4127 55.0413 48.3334 55.0031 48.2803 54.9363C48.2272 54.8695 48.2078 54.7838 48.2269 54.7007L49.5703 48.882C49.5997 48.755 49.711 48.6664 49.8414 48.6664H63.6197C63.7049 48.6664 63.7843 48.7047 63.8374 48.7714C63.8904 48.8382 63.9099 48.9241 63.8908 49.0073L62.5474 54.8259C62.5182 54.9528 62.4066 55.0415 62.2763 55.0415H48.4981C48.498 55.0415 48.498 55.0415 48.498 55.0414V55.0414Z" fill="#DEE4FF"/>
<path d="M61.8132 45.5663C61.4668 45.5663 61.1444 45.4109 60.9287 45.1398C60.7131 44.8687 60.6343 44.5199 60.712 44.1825L66.1685 20.5478C66.2875 20.0321 66.7402 19.672 67.2695 19.672H71.3284C71.6747 19.672 71.9971 19.8275 72.2127 20.0986C72.4284 20.3697 72.5073 20.7188 72.4294 21.0564L66.9731 44.6905C66.8542 45.2062 66.4013 45.5663 65.8721 45.5663H61.8132Z" fill="#DEE4FF"/>
<path opacity="0.47" d="M49.9042 59.5856C49.8542 58.876 49.2638 58.3258 48.5524 58.3258H42.77C41.984 58.3258 41.3628 58.9923 41.4181 59.7764V59.7764C41.4682 60.4861 42.0585 61.0362 42.77 61.0362H48.5524C49.3384 61.0362 49.9595 60.3697 49.9042 59.5856V59.5856Z" fill="#5542CD"/>
<path d="M79.0009 23.6994H56.701C55.5425 23.6994 54.82 22.7603 55.0875 21.6017L58.3338 7.54106C58.6013 6.38255 59.7572 5.44336 60.9159 5.44336H83.2159C84.3744 5.44336 85.0968 6.38255 84.8294 7.54106L81.5832 21.6017C81.3155 22.7603 80.1595 23.6994 79.0009 23.6994Z" fill="#7D6AFF"/>
<path d="M68.5743 10.6113H60.5016C59.7883 10.6113 59.3435 10.0331 59.5082 9.31973L59.8997 7.62443C60.0643 6.9111 60.7762 6.33282 61.4895 6.33282H69.5621C70.2755 6.33282 70.7203 6.9111 70.5556 7.62443L70.1643 9.31973C69.9993 10.0329 69.2876 10.6113 68.5743 10.6113Z" fill="#B8B2FF"/>
<path d="M70.4292 21.106H58.078C57.3647 21.106 56.9198 20.5277 57.0846 19.8144L57.476 18.1191C57.6406 17.4057 58.3525 16.8275 59.0658 16.8275H71.417C72.1303 16.8275 72.5752 17.4057 72.4104 18.1191L72.0191 19.8144C71.8543 20.5277 71.1427 21.106 70.4292 21.106Z" fill="#B8B2FF"/>
<path d="M79.1218 15.8587H59.2898C58.5764 15.8587 58.1317 15.2804 58.2964 14.567L58.6878 12.8717C58.8524 12.1584 59.5643 11.5801 60.2776 11.5801H80.1095C80.8228 11.5801 81.2675 12.1584 81.1029 12.8717L80.7114 14.567C80.5468 15.2804 79.8351 15.8587 79.1218 15.8587Z" fill="#B8B2FF"/>
<path d="M67.5443 7.46219H63.6292C63.1944 7.46219 62.9233 7.10977 63.0238 6.67504L63.5736 4.29351C63.6741 3.85879 64.1078 3.50653 64.5424 3.50653H68.4577C68.8924 3.50653 69.1633 3.85895 69.0631 4.29351L68.5132 6.67504C68.4128 7.10977 67.979 7.46219 67.5443 7.46219Z" fill="#5B3FDA"/>
<path d="M81.0393 9.81763H75.5414C75.0911 9.81763 74.8103 9.45264 74.9143 9.00223L75.9255 4.62247C76.0295 4.17223 76.4788 3.80707 76.9292 3.80707H82.4271C82.8774 3.80707 83.1583 4.17206 83.0542 4.62247L82.043 9.00223C81.939 9.45247 81.4896 9.81763 81.0393 9.81763Z" fill="#00B4FF"/>
<path d="M76.5059 5.89309V5.89309C76.6409 6.06017 76.8859 6.08586 77.0527 5.95041L77.6752 5.44464" stroke="#E8EDFE" stroke-width="0.249045" stroke-miterlimit="10" stroke-linecap="round" stroke-linejoin="round"/>
<path d="M78.3283 5.56628H81.9508" stroke="#E8EDFE" stroke-width="0.249045" stroke-miterlimit="10" stroke-linecap="round" stroke-linejoin="round"/>
<path d="M78.202 6.11365H78.9841" stroke="#E8EDFE" stroke-width="0.249045" stroke-miterlimit="10" stroke-linecap="round" stroke-linejoin="round"/>
<path d="M76.022 7.98883V7.98883C76.157 8.15591 76.4021 8.18159 76.5688 8.04612L77.1913 7.54022" stroke="#E8EDFE" stroke-width="0.249045" stroke-miterlimit="10" stroke-linecap="round" stroke-linejoin="round"/>
<path d="M77.8446 7.66559H81.4671" stroke="#E8EDFE" stroke-width="0.249045" stroke-miterlimit="10" stroke-linecap="round" stroke-linejoin="round"/>
<path d="M77.7183 8.21295H79.6868" stroke="#E8EDFE" stroke-width="0.249045" stroke-miterlimit="10" stroke-linecap="round" stroke-linejoin="round"/>
<path d="M60.7529 8.46967H69.3099" stroke="#E8EDFE" stroke-width="0.32291" stroke-miterlimit="10" stroke-linecap="round" stroke-linejoin="round"/>
<path d="M58.3305 18.9643H70.6817" stroke="#E8EDFE" stroke-width="0.32291" stroke-miterlimit="10" stroke-linecap="round" stroke-linejoin="round"/>
<path d="M59.6727 13.1606H65.5425" stroke="white" stroke-width="0.32291" stroke-miterlimit="10" stroke-linecap="round" stroke-linejoin="round"/>
<path d="M66.9634 13.1606H79.1803" stroke="white" stroke-width="0.32291" stroke-miterlimit="10" stroke-linecap="round" stroke-linejoin="round"/>
<path d="M59.3451 14.4448H62.0142" stroke="white" stroke-width="0.32291" stroke-miterlimit="10" stroke-linecap="round" stroke-linejoin="round"/>
<path d="M63.1095 14.4448H63.7768" stroke="white" stroke-width="0.32291" stroke-miterlimit="10" stroke-linecap="round" stroke-linejoin="round"/>
<path d="M65.1266 14.4448H69.1946" stroke="white" stroke-width="0.32291" stroke-miterlimit="10" stroke-linecap="round" stroke-linejoin="round"/>
<path d="M64.3222 4.84167H68.0923" stroke="#E8EDFE" stroke-width="0.32291" stroke-miterlimit="10" stroke-linecap="round" stroke-linejoin="round"/>
<path d="M63.9946 6.12585H65.6785" stroke="#E8EDFE" stroke-width="0.32291" stroke-miterlimit="10" stroke-linecap="round" stroke-linejoin="round"/>
<path d="M66.6551 6.12585H67.3225" stroke="#E8EDFE" stroke-width="0.32291" stroke-miterlimit="10" stroke-linecap="round" stroke-linejoin="round"/>
<path d="M74.5512 12.5865H70.8367C70.4342 12.5865 70.1832 12.2602 70.2761 11.8575L70.8 9.58814C70.8929 9.18558 71.2946 8.85913 71.6972 8.85913H75.4116C75.8142 8.85913 76.0654 9.18542 75.9723 9.58814L75.4484 11.8575C75.3555 12.2602 74.9537 12.5865 74.5512 12.5865Z" fill="#FF4173"/>
<path d="M71.8988 10.6752V10.6752C72.154 10.991 72.617 11.0396 72.9321 10.7836L74.1089 9.82751" stroke="#E8EDFE" stroke-width="0.30426" stroke-miterlimit="10" stroke-linecap="round" stroke-linejoin="round"/>
<path d="M79.7506 20.1399C79.6248 20.685 79.1394 21.071 78.5801 21.071H74.8971C74.1245 21.071 73.5527 20.3522 73.7266 19.5994V19.5994C73.8524 19.0543 74.3378 18.6683 74.8971 18.6683H78.5801C79.3527 18.6683 79.9245 19.3871 79.7506 20.1399V20.1399Z" fill="#B8B2FF"/>
<path d="M75.5429 19.8987C76.5254 20.6539 75.9914 22.2251 74.7521 22.2251H73.9911C73.5105 22.2251 73.2107 21.8355 73.3217 21.3549L73.4878 20.6356C73.7003 19.7151 74.7938 19.323 75.5429 19.8987V19.8987Z" fill="#E8EDFE"/>
<path d="M77.7382 20.003C76.6764 20.6053 77.1039 22.2251 78.3246 22.2251H78.3995C78.8801 22.2251 79.3597 21.8355 79.4708 21.3549L79.4825 21.304C79.7153 20.296 78.6381 19.4925 77.7382 20.003V20.003Z" fill="#DEE4FF"/>
<path d="M76.9528 16.9594C76.1368 17.4223 76.4653 18.6673 77.4035 18.6673V18.6673C78.2759 18.6673 78.6519 17.5613 77.9602 17.0296L77.7378 16.8587C77.581 16.7382 77.3428 16.7382 77.1303 16.8587L76.9528 16.9594Z" fill="#E8EDFE"/>
<path d="M18.2927 51.7814H6.04899C5.28552 51.7814 4.80948 51.1625 4.98569 50.399L5.65444 47.5026C5.83065 46.7391 6.59249 46.1202 7.35595 46.1202H19.5998C20.3633 46.1202 20.8393 46.7391 20.663 47.5026L19.9942 50.399C19.818 51.1625 19.0562 51.7814 18.2927 51.7814Z" fill="#5B3FDA"/>
<path d="M7.40012 48.0625H12.3371" stroke="#E8EDFE" stroke-width="0.400514" stroke-miterlimit="10" stroke-linecap="round" stroke-linejoin="round"/>
<path d="M13.5384 48.0627H17.7225" stroke="#E8EDFE" stroke-width="0.400514" stroke-miterlimit="10" stroke-linecap="round" stroke-linejoin="round"/>
<path d="M6.98936 49.8433H10.065" stroke="#E8EDFE" stroke-width="0.400514" stroke-miterlimit="10" stroke-linecap="round" stroke-linejoin="round"/>
<path d="M11.1367 49.8433H12.5026" stroke="#E8EDFE" stroke-width="0.400514" stroke-miterlimit="10" stroke-linecap="round" stroke-linejoin="round"/>
<path d="M17.2425 51.2164C17.6477 51.2069 17.9813 51.5328 17.9813 51.9382V51.9382C17.9813 52.5852 17.1957 52.9055 16.7433 52.4429V52.4429C16.302 51.9917 16.6114 51.2313 17.2425 51.2164V51.2164Z" fill="#5B3FDA"/>
<path d="M13.3437 44.3135H1.09996C0.336489 44.3135 -0.139552 43.6945 0.0366575 42.9311L0.705405 40.0346C0.881615 39.2712 1.64345 38.6522 2.40692 38.6522H14.6508C15.4143 38.6522 15.8903 39.2712 15.7139 40.0346L15.0454 42.9311C14.869 43.6947 14.1073 44.3135 13.3437 44.3135Z" fill="#00B4FF"/>
<path d="M2.45241 40.5955H7.38939" stroke="#E8EDFE" stroke-width="0.400514" stroke-miterlimit="10" stroke-linecap="round" stroke-linejoin="round"/>
<path d="M8.59052 40.5955H12.6152" stroke="#E8EDFE" stroke-width="0.400514" stroke-miterlimit="10" stroke-linecap="round" stroke-linejoin="round"/>
<path d="M2.04152 42.3694H4.19213" stroke="#E8EDFE" stroke-width="0.400514" stroke-miterlimit="10" stroke-linecap="round" stroke-linejoin="round"/>
<path d="M5.28886 42.3694H9.11894" stroke="#E8EDFE" stroke-width="0.400514" stroke-miterlimit="10" stroke-linecap="round" stroke-linejoin="round"/>
<path d="M2.25682 43.9072C2.83755 43.8936 3.03999 44.6726 2.52607 44.9434V44.9434C2.05929 45.1893 1.54766 44.7005 1.77214 44.223V44.223C1.86081 44.0344 2.04848 43.9121 2.25682 43.9072V43.9072Z" fill="#00B4FF"/>
<path d="M26.7617 48.1628C26.6472 48.0842 26.5311 47.9945 26.4133 47.8951C23.7249 45.621 20.2675 38.131 19.8189 37.3313C19.3507 36.4965 18.7943 36.1717 17.8734 35.3277C16.4938 34.063 16.4964 33.8387 15.9288 32.8751C15.1901 31.6216 14.6272 31.1013 15.1362 31.0606V31.0606C15.3601 31.0427 15.7527 30.7202 15.6044 30.5516V30.5516C15.0141 29.8797 15.238 29.4522 15.6044 29.4318C15.6818 29.4275 15.8419 29.5565 16.0463 29.7628C16.3196 30.0384 16.8388 29.7057 16.6428 29.3707V29.3707C16.1541 28.536 16.2763 28.4341 16.7242 28.3159C16.8556 28.2812 17.1275 28.5615 17.4462 28.9751C17.5836 29.1533 18.0151 28.9185 17.9662 28.6988V28.6988C17.8847 28.3324 18.2512 28.1492 18.6787 28.5156C18.8136 28.6313 19.0216 28.9578 19.243 29.3506C19.5496 29.8945 20.6586 29.4229 21.2644 29.5743V29.5743C22.0788 29.778 21.1272 31.6296 21.3511 32.2812C21.575 32.9326 21.9904 33.7278 22.4248 34.7594C22.8592 35.791 28.56 42.2518 28.56 42.2518" fill="#FFBBA5"/>
<path d="M19.3303 33.769C19.3498 33.4556 19.7929 33.2914 19.7255 33.598V33.598C19.6703 33.8485 19.3681 34.2842 19.3376 34.0295C19.3279 33.9484 19.3246 33.8614 19.3303 33.769Z" fill="#FF9E7C"/>
<path d="M40.1591 33.9344C41.596 29.355 35.7855 27.9662 33.486 32.179V32.179C32.6815 33.6529 31.8037 35.1638 31.0129 36.489C29.7947 38.5303 26.956 38.7435 25.3983 36.9477L25.001 36.4896C24.0237 35.3629 22.3496 35.1649 21.1364 36.0326V36.0326C20.0699 36.7955 19.6512 38.1793 20.1653 39.3857C21.5273 42.5816 24.316 48.5079 26.7719 49.8354C30.1749 51.6749 33.3284 47.2602 36.5804 41.5576C38.0217 39.0301 39.4061 36.3344 40.1591 33.9344Z" fill="#A695FF"/>
<path d="M19.6295 37.1092C19.8666 36.9396 20.1984 37.0234 20.3239 37.2865C21.2201 39.1664 24.4653 45.7364 26.7561 47.2791C28.6339 48.5438 32.4712 42.8872 34.6018 39.3844C35.2728 38.2814 36.9219 38.3019 37.529 39.4413V39.4413C37.8037 39.957 37.7819 40.5766 37.4591 41.0636C35.9577 43.3287 31.5574 49.7188 29.49 50.0498C26.9961 50.4491 25.2773 51.2679 19.476 37.6757C19.3907 37.4758 19.4527 37.2356 19.6295 37.1092V37.1092Z" fill="#887AFE"/>
<path d="M47.0052 25.8948C48.1104 25.8298 49.2178 25.979 50.2664 26.3343V26.3343C53.8491 27.5482 56.2174 30.9575 56.1893 34.7401C56.1457 40.6012 56.2244 49.4951 56.9016 56.9686C57.0631 58.7508 51.3164 58.328 44.2114 58.328C39.5004 58.328 35.0434 58.4195 34.9831 57.09C34.6798 50.3962 34.7531 39.236 34.7761 36.5586C34.7795 36.1649 34.7653 35.7715 34.7778 35.3779C34.8731 32.3894 36.6119 27.8871 39.2079 26.9477V26.9477C40.5082 26.4771 41.8697 26.1968 43.2501 26.1156L47.0052 25.8948Z" fill="#B8B2FF"/>
<path d="M34.9418 55.9987C34.9187 55.3506 35.4118 54.798 36.0552 54.7175C40.2126 54.1972 54.1344 51.4381 53.4687 37.8542C53.4657 37.7927 53.4709 37.7285 53.4848 37.6686V37.6686C53.6505 36.9581 54.6777 37.0112 54.7615 37.736C55.2427 41.8942 56.0207 48.6849 56.5253 53.432C56.7373 55.4265 55.1703 57.1447 53.1645 57.1447H36.1295C35.4896 57.1447 34.9646 56.6381 34.9418 55.9987V55.9987Z" fill="#ABA5FF"/>
<path d="M38.564 18.684C42.893 23.3395 52.3848 21.0202 51.767 14.6931V14.6931V14.6931C51.4881 11.8371 48.4091 9.15937 45.773 8.02559C44.8202 7.61577 43.5671 7.33765 41.9205 7.33522C41.8646 7.33513 41.8092 7.33546 41.7544 7.3362C37.1566 7.39815 35.0789 14.599 38.0517 18.107V18.107C38.2202 18.3058 38.3911 18.4981 38.564 18.684Z" fill="#000067"/>
<path d="M43.8985 21.522C46.0034 21.0192 48.0624 22.5071 48.2457 24.6634V24.6634C48.3742 26.176 47.7339 27.6518 46.5416 28.5913C46.1407 28.9072 45.3945 29.3053 44.6566 29.6649C43.5421 30.2079 42.6888 29.6058 41.5986 29.0156V29.0156V29.0156C41.2677 28.8365 41.0616 28.4905 41.0616 28.1143V25.0423C41.0616 23.3756 42.2052 21.9265 43.8264 21.5392L43.8985 21.522Z" fill="#FFBBA5"/>
<path d="M40.737 26.5238C40.7918 26.2566 41.061 26.3646 41.061 26.6374V26.6374C41.061 27.0215 40.6814 27.0686 40.714 26.6859C40.7188 26.6302 40.7263 26.576 40.737 26.5238Z" fill="#3A2FBC"/>
<path d="M41.0616 25.2169C41.0616 24.3451 41.6139 23.5689 42.4377 23.2833L43.1055 23.0517C45.14 22.3462 46.9514 24.027 45.4223 25.5432C44.9087 26.0525 44.2592 26.5352 43.4381 26.9364C42.2738 27.5052 41.0616 26.5127 41.0616 25.2169V25.2169Z" fill="#FF9E7C"/>
<path d="M47.9841 19.3037C47.9937 19.8973 47.9649 20.4903 47.8111 21.0637C47.3753 22.6886 45.9355 26.0191 41.4551 26.0191C35.829 26.0191 37.0883 15.8246 37.8622 13.3802C38.4999 10.6471 45.1853 10.7014 46.918 12.8669C47.7942 13.962 47.9568 17.6034 47.9841 19.3037Z" fill="#FFBBA5"/>
<path d="M41.3444 18.4607C41.3444 18.697 41.4733 18.8884 41.6322 18.8884C41.7911 18.8884 41.9199 18.6969 41.9199 18.4607C41.9199 18.2246 41.7911 18.033 41.6322 18.033C41.4733 18.033 41.3444 18.2244 41.3444 18.4607Z" fill="#000067"/>
<path d="M37.9721 18.4607C37.9721 18.697 38.1009 18.8884 38.2598 18.8884C38.4187 18.8884 38.5476 18.6969 38.5476 18.4607C38.5476 18.2246 38.4187 18.033 38.2598 18.033C38.1009 18.033 37.9721 18.2244 37.9721 18.4607Z" fill="#000067"/>
<path d="M40.2223 23.2617C39.6539 23.2323 39.3259 22.7432 39.1563 22.3662V22.3662C39.0677 22.1813 39.2525 21.9895 39.4569 22.0047C39.6995 22.0227 40.0304 22.0177 40.4313 21.9398C41.0134 21.8267 41.6288 22.253 41.2979 22.7452C41.0915 23.0523 40.7587 23.2896 40.2223 23.2617Z" fill="#B63847"/>
<path d="M39.838 22.0103C40.3305 21.9903 40.5524 22.3869 40.0615 22.4318C39.7549 22.4599 39.4719 22.429 39.2536 22.3866C39.1918 22.3746 39.1156 22.2785 39.0921 22.22V22.22C39.0321 22.0702 39.1975 21.9781 39.3579 21.9956C39.487 22.0096 39.6483 22.018 39.838 22.0103Z" fill="#FFEEF7"/>
<path d="M39.838 22.0103C40.3305 21.9903 40.5524 22.3869 40.0615 22.4318C39.7549 22.4599 39.4719 22.429 39.2536 22.3866C39.1918 22.3746 39.1156 22.2785 39.0921 22.22V22.22C39.0321 22.0702 39.1975 21.9781 39.3579 21.9956C39.487 22.0096 39.6483 22.018 39.838 22.0103Z" fill="#FFEEF7"/>
<path d="M40.2221 23.2628C40.3489 23.2694 40.4642 23.2611 40.5691 23.2406C41.117 23.1333 40.9449 22.4184 40.3924 22.4982V22.4982C40.3221 22.5084 40.254 22.5225 40.1887 22.5401C39.7574 22.6567 39.7758 23.2398 40.2221 23.2628V23.2628Z" fill="#D84655"/>
<path d="M39.9725 18.4393C39.9412 18.8164 39.8435 19.1874 39.6884 19.5325C39.4241 20.1205 39.3988 20.9024 40.0261 21.0511V21.0511" stroke="#DE7D65" stroke-width="0.279976" stroke-miterlimit="10" stroke-linecap="round" stroke-linejoin="round"/>
<path d="M42.7867 17.1675C42.4739 16.7806 41.9414 16.5851 41.4526 16.6779" stroke="#000067" stroke-width="0.37329" stroke-miterlimit="10" stroke-linecap="round" stroke-linejoin="round"/>
<path d="M38.8694 16.832C38.4891 16.6122 37.9657 16.6779 37.6513 16.9849" stroke="#000067" stroke-width="0.37329" stroke-miterlimit="10" stroke-linecap="round" stroke-linejoin="round"/>
<path d="M47.3584 18.4283C46.2444 17.5324 42.925 14.6739 41.496 14.7141C40.8647 14.7319 40.2015 14.6663 39.5337 14.4719V14.4719C38.6721 14.2213 37.168 12.5942 37.6488 11.8366C38.2264 10.9262 39.1058 10.1358 40.4368 9.98814C43.1635 9.68563 46.1567 10.8777 47.7185 11.9839C48.3509 12.4318 48.5836 13.2083 48.5468 13.9824L48.4125 16.8085C48.362 17.869 48.1857 19.0936 47.3584 18.4283V18.4283Z" fill="#000067"/>
<path d="M47.1049 21.09C47.9459 21.844 49.2991 21.706 50.1274 20.782C50.9557 19.858 50.9454 18.4978 50.1045 17.7438C49.2635 16.9898 47.9103 17.1278 47.082 18.0518C46.2535 18.9758 46.2638 20.3361 47.1049 21.09Z" fill="#FFBBA5"/>
<path d="M49.5929 18.4838C49.0646 18.6074 48.6037 18.9905 48.3857 19.4873" stroke="#DE7D65" stroke-width="0.279976" stroke-miterlimit="10" stroke-linecap="round" stroke-linejoin="round"/>
<path d="M41.998 20.5453C42.9045 20.4702 43.5785 19.6744 43.5034 18.7679C43.4282 17.8614 42.6325 17.1874 41.726 17.2626C40.8195 17.3377 40.1455 18.1335 40.2206 19.04C40.2958 19.9465 41.0915 20.6204 41.998 20.5453Z" stroke="#000067" stroke-width="0.275926" stroke-miterlimit="10"/>
<path d="M38.1105 20.5452C38.8697 20.5452 39.4851 19.8078 39.4851 18.8982C39.4851 17.9886 38.8697 17.2512 38.1105 17.2512C37.3514 17.2512 36.7359 17.9886 36.7359 18.8982C36.7359 19.8078 37.3514 20.5452 38.1105 20.5452Z" stroke="#000067" stroke-width="0.252083" stroke-miterlimit="10"/>
<path d="M40.3889 18.1598C40.3889 18.1598 40.0435 17.9212 39.7133 17.9544C39.4847 17.9774 39.3307 18.1427 39.3307 18.1427" stroke="#000067" stroke-width="0.275926" stroke-miterlimit="10"/>
<path d="M43.474 18.567L47.2447 19.1051" stroke="#000067" stroke-width="0.252083" stroke-miterlimit="10"/>
<path d="M49.0641 18.3806C49.3452 17.4851 49.499 16.5148 49.499 15.5011C49.499 10.9912 46.4536 7.33521 42.6969 7.33521" stroke="#E6EAFE" stroke-width="0.387465" stroke-miterlimit="10" stroke-linecap="round" stroke-linejoin="round"/>
<path d="M48.4869 19.9702C48.4869 19.9702 47.7584 24.2007 42.3149 24.0609" stroke="#000067" stroke-width="0.335631" stroke-miterlimit="10"/>
<path d="M40.3115 24.2557C40.3357 24.6451 41.1064 24.914 42.0325 24.8565C42.9588 24.7989 43.69 24.4367 43.6657 24.0472C43.6415 23.6579 42.8711 23.3887 41.9448 23.4464C41.0185 23.504 40.2874 23.8664 40.3115 24.2557Z" fill="#000067"/>
<path d="M46.5626 18.3425C46.5626 20.2329 47.5648 21.7656 48.8011 21.7656C50.0373 21.7656 51.0396 20.2331 51.0396 18.3425C51.0396 16.452 50.0373 14.9194 48.8011 14.9194C47.5648 14.9194 46.5626 16.452 46.5626 18.3425Z" fill="#7D6AFE"/>
<path d="M49.3046 20.7903C50.189 20.7903 50.9059 19.694 50.9059 18.3417C50.9059 16.9893 50.189 15.893 49.3046 15.893C48.4203 15.893 47.7034 16.9893 47.7034 18.3417C47.7034 19.694 48.4203 20.7903 49.3046 20.7903Z" fill="#E6EAFE"/>
<path d="M47.8876 18.3427C47.8876 19.6172 48.5632 20.6502 49.3966 20.6502C50.2299 20.6502 50.9056 19.6172 50.9056 18.3427C50.9056 17.0682 50.2299 16.0352 49.3966 16.0352C48.5631 16.0352 47.8876 17.0684 47.8876 18.3427Z" fill="#B8B2FF"/>
<path d="M47.2198 28.5709C46.0191 28.8546 46.3635 29.7767 47.3594 29.0483V29.0483C48.07 28.5285 47.8734 28.4164 47.2198 28.5709Z" fill="#3A2FBC"/>
<path d="M46.3653 29.7605C46.1718 29.6973 45.6698 28.5093 45.8261 28.3788C46.8979 27.4841 47.9156 26.4337 48.1964 25.4963C48.2754 25.2325 48.6056 25.0425 48.8143 25.2223C49.0602 25.4341 49.3271 25.7129 49.4775 26.0224C49.8951 26.8818 49.8338 27.8707 49.4126 29.183C49.0744 30.2363 47.4169 30.1042 46.3653 29.7605V29.7605V29.7605Z" fill="#5B3FDA"/>
<path d="M41.1383 29.1298C41.6246 29.4231 41.7844 30.1919 41.3103 29.8794C41.2762 29.8569 41.2423 29.8337 41.2086 29.8096C40.7699 29.496 40.6766 28.8512 41.1383 29.1298V29.1298Z" fill="#3A2FBC"/>
<path d="M39.4609 27.1521C39.7499 26.6246 40.7991 27.3979 41.0995 27.919V27.919C41.1797 28.0581 41.2627 28.1966 41.3471 28.3329C41.3788 28.3842 40.6549 29.4582 40.6009 29.4849V29.4849V29.4849C39.9083 29.828 38.855 29.4478 38.9773 28.6846C39.0622 28.1542 39.2101 27.61 39.4609 27.1521Z" fill="#5B3FDA"/>
<path d="M39.4517 41.8679V41.8679C39.7444 41.9794 39.9975 41.3416 39.8613 41.0596C39.8365 41.008 39.8278 40.9609 39.8382 40.9193C39.9571 40.4437 41.5349 41.2005 43.6564 42.0832C44.007 42.229 44.4888 41.7275 44.4497 41.3498V41.3498C44.4342 41.1995 44.437 41.0579 44.453 40.927C44.5275 40.3188 45.1024 40.4771 45.4511 40.9809V40.9809C45.6547 41.275 46.3804 42.0652 47.0282 42.843C47.7894 43.757 48.7155 44.6117 49.8127 45.071L52.248 46.0904C53.369 46.5597 53.8485 47.8877 53.2858 48.9648V48.9648C52.727 50.0345 51.3739 50.401 50.3469 49.767C49.5181 49.2554 48.8699 48.8582 48.3634 48.5501C47.2464 47.8707 45.7793 47.9579 44.5623 47.4802C44.3584 47.4002 44.1453 47.2923 43.9263 47.1493C43.5108 46.8781 43.2421 46.7096 43.061 46.6043C42.7876 46.4454 42.4714 46.4066 42.1591 46.3572C41.2315 46.2101 39.2624 45.8194 39.4211 45.1707C39.4239 45.1593 39.4237 45.1606 39.4265 45.1492V45.1492C39.4765 44.9498 39.7035 44.6609 39.502 44.6204V44.6204C39.5008 44.6201 39.5001 44.62 39.4989 44.6197C39.461 44.611 38.5819 44.4037 38.6494 43.9763V43.9763C38.7393 43.4062 39.4431 42.7364 38.9373 42.4584C38.7526 42.357 38.6226 42.2738 38.5734 42.2192C38.2569 41.8679 38.7137 41.5869 39.4517 41.8679Z" fill="#FFBBA5"/>
<path d="M56.2979 28.3855C54.7282 27.7892 52.0512 30.8516 53.8686 40.0187C54.422 42.8101 51.9023 45.4314 49.1683 44.6417V44.6417C48.2727 44.3425 45.984 47.8941 47.4208 48.9644C48.7202 49.9634 54.8247 54.8558 60.2052 56.1409C65.5857 57.4261 65.5708 52.5175 63.7847 44.4178C61.9988 36.318 60.7198 30.0654 56.2979 28.3855Z" fill="#A695FF"/>
<path d="M55.2864 45.8552C55.3638 46.2087 55.1135 46.3692 55.4652 46.4545V46.4545C56.3688 46.6735 57.8832 46.01 57.427 45.1999C57.383 45.1218 57.3386 45.0427 57.2937 44.9626C56.7573 44.0054 55.0173 44.6271 55.2521 45.6989L55.2864 45.8552Z" fill="#887AFE"/>
<path d="M60.924 56.283C62.5079 56.514 60.2317 54.6955 58.6701 54.3434V54.3434C55.0572 53.5289 50.2662 50.2121 48.0527 48.5694C47.5834 48.2212 46.9516 48.6175 47.4202 48.9667V48.9667C48.7196 49.9656 54.8241 54.858 60.2046 56.1431C60.4561 56.2031 60.6957 56.2497 60.924 56.283Z" fill="#887AFE"/>
<path d="M57.2686 57.1521H33.8584C33.3604 57.1521 32.9566 57.5558 32.9566 58.0538C32.9566 58.5518 33.3604 58.9555 33.8584 58.9555H57.2686C57.7666 58.9555 58.1703 58.5518 58.1703 58.0538C58.1703 57.5558 57.7666 57.1521 57.2686 57.1521Z" fill="#00004C"/>
<path d="M28.6524 40.3391C28.5708 40.469 28.5663 40.6336 28.627 40.7745C28.7068 40.9598 28.8194 41.2586 28.9221 41.6657C29.1587 42.6033 29.6487 42.6889 29.5598 41.726C29.5247 41.3455 29.4684 40.9282 29.3853 40.4717C29.3192 40.1086 28.8488 40.0267 28.6524 40.3391V40.3391Z" fill="#887AFE"/>
<path d="M6.91476 71.9508H67.6828" stroke="#00004C" stroke-width="0.437715" stroke-miterlimit="10" stroke-linecap="round" stroke-linejoin="round"/>
<path d="M69.2195 71.9982H72.2114" stroke="#00004C" stroke-width="0.437715" stroke-miterlimit="10" stroke-linecap="round" stroke-linejoin="round"/>
<path d="M22.6404 26.016H13.2481C11.7097 26.016 10.7504 24.769 11.1056 23.2304L13.5397 12.6869C13.8949 11.1486 15.4299 9.90137 16.9684 9.90137H26.3609C27.8993 9.90137 28.8585 11.1484 28.5033 12.6869L26.0692 23.2304C25.7139 24.7688 24.1789 26.016 22.6404 26.016Z" fill="#FC6002"/>
<path d="M15.2881 16.8855L15.3218 16.2336C15.7245 16.1228 16.113 16.0674 16.4871 16.0674C16.6368 16.0674 16.76 16.0717 16.8568 16.0805C16.9565 16.0892 17.0562 16.1111 17.1559 16.1461C17.2556 16.1811 17.3298 16.2292 17.3785 16.2905C17.4899 16.4305 17.5122 16.6448 17.4456 16.9336C17.3789 17.2223 17.246 17.4352 17.0467 17.5723C16.8475 17.7094 16.4579 17.8669 15.8781 18.0448L15.8498 18.1673H17.1159L16.9544 18.8673H14.6511L14.7773 18.3204C14.815 18.1571 14.8824 18.001 14.9796 17.8523C15.0381 17.7677 15.1559 17.6656 15.3332 17.5461C15.4295 17.479 15.552 17.4148 15.7009 17.3536C15.8527 17.2923 15.9945 17.2354 16.1264 17.1829C16.2619 17.1275 16.3711 17.0823 16.454 17.0473L16.5085 16.8111C16.3772 16.7965 16.2547 16.7892 16.1409 16.7892C15.8655 16.7892 15.5813 16.8213 15.2881 16.8855ZM18.6408 18.8673L18.7418 18.4298H17.3589L17.4851 17.8829L18.5805 16.133H20.1699L19.8134 17.6773H20.1053L19.9316 18.4298H19.6397L19.5388 18.8673H18.6408ZM19.0755 16.7892L18.471 17.6773H18.9155L19.1204 16.7892H19.0755ZM22.8081 15.958L20.3749 18.9329C20.3532 18.962 20.3351 18.9825 20.3204 18.9941C20.2801 19.0262 20.2255 19.0423 20.1566 19.0423H19.8379L22.271 16.0674C22.2927 16.0382 22.3109 16.0178 22.3256 16.0061C22.3659 15.974 22.4205 15.958 22.4893 15.958H22.8081ZM25.1286 16.6798L23.7572 18.8673H22.7425L24.0015 16.8942L22.9209 16.9073L23.0323 16.133H25.2548L25.1286 16.6798Z" fill="#E8EDFE"/>
<path d="M16.5172 15.2498C17.6652 14.0023 19.2916 13.186 20.9221 13.186C22.5526 13.186 23.8042 14.0024 24.3762 15.2498" stroke="#E8EDFE" stroke-width="0.875414" stroke-miterlimit="10" stroke-linecap="round" stroke-linejoin="round"/>
<path d="M15.2672 20.6649C15.8388 21.9146 17.0882 22.7309 18.7187 22.7309C20.3492 22.7309 21.9777 21.9146 23.1262 20.6649" stroke="#E8EDFE" stroke-width="0.875414" stroke-miterlimit="10" stroke-linecap="round" stroke-linejoin="round"/>
<path d="M76.3638 38.9869H69.748C68.6645 38.9869 67.9889 38.1085 68.2389 37.0249L69.9535 29.5985C70.2037 28.5149 71.2849 27.6365 72.3685 27.6365H78.9843C80.0678 27.6365 80.7434 28.5149 80.4934 29.5985L78.7788 37.0249C78.5286 38.1085 77.4474 38.9869 76.3638 38.9869Z" fill="#00B4FF"/>
<path d="M77.7483 31.8598C77.4671 30.7304 76.493 29.9506 75.1565 29.9506C73.82 29.9506 72.4857 30.7304 71.6831 31.8598" stroke="#E8EDFE" stroke-width="0.61662" stroke-miterlimit="10" stroke-linecap="round" stroke-linejoin="round"/>
<path d="M71.012 34.7663C71.2932 35.8957 72.2674 36.6755 73.6039 36.6755C74.9402 36.6755 76.2746 35.8957 77.0773 34.7663" stroke="#E8EDFE" stroke-width="0.61662" stroke-miterlimit="10" stroke-linecap="round" stroke-linejoin="round"/>
<path d="M72.7408 33.4508V33.4508C73.1601 33.9735 73.9238 34.057 74.4462 33.6375L76.2106 32.2206" stroke="#E8EDFE" stroke-width="0.61662" stroke-miterlimit="10" stroke-linecap="round" stroke-linejoin="round"/>
</svg>
