<svg width="15" height="15" viewBox="0 0 15 15" fill="none" xmlns="http://www.w3.org/2000/svg">
<path d="M13.8536 3.99115L7.49359 10.3511C6.86026 10.9844 4.98024 11.2778 4.56024 10.8578C4.14024 10.4378 4.42691 8.55778 5.06024 7.92445L11.4269 1.55779C11.5839 1.3865 11.774 1.24881 11.9857 1.15301C12.1974 1.05721 12.4263 1.00527 12.6587 1.00038C12.8909 0.995494 13.1219 1.03772 13.3374 1.12453C13.5529 1.21133 13.7487 1.34093 13.9127 1.50547C14.0768 1.67 14.2059 1.86607 14.2921 2.08184C14.3783 2.29762 14.4199 2.52862 14.4144 2.76092C14.4089 2.99322 14.3563 3.22201 14.2599 3.43345C14.1635 3.64488 14.0253 3.83461 13.8536 3.99115Z" stroke="#FC6002" stroke-linecap="round" stroke-linejoin="round"/>
<path d="M7 2.39062H3.66667C2.95942 2.39062 2.28119 2.67157 1.78109 3.17167C1.28099 3.67177 1 4.35005 1 5.05729V11.724C1 12.4312 1.28099 13.1095 1.78109 13.6096C2.28119 14.1097 2.95942 14.3906 3.66667 14.3906H11C12.4733 14.3906 13 13.1906 13 11.724V8.39063" stroke="#FC6002" stroke-linecap="round" stroke-linejoin="round"/>
</svg>
