<svg width="16" height="17" viewBox="0 0 16 17" fill="none" xmlns="http://www.w3.org/2000/svg">
<path d="M10.9278 0H4.83594C4.38838 0 3.95916 0.17779 3.64269 0.494257C3.32623 0.810725 3.14844 1.23995 3.14844 1.6875V7.07625C3.14844 7.5238 3.32623 7.95303 3.64269 8.26949C3.95916 8.58596 4.38838 8.76375 4.83594 8.76375H5.46312L7.66813 11.3597C7.7053 11.4031 7.75481 11.4342 7.81008 11.4487C7.86536 11.4633 7.92375 11.4607 7.9775 11.4412C8.03204 11.4219 8.07921 11.386 8.11247 11.3387C8.14572 11.2913 8.16343 11.2348 8.16313 11.1769V8.76375H10.9278C11.3754 8.76375 11.8046 8.58596 12.1211 8.26949C12.4375 7.95303 12.6153 7.5238 12.6153 7.07625V1.6875C12.6153 1.23995 12.4375 0.810725 12.1211 0.494257C11.8046 0.17779 11.3754 0 10.9278 0ZM12.0528 7.07625C12.0528 7.37462 11.9343 7.66077 11.7233 7.87175C11.5123 8.08272 11.2262 8.20125 10.9278 8.20125H7.88188C7.80728 8.20125 7.73575 8.23088 7.683 8.28363C7.63026 8.33637 7.60063 8.40791 7.60063 8.4825V10.4119L5.80625 8.29969C5.77971 8.26897 5.74691 8.2443 5.71004 8.22732C5.67317 8.21034 5.63309 8.20145 5.5925 8.20125H4.83594C4.53757 8.20125 4.25142 8.08272 4.04044 7.87175C3.82946 7.66077 3.71094 7.37462 3.71094 7.07625V1.6875C3.71094 1.38913 3.82946 1.10298 4.04044 0.892005C4.25142 0.681026 4.53757 0.5625 4.83594 0.5625H10.9278C11.2262 0.5625 11.5123 0.681026 11.7233 0.892005C11.9343 1.10298 12.0528 1.38913 12.0528 1.6875V7.07625Z" fill="#FC6002"/>
<path d="M11.4421 2.03906C11.4421 2.11365 11.4124 2.18519 11.3597 2.23794C11.3069 2.29068 11.2354 2.32031 11.1608 2.32031H4.60205C4.52746 2.32031 4.45592 2.29068 4.40318 2.23794C4.35043 2.18519 4.3208 2.11365 4.3208 2.03906C4.3208 1.96447 4.35043 1.89293 4.40318 1.84019C4.45592 1.78744 4.52746 1.75781 4.60205 1.75781H11.1608C11.2354 1.75781 11.3069 1.78744 11.3597 1.84019C11.4124 1.89293 11.4421 1.96447 11.4421 2.03906Z" fill="#FC6002"/>
<path d="M11.442 3.21095C11.442 3.28554 11.4124 3.35708 11.3597 3.40983C11.3069 3.46257 11.2354 3.4922 11.1608 3.4922H4.60205C4.52746 3.4922 4.45592 3.46257 4.40318 3.40983C4.35043 3.35708 4.3208 3.28554 4.3208 3.21095C4.3208 3.13636 4.35043 3.06482 4.40318 3.01208C4.45592 2.95933 4.52746 2.9297 4.60205 2.9297H11.1608C11.1978 2.92933 11.2346 2.93634 11.2689 2.95034C11.3032 2.96435 11.3343 2.98505 11.3605 3.01124C11.3867 3.03743 11.4074 3.06859 11.4214 3.10288C11.4354 3.13717 11.4424 3.17391 11.442 3.21095Z" fill="#FC6002"/>
<path d="M11.4421 4.38281C11.4421 4.4574 11.4124 4.52894 11.3597 4.58169C11.3069 4.63443 11.2354 4.66406 11.1608 4.66406H4.60205C4.52746 4.66406 4.45592 4.63443 4.40318 4.58169C4.35043 4.52894 4.3208 4.4574 4.3208 4.38281C4.3208 4.30822 4.35043 4.23668 4.40318 4.18394C4.45592 4.13119 4.52746 4.10156 4.60205 4.10156H11.1608C11.2354 4.10156 11.3069 4.13119 11.3597 4.18394C11.4124 4.23668 11.4421 4.30822 11.4421 4.38281Z" fill="#FC6002"/>
<path d="M11.4425 5.5547C11.4425 5.62929 11.4129 5.70083 11.3601 5.75358C11.3074 5.80632 11.2358 5.83595 11.1613 5.83595H6.94531C6.87072 5.83595 6.79918 5.80632 6.74644 5.75358C6.69369 5.70083 6.66406 5.62929 6.66406 5.5547C6.66406 5.48011 6.69369 5.40857 6.74644 5.35583C6.79918 5.30308 6.87072 5.27345 6.94531 5.27345H11.1613C11.1983 5.27308 11.235 5.28009 11.2693 5.29409C11.3036 5.3081 11.3348 5.3288 11.361 5.35499C11.3872 5.38118 11.4079 5.41234 11.4219 5.44663C11.4359 5.48092 11.4429 5.51766 11.4425 5.5547Z" fill="#FC6002"/>
<path d="M11.4425 6.72656C11.4425 6.80115 11.4129 6.87269 11.3601 6.92544C11.3074 6.97818 11.2358 7.00781 11.1613 7.00781H6.94531C6.87072 7.00781 6.79918 6.97818 6.74644 6.92544C6.69369 6.87269 6.66406 6.80115 6.66406 6.72656C6.66406 6.65197 6.69369 6.58043 6.74644 6.52769C6.79918 6.47494 6.87072 6.44531 6.94531 6.44531H11.1613C11.2358 6.44531 11.3074 6.47494 11.3601 6.52769C11.4129 6.58043 11.4425 6.65197 11.4425 6.72656Z" fill="#FC6002"/>
<path d="M4.12694 12.1061C4.10822 12.0499 4.0724 12.001 4.02449 11.9662C3.97657 11.9314 3.91897 11.9124 3.85976 11.912H2.69819L2.33819 10.8067C2.3197 10.7504 2.28391 10.7014 2.23593 10.6667C2.18796 10.632 2.13024 10.6133 2.07101 10.6133C2.01178 10.6133 1.95406 10.632 1.90608 10.6667C1.8581 10.7014 1.82231 10.7504 1.80382 10.8067L1.44382 11.912H0.282257C0.222736 11.9118 0.164683 11.9305 0.116451 11.9654C0.0682184 12.0002 0.0322942 12.0495 0.0138478 12.1061C-0.00459873 12.1627 -0.00461632 12.2237 0.0137975 12.2803C0.0322113 12.3369 0.0681069 12.3862 0.116319 12.4211L1.05569 13.1045L0.698507 14.207C0.684745 14.2492 0.68117 14.2941 0.688072 14.3379C0.694974 14.3818 0.712158 14.4234 0.738219 14.4593C0.76428 14.4953 0.798477 14.5245 0.838013 14.5447C0.87755 14.5649 0.921303 14.5754 0.965694 14.5755C1.02524 14.5755 1.08329 14.5568 1.13163 14.522L2.07101 13.8386L3.01038 14.522C3.05828 14.5567 3.11586 14.5753 3.17497 14.5754C3.23407 14.5754 3.29169 14.5568 3.33963 14.5223C3.38758 14.4877 3.42342 14.4389 3.44207 14.3828C3.46071 14.3268 3.46122 14.2662 3.44351 14.2098L3.08351 13.1045L4.02569 12.4211C4.07329 12.3857 4.10864 12.3363 4.12679 12.2798C4.14495 12.2233 4.145 12.1626 4.12694 12.1061ZM2.48726 13.082L2.64194 13.5601L2.23694 13.2648C2.18895 13.2292 2.13077 13.21 2.07101 13.21C2.01124 13.21 1.95306 13.2292 1.90507 13.2648L1.50007 13.5601L1.65476 13.082C1.67303 13.026 1.67308 12.9656 1.65489 12.9095C1.6367 12.8534 1.60121 12.8045 1.55351 12.7698L1.14851 12.4745H1.64913C1.70835 12.4741 1.76595 12.4552 1.81386 12.4204C1.86177 12.3856 1.8976 12.3366 1.91632 12.2805L2.07101 11.8023L2.22569 12.2805C2.24408 12.3368 2.27982 12.386 2.32781 12.4208C2.3758 12.4557 2.43357 12.4745 2.49288 12.4745H2.99351L2.58851 12.7698C2.54029 12.8041 2.50439 12.8529 2.48615 12.9092C2.46791 12.9654 2.4683 13.026 2.48726 13.082Z" fill="#FC6002"/>
<path d="M9.93749 13.5592C9.91911 13.5028 9.88336 13.4537 9.83538 13.4188C9.78739 13.384 9.72961 13.3652 9.6703 13.3651H8.50874L8.14874 12.2598C8.13025 12.2036 8.09446 12.1546 8.04648 12.1198C7.9985 12.0851 7.94078 12.0664 7.88155 12.0664C7.82232 12.0664 7.7646 12.0851 7.71663 12.1198C7.66865 12.1546 7.63286 12.2036 7.61437 12.2598L7.25437 13.3651H6.0928C6.03328 13.3649 5.97523 13.3836 5.927 13.4185C5.87877 13.4534 5.84284 13.5026 5.82439 13.5592C5.80595 13.6158 5.80593 13.6768 5.82434 13.7334C5.84276 13.79 5.87865 13.8393 5.92687 13.8742L6.86905 14.5576L6.50905 15.663C6.491 15.7195 6.49105 15.7802 6.50921 15.8367C6.52736 15.8932 6.5627 15.9426 6.6103 15.978C6.65883 16.0123 6.71681 16.0307 6.77624 16.0307C6.83568 16.0307 6.89365 16.0123 6.94218 15.978L7.88155 15.2945L8.82093 15.978C8.86928 16.0127 8.92732 16.0314 8.98687 16.0314C9.04641 16.0314 9.10445 16.0127 9.1528 15.978C9.2004 15.9426 9.23575 15.8932 9.2539 15.8367C9.27206 15.7802 9.27211 15.7195 9.25405 15.663L8.89405 14.5576L9.83624 13.8742C9.88424 13.8391 9.9199 13.7898 9.93809 13.7332C9.95628 13.6766 9.95607 13.6157 9.93749 13.5592ZM8.2978 14.538L8.45249 15.0133L8.04749 14.718C7.99914 14.6832 7.9411 14.6645 7.88155 14.6645C7.82201 14.6645 7.76397 14.6832 7.71562 14.718L7.31062 15.0133L7.4653 14.538C7.48424 14.4815 7.48463 14.4205 7.46641 14.3638C7.4482 14.3072 7.41233 14.2578 7.36405 14.223L6.95905 13.9276H7.45968C7.51899 13.9276 7.57677 13.9088 7.62475 13.874C7.67274 13.8391 7.70848 13.79 7.72687 13.7336L7.88155 13.2583L8.03624 13.7336C8.05463 13.79 8.09037 13.8391 8.13835 13.874C8.18634 13.9088 8.24412 13.9276 8.30343 13.9276H8.80405L8.39905 14.223C8.35078 14.2578 8.31491 14.3072 8.29669 14.3638C8.27848 14.4205 8.27887 14.4815 8.2978 14.538Z" fill="#FC6002"/>
<path d="M15.748 12.1061C15.73 12.0495 15.6943 12.0001 15.6463 11.9652C15.5982 11.9303 15.5403 11.9117 15.4809 11.912H14.3193L13.9593 10.8067C13.9408 10.7504 13.905 10.7014 13.857 10.6667C13.8091 10.632 13.7513 10.6133 13.6921 10.6133C13.6329 10.6133 13.5752 10.632 13.5272 10.6667C13.4792 10.7014 13.4434 10.7504 13.4249 10.8067L13.0649 11.912H11.9034C11.8438 11.9118 11.7858 11.9305 11.7375 11.9654C11.6893 12.0002 11.6534 12.0495 11.6349 12.1061C11.6165 12.1627 11.6165 12.2237 11.6349 12.2803C11.6533 12.3369 11.6892 12.3862 11.7374 12.4211L12.6796 13.1045L12.3196 14.2098C12.3019 14.2662 12.3024 14.3268 12.321 14.3828C12.3397 14.4389 12.3755 14.4877 12.4235 14.5223C12.4714 14.5568 12.529 14.5754 12.5881 14.5754C12.6472 14.5753 12.7048 14.5567 12.7527 14.522L13.6921 13.8386L14.6315 14.522C14.6798 14.5568 14.7379 14.5755 14.7974 14.5755C14.8571 14.5763 14.9154 14.5576 14.9634 14.522C15.0118 14.4873 15.0478 14.438 15.066 14.3813C15.0843 14.3245 15.0838 14.2634 15.0646 14.207L14.7074 13.1045L15.6468 12.4211C15.6948 12.386 15.7304 12.3366 15.7486 12.28C15.7668 12.2235 15.7666 12.1626 15.748 12.1061ZM14.1084 13.082L14.263 13.5601L13.858 13.2648C13.8099 13.2297 13.7517 13.211 13.6921 13.2114C13.6326 13.2114 13.5745 13.2301 13.5262 13.2648L13.1212 13.5601L13.2759 13.082C13.2948 13.026 13.2952 12.9654 13.277 12.9092C13.2587 12.8529 13.2228 12.8041 13.1746 12.7698L12.7696 12.4745H13.2702C13.3295 12.4745 13.3873 12.4557 13.4353 12.4208C13.4833 12.386 13.519 12.3368 13.5374 12.2805L13.6921 11.8023L13.8468 12.2805C13.8655 12.3366 13.9013 12.3856 13.9492 12.4204C13.9972 12.4552 14.0548 12.4741 14.114 12.4745H14.6146L14.2096 12.7698C14.1619 12.8045 14.1264 12.8534 14.1082 12.9095C14.09 12.9656 14.0901 13.026 14.1084 13.082Z" fill="#FC6002"/>
</svg>
