<svg width="15" height="15" viewBox="0 0 15 15" fill="none" xmlns="http://www.w3.org/2000/svg">
<path d="M4.99958 3.12472C4.99958 1.74594 3.87843 0.624663 2.49979 0.624663C1.12116 0.624663 0 1.74594 0 3.12472C0 4.28725 0.798058 5.26727 1.87484 5.5454V10.0786C0.798058 10.3568 0 11.3368 0 12.4993C0 13.8781 1.12116 14.9994 2.49979 14.9994C3.87843 14.9994 4.99958 13.8781 4.99958 12.4993C4.99958 11.3368 4.20152 10.3568 3.12474 10.0786V5.5454C4.20152 5.26727 4.99958 4.28725 4.99958 3.12472ZM1.2499 3.12472C1.2499 2.43533 1.81047 1.87469 2.49979 1.87469C3.18911 1.87469 3.74969 2.43533 3.74969 3.12472C3.74969 3.81411 3.18911 4.37475 2.49979 4.37475C1.81047 4.37475 1.2499 3.81411 1.2499 3.12472ZM3.74969 12.4999C3.74969 13.1893 3.18911 13.75 2.49979 13.75C1.81047 13.75 1.2499 13.1893 1.2499 12.4999C1.2499 11.8106 1.81047 11.2499 2.49979 11.2499C3.18911 11.2499 3.74969 11.8106 3.74969 12.4999ZM13.1239 10.0793V5.62478C13.1239 3.90162 11.7221 2.49971 9.99917 2.49971H7.82997L9.20236 1.0553C9.44046 0.805293 9.42984 0.409033 9.17986 0.171528C8.93051 -0.0653528 8.53429 -0.0559776 8.29681 0.194028L6.79943 1.77032C6.06824 2.50096 6.06824 3.69099 6.78068 4.40288L8.28993 6.04729C8.41242 6.18167 8.58116 6.2498 8.7499 6.2498C8.90113 6.2498 9.05237 6.19542 9.17236 6.08542C9.42671 5.85166 9.44421 5.45665 9.21048 5.20227L7.87747 3.74974H10.0004C11.0341 3.74974 11.8753 4.59101 11.8753 5.62478V10.0793C10.7979 10.3574 10.0004 11.3374 10.0004 12.4999C10.0004 13.8787 11.1216 15 12.5002 15C13.8788 15 15 13.8787 15 12.4999C15 11.3374 14.2026 10.3574 13.1252 10.0793H13.1239ZM12.499 13.75C11.8096 13.75 11.2491 13.1893 11.2491 12.4999C11.2491 11.8106 11.8096 11.2499 12.499 11.2499C13.1883 11.2499 13.7489 11.8106 13.7489 12.4999C13.7489 13.1893 13.1883 13.75 12.499 13.75Z" fill="#FC6002"/>
</svg>
