<svg width="21" height="18" viewBox="0 0 21 18" fill="none" xmlns="http://www.w3.org/2000/svg">
<path d="M1.20519 5.05062C0.554837 4.5062 0.303413 3.63271 0.565744 2.82553C0.827901 2.02106 1.54034 1.46248 2.38389 1.4025L17.3012 0.104176C18.1015 0.0353553 18.8633 0.313657 19.4171 0.851432L6.45749 8.33368L1.28985 5.11175C1.26083 5.09299 1.23236 5.07218 1.20519 5.05062ZM7.21711 9.62838L7.47055 15.697C7.47191 15.7309 7.47523 15.7636 7.48124 15.7965C7.62857 16.6323 8.26052 17.2843 9.09034 17.4601C9.60391 17.5681 10.1217 17.4779 10.5517 17.2296C10.8174 17.0762 11.0492 16.8627 11.2272 16.598L19.7611 4.36189C20.2221 3.70076 20.3602 2.90036 20.1693 2.15128L7.21748 9.62903L7.21711 9.62838Z" fill="#FC6002"/>
</svg>
