<svg width="16" height="17" viewBox="0 0 16 17" fill="none" xmlns="http://www.w3.org/2000/svg">
<path d="M16 7.51365C15.9036 5.95373 15.3528 4.45613 14.4155 3.20547C13.4783 1.9548 12.1955 1.00575 10.7254 0.475308C9.25527 -0.0551318 7.66206 -0.14377 6.14217 0.220321C4.62228 0.584412 3.24216 1.38532 2.17195 2.52429C1.10174 3.66327 0.388228 5.09054 0.119375 6.63013C-0.149478 8.16972 0.0380816 9.75433 0.658932 11.1886C1.27978 12.6229 2.30678 13.8441 3.61332 14.7018C4.91986 15.5595 6.44882 16.016 8.01171 16.0152H12.6668C13.5506 16.0144 14.3979 15.6629 15.0228 15.038C15.6477 14.4131 15.9991 13.5658 16 12.6821V7.51365ZM14.6667 12.6821C14.6667 13.2125 14.456 13.7212 14.081 14.0962C13.7059 14.4713 13.1972 14.682 12.6668 14.682H8.01171C7.07104 14.6816 6.14103 14.4829 5.2823 14.0989C4.42358 13.7149 3.65543 13.1542 3.02794 12.4534C2.39742 11.753 1.92395 10.9258 1.63927 10.0274C1.35459 9.12897 1.26529 8.18008 1.37735 7.24433C1.5543 5.76836 2.21744 4.39325 3.26223 3.33579C4.30701 2.27833 5.67402 1.59867 7.14775 1.40393C7.43523 1.3679 7.72465 1.34965 8.01438 1.34927C9.56795 1.34503 11.0734 1.88785 12.2668 2.88253C12.9638 3.4618 13.5359 4.17657 13.9484 4.98352C14.361 5.79047 14.6053 6.67278 14.6667 7.57698V12.6821Z" fill="black"/>
<path d="M5.33427 6.01479H8.00081C8.17761 6.01479 8.34717 5.94455 8.47219 5.81954C8.59721 5.69452 8.66744 5.52496 8.66744 5.34815C8.66744 5.17135 8.59721 5.00179 8.47219 4.87677C8.34717 4.75175 8.17761 4.68152 8.00081 4.68152H5.33427C5.15747 4.68152 4.9879 4.75175 4.86289 4.87677C4.73787 5.00179 4.66763 5.17135 4.66763 5.34815C4.66763 5.52496 4.73787 5.69452 4.86289 5.81954C4.9879 5.94455 5.15747 6.01479 5.33427 6.01479Z" fill="black"/>
<path d="M10.6674 7.35077H5.33427C5.15747 7.35077 4.9879 7.421 4.86289 7.54602C4.73787 7.67104 4.66763 7.8406 4.66763 8.0174C4.66763 8.19421 4.73787 8.36377 4.86289 8.48879C4.9879 8.6138 5.15747 8.68404 5.33427 8.68404H10.6674C10.8442 8.68404 11.0137 8.6138 11.1387 8.48879C11.2638 8.36377 11.334 8.19421 11.334 8.0174C11.334 7.8406 11.2638 7.67104 11.1387 7.54602C11.0137 7.421 10.8442 7.35077 10.6674 7.35077Z" fill="black"/>
<path d="M10.6674 10.013H5.33427C5.15747 10.013 4.9879 10.0832 4.86289 10.2083C4.73787 10.3333 4.66763 10.5028 4.66763 10.6796C4.66763 10.8564 4.73787 11.026 4.86289 11.151C4.9879 11.276 5.15747 11.3463 5.33427 11.3463H10.6674C10.8442 11.3463 11.0137 11.276 11.1387 11.151C11.2638 11.026 11.334 10.8564 11.334 10.6796C11.334 10.5028 11.2638 10.3333 11.1387 10.2083C11.0137 10.0832 10.8442 10.013 10.6674 10.013Z" fill="black"/>
</svg>
