<svg width="257" height="225" viewBox="0 0 257 225" fill="none" xmlns="http://www.w3.org/2000/svg">
<path d="M185.732 155.614C187.258 154.543 188.83 153.543 190.499 152.686C199.085 148.273 207.123 143.745 213.829 136.795C221.772 128.563 227.339 117.445 227.34 105.781C227.341 94.1165 221.065 82.1578 210.73 77.3195C197.869 71.2982 183.156 77.0235 169.161 78.4668C151.12 80.3273 133.184 74.8361 115.381 71.0438C97.5786 67.2515 78.2305 65.3225 62.0621 73.6707C49.0438 80.3922 39.457 93.696 36.9515 108.517C34.4459 123.338 39.0809 139.325 49.0918 150.392C63.5357 166.36 86.255 170.66 107.321 171.678C122.845 172.429 138.417 171.889 153.835 170.065C160.789 169.243 167.299 167.828 173.44 164.369C177.858 161.88 181.628 158.493 185.732 155.614Z" stroke="#F4EBD7" stroke-width="2.5965" stroke-miterlimit="10"/>
<path d="M90.1348 170.255C79.2902 168.972 68.3776 166.352 58.7954 160.609C49.2132 154.867 41.0339 145.7 37.8424 134.485C34.651 123.269 37.1726 110.054 45.3867 102.575C55.6093 93.2677 70.7545 94.7481 84.0652 92.3078C101.224 89.1622 116.275 78.9762 131.668 70.4602C147.061 61.9442 164.389 54.7971 181.595 58.4014C195.448 61.3034 207.935 71.4729 214.301 85.0378C220.667 98.6027 220.763 115.243 214.551 128.622C205.588 147.926 185.797 158.275 166.633 165.017C152.511 169.985 137.993 173.725 123.264 176.189C117.85 177.095 112.325 177.828 106.871 176.971C101.417 176.113 95.9713 173.478 92.5967 168.76L90.1348 170.255Z" fill="#F4EBD7"/>
<path d="M6.24512 191.883H250.756" stroke="#102048" stroke-width="5" stroke-miterlimit="10"/>
<path opacity="0.15" d="M36.0057 205.424C42.4226 205.424 47.6246 204.434 47.6246 203.212C47.6246 201.99 42.4226 201 36.0057 201C29.5887 201 24.3867 201.99 24.3867 203.212C24.3867 204.434 29.5887 205.424 36.0057 205.424Z" fill="#1F3C88"/>
<path d="M30.6757 198.908C28.1617 198.908 25.3633 195.228 25.3633 192.734C25.3633 190.199 27.3845 188.137 29.8687 188.137C32.3532 188.137 34.3744 190.199 34.3744 192.734C34.3743 195.121 33.3702 198.908 30.6757 198.908ZM29.8687 189.666C28.2274 189.666 26.8921 191.042 26.8921 192.734C26.8921 194.601 29.1551 197.38 30.6757 197.38C32.0728 197.38 32.8456 194.633 32.8456 192.734C32.8455 191.042 31.5101 189.666 29.8687 189.666Z" fill="#1F3C88"/>
<path d="M39.3676 202.883H32.7527C31.6536 202.883 30.7381 202.04 30.6473 200.945L29.2793 184.461H43.115L41.47 200.98C41.3624 202.06 40.4533 202.883 39.3676 202.883Z" fill="#1F3C88"/>
<path d="M30.8844 164.689C30.4208 166.241 30.2136 167.838 30.4767 169.374C30.6075 170.139 30.8254 170.886 31.128 171.603C31.4395 172.316 31.8256 173 32.2657 173.653C32.7208 174.296 33.2036 174.927 33.75 175.51C33.8792 175.651 34.0204 175.825 34.1621 175.995C34.3006 176.166 34.4477 176.328 34.5774 176.509L34.9443 177.073C35.0712 177.256 35.147 177.482 35.2478 177.685C35.3542 177.886 35.4056 178.12 35.4719 178.343C35.5491 178.562 35.5617 178.805 35.5897 179.039C35.6075 179.156 35.6045 179.275 35.5937 179.394L35.5696 179.751C35.5527 179.868 35.5203 179.983 35.4953 180.099C35.4691 180.214 35.444 180.33 35.3951 180.437L35.2614 180.762C35.2069 180.864 35.1471 180.963 35.0898 181.063C35.0359 181.165 34.9662 181.255 34.8978 181.346C34.8294 181.437 34.7651 181.53 34.6846 181.609C34.3831 181.948 34.047 182.221 33.6458 182.447L33.3908 182.043C33.9569 181.544 34.4207 180.874 34.5778 180.184C34.6085 180.1 34.6158 180.011 34.6255 179.924C34.6342 179.836 34.6517 179.75 34.655 179.663L34.6434 179.401C34.6439 179.314 34.6383 179.228 34.6132 179.141C34.573 178.969 34.5619 178.796 34.4837 178.629C34.4174 178.462 34.3745 178.291 34.2713 178.133C34.1753 177.974 34.1089 177.807 33.9944 177.656L33.6662 177.197C33.5491 177.048 33.4098 176.911 33.2837 176.767L32.8777 176.324C32.5873 176.013 32.2975 175.701 32.0318 175.364C31.752 175.041 31.5055 174.687 31.2582 174.336C30.7914 173.613 30.3548 172.86 30.0446 172.044C29.7375 171.228 29.5193 170.374 29.4407 169.503C29.2619 167.758 29.6767 166.006 30.4419 164.508L30.8844 164.689Z" fill="#D3DFFF"/>
<path d="M36.893 164.219C37.7486 164.92 38.4488 165.897 38.7716 167.023C38.9407 167.582 39.013 168.167 39.0213 168.748C39.0293 169.33 38.9354 169.902 38.8203 170.46C38.6899 171.015 38.503 171.552 38.2864 172.068L38.1415 172.422C38.0987 172.533 38.0461 172.644 38.0098 172.755L37.9171 173.089C37.8829 173.201 37.8791 173.307 37.8558 173.418C37.8278 173.53 37.8388 173.632 37.8339 173.74C37.8217 173.85 37.851 173.946 37.8606 174.05C37.8642 174.157 37.9131 174.245 37.9338 174.348C37.9794 174.438 38.0126 174.539 38.0746 174.624C38.287 174.984 38.6948 175.291 39.1208 175.484L39.0271 175.953C38.4201 175.89 37.8546 175.631 37.4018 175.152C37.2885 175.036 37.2029 174.893 37.1109 174.756C37.0442 174.608 36.951 174.461 36.9121 174.303C36.8689 174.145 36.8162 173.984 36.8089 173.825C36.7939 173.666 36.7683 173.501 36.784 173.348C36.796 173.194 36.7875 173.03 36.8218 172.883L36.9131 172.437C36.9499 172.292 37.0012 172.156 37.0455 172.015C37.0926 171.874 37.1377 171.729 37.1812 171.619C37.3723 171.147 37.5098 170.663 37.6354 170.182C37.7507 169.698 37.8223 169.21 37.8524 168.723C37.8751 168.236 37.8409 167.752 37.7582 167.273C37.5889 166.311 37.1381 165.406 36.5449 164.546L36.893 164.219Z" fill="#D3DFFF"/>
<path opacity="0.15" d="M212.506 206.509C225.34 206.509 235.744 204.968 235.744 203.069C235.744 201.169 225.34 199.629 212.506 199.629C199.673 199.629 189.269 201.169 189.269 203.069C189.269 204.968 199.673 206.509 212.506 206.509Z" fill="#1F3C88"/>
<path d="M213.985 147.039H210.724V178.94H213.985V147.039Z" fill="#27481F"/>
<path d="M213.17 144.892C213.127 147.2 212.913 149.145 212.733 150.401C212.595 151.368 212.479 151.924 212.479 151.924C203.575 149.035 199.49 143.516 197.79 137.948C197.631 137.44 197.496 136.93 197.38 136.422C195.582 128.674 197.992 121.293 197.992 121.293C202.074 122.146 205.092 123.926 207.308 126.216C207.691 126.607 208.045 127.011 208.379 127.43C212.482 132.573 213.268 139.663 213.17 144.892Z" fill="#49883A"/>
<path d="M224.713 129.472C224.535 135.667 222.126 142.883 214.653 149.812C214.081 150.344 213.476 150.876 212.84 151.405C212.773 151.463 212.705 151.518 212.638 151.573C212.638 151.573 211.4 149.756 210.125 146.803C210.107 146.76 210.088 146.72 210.073 146.677C209.626 145.635 209.177 144.452 208.78 143.158C208.452 142.103 208.159 140.978 207.923 139.792C207.024 135.233 207.021 129.827 209.507 124.476C211.372 120.446 214.65 116.45 220.013 112.863C220.013 112.863 224.988 119.969 224.713 129.472Z" fill="#49883A"/>
<path opacity="0.5" d="M214.653 149.811C214.081 150.343 213.475 150.875 212.839 151.404C212.772 151.462 212.705 151.517 212.638 151.573C212.638 151.573 211.399 149.756 210.124 146.803C210.107 146.762 210.089 146.718 210.072 146.677L210.072 146.677C209.964 146.425 209.856 146.164 209.749 145.897C209.708 145.794 209.668 145.687 209.627 145.582C209.557 145.403 209.487 145.225 209.418 145.039C209.363 144.893 209.311 144.74 209.257 144.59C209.201 144.433 209.145 144.279 209.09 144.118C208.983 143.805 208.879 143.485 208.779 143.158C208.452 142.103 208.158 140.978 207.923 139.792C207.189 136.073 207.051 131.79 208.378 127.433C208.045 127.014 207.69 126.61 207.308 126.219C206.451 128.481 205.059 133.665 204.893 138.341C202.835 137.534 200.36 136.873 197.38 136.425C197.496 136.933 197.631 137.443 197.79 137.951C196.521 137.648 195.148 137.382 193.665 137.162C194.836 141.155 199.533 153.875 211.788 154.064C212.099 154.071 212.414 154.068 212.735 154.055C213.24 154.04 213.757 154 214.289 153.939C214.289 153.939 214.839 152.205 214.653 149.811Z" fill="#27481F"/>
<path d="M212.813 153.392C212.813 153.401 212.813 153.413 212.809 153.423C212.803 153.499 212.797 153.572 212.788 153.643C212.782 153.676 212.779 153.71 212.776 153.744C212.77 153.802 212.764 153.857 212.754 153.912C212.733 154.08 212.709 154.236 212.684 154.386C212.669 154.484 212.65 154.578 212.632 154.67C212.47 155.493 212.287 155.982 212.287 155.982C211.415 156.037 210.584 156.034 209.782 155.979C195.274 155.006 192.296 136.973 192.296 136.973C192.764 137.031 193.219 137.095 193.666 137.165C195.149 137.385 196.522 137.651 197.79 137.954C203.034 139.202 206.505 141.082 208.78 143.161C209.464 143.785 210.039 144.43 210.519 145.078C211.865 146.888 212.491 148.748 212.733 150.408C212.785 150.75 212.819 151.084 212.84 151.408C212.886 152.129 212.868 152.799 212.813 153.392Z" fill="#49883A"/>
<path opacity="0.38" d="M224.713 129.473C224.625 132.57 223.976 135.921 222.417 139.367C220.861 142.813 218.39 146.348 214.654 149.812C214.638 149.824 214.623 149.839 214.608 149.852C214.388 150.057 214.161 150.261 213.929 150.466C213.862 150.527 213.794 150.589 213.724 150.65C213.437 150.9 213.143 151.154 212.84 151.405C212.819 151.081 212.785 150.748 212.733 150.405C212.492 148.745 211.865 146.886 210.52 145.076C210.04 144.427 209.465 143.782 208.78 143.159C208.453 142.104 208.159 140.978 207.924 139.792C208.752 140.275 209.486 140.786 210.128 141.318C210.584 141.691 210.988 142.073 211.358 142.461C213.269 137.462 217.118 132.344 224.713 129.473Z" fill="#27481F"/>
<path opacity="0.2" d="M212.812 153.388C212.812 153.397 212.812 153.409 212.809 153.418C212.803 153.495 212.797 153.568 212.788 153.639C212.782 153.672 212.778 153.706 212.775 153.74C212.769 153.798 212.763 153.853 212.754 153.908C212.733 154.076 212.708 154.232 212.684 154.382C212.665 154.479 212.65 154.574 212.632 154.666C212.47 155.488 212.286 155.978 212.286 155.978C211.415 156.033 210.583 156.03 209.782 155.975C209.647 154.975 209.259 151.254 210.124 146.802C210.235 146.236 210.366 145.658 210.519 145.074C211.864 146.884 212.491 148.743 212.733 150.404C212.785 150.746 212.818 151.079 212.84 151.403C212.886 152.125 212.867 152.795 212.812 153.388Z" fill="#27481F"/>
<path d="M226.776 174.859L223.19 198.336C222.789 200.953 220.539 202.885 217.891 202.885H207.122C204.777 202.885 202.74 201.369 202.031 199.201C201.939 198.923 201.869 198.632 201.823 198.336L198.236 174.859H226.776Z" fill="#FC6002"/>
<path d="M211.91 156.01C211.91 156.01 207.981 132.704 232.973 129.344C232.973 129.344 234.541 154.883 211.91 156.01Z" fill="#49883A"/>
<path opacity="0.4" d="M226.777 174.859L223.19 198.336C222.789 200.953 220.539 202.885 217.891 202.885H207.122C204.777 202.885 202.741 201.369 202.031 199.201C216.014 196.96 219.762 182.565 220.521 174.859H226.777Z" fill="#FF9A5D"/>
<path opacity="0.15" d="M174.814 203.352C174.814 200.485 149.269 198.16 117.756 198.16C86.244 198.16 60.6982 200.485 60.6982 203.352C60.6982 205.678 77.5049 207.647 100.669 208.308C103.192 212.446 98.9811 217.396 95.7538 219.181C90.0867 219.464 86.0197 220.095 86.6602 221.44C89.6889 227.8 115.427 221.032 115.427 221.032C115.427 221.032 125.492 221.658 125.492 220.701C125.492 220.26 123.719 219.859 120.804 219.553L121.02 219.54L110.154 208.499C112.641 208.529 115.178 208.545 117.756 208.545C149.269 208.545 174.814 206.22 174.814 203.352Z" fill="#1F3C88"/>
<path d="M179.854 165.214C179.102 177.625 172.846 190.027 162.591 196.851C150.366 204.988 133.274 203.187 119.353 204.223C107.318 205.119 95.1916 205.89 83.1538 204.609C73.2899 203.557 63.3404 199.649 58.6286 190.073C53.9077 180.475 53.397 167.721 58.118 158.007C59.6224 154.907 61.6373 152.152 64.007 149.749C64.3922 149.354 64.7928 148.969 65.1995 148.593C65.4746 148.339 65.7529 148.088 66.0372 147.844C66.4714 147.468 66.9178 147.101 67.3704 146.743C67.5202 146.627 67.67 146.511 67.8229 146.395C67.9727 146.278 68.1256 146.165 68.2785 146.052C68.4314 145.939 68.5842 145.826 68.7402 145.716C68.8564 145.633 68.9726 145.551 69.0887 145.468C69.2814 145.33 69.4771 145.196 69.6758 145.064C71.4339 143.878 73.2869 142.835 75.1979 141.94C77.0569 141.062 78.971 140.322 80.8973 139.723C87.2296 137.757 93.8432 137.06 100.377 136.2C114.244 134.381 128.361 133.76 142.337 133.77C153.742 133.773 166.584 135.479 174.21 145.269C178.515 150.798 180.285 158.145 179.854 165.214Z" fill="#EE6F57"/>
<path d="M156.375 144.252C156.375 144.252 159.317 141.489 160.876 139.889C162.435 138.29 159.033 138.238 157.357 140.231C155.68 142.225 156.375 144.252 156.375 144.252Z" fill="#F9B384"/>
<path d="M75.1977 141.941C73.2867 142.837 71.4338 143.88 69.6757 145.066C69.4769 145.198 69.2812 145.332 69.0886 145.47C68.9724 145.552 68.8562 145.635 68.74 145.718C68.5841 145.828 68.4312 145.941 68.2783 146.054C68.1254 146.167 67.9726 146.28 67.8227 146.396C67.6699 146.513 67.52 146.629 67.3702 146.745C66.9238 147.1 66.4866 147.463 66.0554 147.836L66.0371 147.846C65.7527 148.09 65.4745 148.341 65.1993 148.595C64.7926 148.971 64.3921 149.356 64.0068 149.751C64.0405 150.075 64.2514 150.387 64.5982 150.458C66.8931 150.922 68.0424 153.111 69.892 154.356C71.2648 155.28 72.8875 155.533 74.4408 155.004C72.7684 158.546 71.846 162.059 72.568 166.023C72.7878 167.222 73.1686 168.389 73.6879 169.491C71.5386 167.895 69.4685 164.475 68.617 161.008C68.496 160.516 67.9989 160.207 67.5074 160.336C67.0155 160.457 66.7145 160.953 66.8354 161.445C67.8894 165.738 70.5729 169.864 73.3608 171.476C74.0247 171.86 74.6988 172.105 75.3665 172.217C75.9188 172.925 76.5352 173.582 77.2126 174.172L81.3342 175.324L84.6976 153.615L75.1977 141.941Z" fill="#B35341"/>
<path d="M87.1436 156.519C78.6218 153.2 72.7054 149.671 69.2707 147.32C67.0444 145.797 65.9184 143.111 66.3746 140.452L70.769 114.837C71.2212 112.201 72.9693 109.959 75.4278 108.905C82.4778 105.882 89.3419 104.155 95.3992 103.317C95.3992 103.317 98.7923 103.043 103.12 103.47C105.967 103.751 112.486 105.672 116.631 106.959C118.972 107.686 120.851 109.439 121.738 111.725C123.475 116.204 126.298 123.767 127.198 127.854C130.307 141.97 129.797 140.926 129.797 140.926L133.008 162.635L98.9153 164.546L90.2011 160.571L87.1436 156.519Z" fill="#FFB68A"/>
<path d="M108.242 78.9314C108.242 78.9314 105.222 72.7397 97.1961 75.568C91.3866 74.3067 86.953 81.1865 91.2337 90.5504L99.2982 92.4232L108.242 78.9314Z" fill="#102048"/>
<path d="M103.961 96.4336V107.386C103.961 109.948 101.882 112.027 99.3198 112.027C95.8463 112.027 93.0303 109.211 93.0303 105.738V96.4336H103.961Z" fill="#F9B384"/>
<path d="M103.96 100.983V106.958C99.0893 106.982 95.8574 100.684 95.8574 100.684L103.96 100.983Z" fill="#E28B6D"/>
<path d="M108.78 95.058C108.487 96.5746 108.068 98.1278 107.465 99.4946C106.413 101.895 104.808 103.723 102.356 103.775C96.6169 103.898 92.1895 96.0548 92.1895 96.0548L93.1067 85.3531L97.4638 80.4609L109.465 87.8757C109.465 87.8757 109.499 91.3552 108.78 95.058Z" fill="#F9B384"/>
<path d="M92.9153 92.9171C92.9153 92.9171 94.1001 88.1013 98.2279 84.9673C98.2279 84.9673 104.229 92.8025 110.573 89.0186C116.918 85.2347 114.166 77.7819 108.242 78.9285L101.438 78.1641L92.9153 80.8778L91.4629 87.5664L92.9153 92.9171Z" fill="#102048"/>
<path opacity="0.4" d="M98.9383 148.418C93.1569 135.926 85.8696 141.888 84.086 137.302C81.5868 130.875 82.0605 123.606 82.0476 121.402L78.5654 141.009C78.5654 141.009 86.3397 141.749 89.2139 146.43L98.9383 148.418Z" fill="#FC6002"/>
<path d="M82.2254 121.072C82.0086 122.749 81.7531 124.42 81.4889 126.089C81.232 127.759 80.9301 129.422 80.6529 131.088C80.3627 132.753 80.0578 134.414 79.7317 136.073L79.2336 138.558C79.0534 139.384 78.8857 140.212 78.6924 141.036L78.4395 140.991C78.5405 140.151 78.6672 139.316 78.7814 138.478L79.1666 135.972C79.4293 134.303 79.7134 132.638 80.0119 130.975C80.3236 129.314 80.6106 127.649 80.9425 125.992C81.2671 124.334 81.6005 122.677 81.9725 121.027L82.2254 121.072Z" fill="#1F3C88"/>
<path d="M116.004 117.973C116.467 120.151 116.894 122.336 117.313 124.522C117.738 126.707 118.122 128.9 118.529 131.088C118.917 133.28 119.296 135.473 119.665 137.668L120.199 140.965C120.364 142.066 120.54 143.165 120.692 144.268L120.457 144.31C120.219 143.222 120.004 142.13 119.778 141.04L119.14 137.762C118.727 135.575 118.326 133.385 117.932 131.195C117.558 129 117.16 126.81 116.804 124.613C116.441 122.416 116.087 120.219 115.769 118.015L116.004 117.973Z" fill="#1F3C88"/>
<path opacity="0.4" d="M117.617 128.086C118.025 132.061 117.414 152.649 107.833 152.955L107.935 157.439L123.019 156.522L117.617 128.086Z" fill="#FC6002"/>
<path d="M97.9221 152.391C104.725 149.486 106.026 149.594 106.942 149.639C110.076 149.792 114.586 156.06 114.586 156.06L114.51 157.207H97.3105L97.9221 152.391Z" fill="#E28B6D"/>
<path d="M124.091 156.086H102.917V159.296H124.091V156.086Z" fill="white"/>
<path d="M153.038 158.044H116.245L124.501 125.164H161.294L153.038 158.044Z" fill="#FC6002"/>
<path d="M156.217 145.85C152.577 145.306 140.805 142.86 116.548 157.639L115.987 159.677L152.883 159.298L156.217 145.85Z" fill="#FF9A5D"/>
<path d="M156.915 153.153C156.686 154.701 156.609 156.975 151.813 156.689L150.398 155.962L151.736 154.491L154.622 153.02L156.915 153.153Z" fill="#F9B384"/>
<path d="M157.367 148.973C157.367 148.973 159.993 152.402 157.355 153.457C154.488 154.604 151.736 154.489 151.736 154.489C152.959 151.049 156.934 151.279 156.934 151.279L157.367 148.973Z" fill="#F9B384"/>
<path d="M157.444 146.758C157.444 146.758 161.062 150.121 157.699 151.064C152.949 152.395 151.482 152.491 151.482 152.491C151.227 149.968 155.941 148.338 155.941 148.338L157.444 146.758Z" fill="#F9B384"/>
<path d="M156.705 143.828C156.705 143.828 161.648 146.835 157.011 148.516C152.374 150.198 151.278 150.173 151.278 150.173C151.023 147.65 155.992 146.784 155.992 146.784L156.705 143.828Z" fill="#F9B384"/>
<path d="M151.277 150.173C151.277 150.173 156.666 149.409 158.272 148.109" stroke="#E28B6D" stroke-width="2.5" stroke-miterlimit="10"/>
<path d="M151.481 152.493C151.481 152.493 157.087 151.704 158.845 150.48" stroke="#E28B6D" stroke-width="2.5" stroke-miterlimit="10"/>
<path d="M151.736 154.494C151.736 154.494 155.062 154.609 156.934 153.691" stroke="#E28B6D" stroke-width="2.5" stroke-miterlimit="10"/>
<path d="M99.5273 202.689C100.088 202.383 108.955 204.319 118.79 197.032L106.101 193.414L99.5273 202.689Z" fill="#102048"/>
<path d="M155.871 160.603C156.292 160.001 156.656 159.114 156.124 158.606C155.571 158.074 154.666 158.542 154.085 159.044C153.061 159.924 152.131 160.89 151.272 161.918L129.85 165.899L100.497 173.032L105.544 179.474C120.22 180.544 128.579 180.82 137.764 179.199C142.446 178.372 146.63 177.521 149.752 174.977C150.495 174.368 151.198 173.347 150.715 172.518C150.388 171.959 149.709 171.812 149.028 171.818C150.596 171.448 152.119 170.907 153.565 170.201C154.21 169.889 154.929 169.4 154.913 168.684C154.904 168.171 154.488 167.736 154.011 167.553C153.535 167.369 153.009 167.385 152.498 167.421C150.541 167.568 148.606 167.996 146.768 168.687C150.113 166.351 153.516 163.933 155.871 160.603ZM146.722 168.718C146.722 168.712 146.725 168.709 146.731 168.703C146.74 168.7 146.753 168.697 146.762 168.69C146.75 168.7 146.734 168.709 146.722 168.718Z" fill="#B35341"/>
<path d="M106.713 163.398C106.713 163.398 135.302 149.791 144.627 150.403C153.953 151.014 153.647 162.633 150.131 167.678C146.615 172.723 138.359 179.45 107.936 177.463L106.713 163.398Z" fill="#102048"/>
<path d="M121.02 219.543C119.473 219.98 117.277 220.087 114.256 219.607C114.256 219.607 110.343 220.622 106.49 221.42C103.882 221.962 101.304 222.402 99.9864 222.359C99.8733 222.356 99.7602 222.35 99.644 222.341C97.1153 222.16 93.9293 220.842 92.2384 218.959C92.2354 218.953 92.2323 218.947 92.2262 218.944C91.7614 218.424 91.4098 217.858 91.2203 217.265C90.303 214.409 92.2415 210.945 102.738 211.657C102.738 211.657 106.203 210.844 107.019 208.294C107.835 205.747 101.821 193.517 101.821 193.517L110.382 187.707L118.791 197.033C118.791 197.033 120.066 205.441 120.066 208.193C120.066 208.193 123.631 213.29 124.142 215.531C124.469 216.962 123.753 218.769 121.02 219.543Z" fill="#D3DFFF"/>
<path d="M72.8828 142.102C73.8635 141.724 74.8626 141.42 75.8728 141.139C76.3784 141.001 76.8873 140.872 77.4056 140.77C77.6643 140.718 77.9259 140.673 78.1911 140.637C78.3245 140.619 78.4571 140.605 78.5957 140.594C78.7428 140.587 78.887 140.588 79.0242 140.602C80.1225 140.717 81.1182 141.063 82.1073 141.428C83.0912 141.803 84.0544 142.222 85 142.677C85.9486 143.126 86.8717 143.625 87.7798 144.149C88.6874 144.674 89.5805 145.224 90.4485 145.813C92.173 147.004 93.8325 148.312 95.2609 149.852L95.0795 150.034C94.3108 149.339 93.5108 148.682 92.6787 148.066C91.8531 147.443 90.9986 146.857 90.1248 146.303C88.3915 145.171 86.5714 144.175 84.7189 143.256C83.7919 142.797 82.8482 142.372 81.8893 141.994C80.9313 141.636 79.9503 141.252 78.9743 141.12C78.8524 141.103 78.7364 141.099 78.6229 141.1C78.502 141.105 78.3748 141.115 78.2497 141.128C77.998 141.156 77.7447 141.192 77.4915 141.236C76.9854 141.325 76.4783 141.427 75.9731 141.541C74.9635 141.771 73.957 142.038 72.9692 142.344L72.8828 142.102Z" fill="#1F3C88"/>
<path d="M77.9708 182.129C81.4106 181.899 84.7911 182.146 87.2455 181.288C89.8699 180.37 96.7241 180.982 96.7241 180.982L92.9531 175.555L77.665 179.377L77.9708 182.129Z" fill="#B35341"/>
<path d="M78.1233 172.115C74.607 166.458 74.607 155.298 79.0406 150.253C84.1077 144.487 94.9402 142.303 100.597 149.03C106.253 155.757 116.649 180.37 118.79 197.034C118.79 197.034 107.324 193.212 99.5266 202.691C99.5266 202.691 89.2836 179.3 87.1433 170.739L81.3338 175.325L78.1233 172.115Z" fill="#1F3C88"/>
<path d="M87.1446 170.737C87.1446 170.737 85.6158 170.177 83.4754 171.604C83.4754 171.604 66.7604 171.247 63.0404 175.018C59.3202 178.789 62.1741 183.834 67.6268 184.395C72.2032 184.865 81.0872 181.315 83.8246 180.162C84.3806 179.928 84.9713 179.787 85.5733 179.748L90.1003 179.452L87.1446 170.737Z" fill="#D3DFFF"/>
<path d="M93.8188 93.2326C93.8188 93.2326 92.6978 89.5171 90.2315 90.446C87.7652 91.3749 89.0784 96.2114 93.947 97.5566L93.8188 93.2326Z" fill="#F9B384"/>
<path d="M91.1934 113.72C92.4107 114.579 93.708 115.317 95.0839 115.841C96.4586 116.356 97.9092 116.683 99.3643 116.648C100.816 116.63 102.254 116.272 103.551 115.609L104.039 115.361C104.199 115.273 104.346 115.162 104.5 115.064C104.804 114.86 105.12 114.669 105.392 114.419L105.821 114.071L106.037 113.896C106.107 113.836 106.169 113.767 106.235 113.703C106.496 113.441 106.761 113.18 107.03 112.922L107.213 113.076C106.972 113.367 106.727 113.656 106.478 113.943C106.415 114.014 106.356 114.089 106.289 114.157L106.082 114.353L105.667 114.746C105.397 115.018 105.079 115.233 104.771 115.46C104.615 115.571 104.466 115.694 104.303 115.794L103.802 116.08C102.461 116.836 100.916 117.245 99.3707 117.254C97.8259 117.257 96.2929 116.922 94.8905 116.319C93.4839 115.722 92.1894 114.895 91.0459 113.908L91.1934 113.72Z" fill="#1F3C88"/>
<path d="M84.6097 160.977L85.9345 165.612C86.3851 167.154 86.8064 168.703 87.2773 170.238C87.7381 171.775 88.1974 173.313 88.6809 174.842C88.9227 175.607 89.1615 176.373 89.4265 177.129C89.5558 177.509 89.673 177.893 89.8098 178.27C89.9466 178.647 90.0798 179.025 90.2092 179.406L89.9887 179.498C89.6473 178.767 89.3274 178.025 89.0254 177.277C88.725 176.528 88.4513 175.77 88.1743 175.012C87.6312 173.494 87.1511 171.955 86.696 170.409C86.2548 168.86 85.8186 167.31 85.4355 165.745C85.048 164.182 84.6821 162.615 84.377 161.032L84.6097 160.977Z" fill="#102048"/>
<path opacity="0.1" d="M121.019 219.54C119.472 219.978 117.277 220.085 114.256 219.605C114.256 219.605 107.783 221.262 103.693 221.912C107.898 221.071 114.013 215.873 113.325 212.586C119.364 214.573 121.007 217.593 121.019 219.54Z" fill="#1F3C88"/>
<path opacity="0.4" d="M104.762 220.115C103.982 221.075 102.82 221.727 101.6 222.054C100.961 222.225 100.304 222.317 99.6436 222.338C97.1149 222.158 93.9289 220.84 92.238 218.956C92.235 218.95 92.2319 218.944 92.2258 218.941C92.0454 218.696 91.8772 218.443 91.7305 218.18C92.6294 219.017 93.6078 219.702 94.6627 220.225C95.1917 220.476 95.7268 220.718 96.2863 220.886C96.5584 220.99 96.8428 221.051 97.1241 221.13C97.4023 221.216 97.6928 221.25 97.9802 221.302C100.264 221.687 102.689 221.448 104.762 220.115Z" fill="#1F3C88"/>
<path d="M92.7104 93.7562C92.6536 93.4226 92.4967 93.111 92.312 92.8267C92.1232 92.5458 91.8982 92.2832 91.638 92.0993C91.3775 91.9171 91.0948 91.8261 90.8564 91.9551C90.606 92.0798 90.4078 92.3837 90.2347 92.6919L90.0654 92.633C90.1383 92.2704 90.2724 91.8714 90.652 91.608C90.8393 91.4773 91.0956 91.4308 91.3183 91.4711C91.5421 91.5115 91.738 91.6077 91.9033 91.7278C92.2334 91.9707 92.4752 92.2862 92.6512 92.631C92.8218 92.9746 92.9445 93.3625 92.8897 93.76L92.7104 93.7562Z" fill="#E28B6D"/>
<path d="M107.258 93.6692C107.151 94.1966 106.753 94.5609 106.371 94.483C105.988 94.405 105.765 93.9143 105.873 93.3868C105.98 92.8594 106.377 92.4951 106.76 92.573C107.143 92.651 107.366 93.1418 107.258 93.6692Z" fill="#102048"/>
<path d="M101.302 93.4257C101.388 92.8944 101.146 92.4128 100.761 92.35C100.375 92.2871 99.9925 92.6669 99.9058 93.1982C99.8192 93.7295 100.061 94.2111 100.447 94.2739C100.832 94.3367 101.215 93.957 101.302 93.4257Z" fill="#102048"/>
<path d="M103.83 94.1516C103.866 94.5857 103.884 95.0178 103.888 95.4406C103.906 95.6024 103.981 95.7409 104.116 95.888C104.246 96.0339 104.415 96.1864 104.56 96.3989C104.633 96.5037 104.69 96.6376 104.718 96.7694C104.749 96.9006 104.753 97.0307 104.744 97.1587C104.723 97.4133 104.632 97.6637 104.463 97.8697C104.38 97.9733 104.269 98.0585 104.149 98.1209C104.023 98.1749 103.889 98.2093 103.759 98.2031C103.497 98.1915 103.273 98.0903 103.086 97.9595L103.171 97.8015C103.369 97.8659 103.566 97.9156 103.741 97.8827C103.914 97.8584 104.052 97.7659 104.144 97.6237C104.331 97.3449 104.359 96.9085 104.178 96.6484C104.084 96.4974 103.928 96.3557 103.78 96.1693C103.63 95.9928 103.487 95.7262 103.497 95.4488C103.53 95.0046 103.583 94.5696 103.651 94.1367L103.83 94.1516Z" fill="#E28B6D"/>
<path d="M98.9023 91.5935C99.146 91.3505 99.4356 91.1487 99.7609 91.004C100.085 90.8584 100.452 90.7778 100.825 90.8008C101.198 90.8224 101.563 90.961 101.855 91.1779C102.148 91.3932 102.374 91.6727 102.542 91.9743L102.4 92.0843C102.148 91.8691 101.903 91.6668 101.637 91.517C101.371 91.3674 101.087 91.2764 100.793 91.2561C100.2 91.2107 99.5969 91.4468 99.0074 91.7388L98.9023 91.5935Z" fill="#102048"/>
<path d="M105.122 92.1173C105.223 91.7918 105.494 91.5351 105.792 91.3825C106.093 91.2253 106.432 91.1588 106.767 91.1644C107.103 91.1717 107.44 91.2579 107.732 91.4295C108.024 91.5982 108.266 91.8576 108.393 92.159L108.242 92.2569C107.827 91.8391 107.304 91.6393 106.755 91.6207C106.214 91.6086 105.641 91.7579 105.283 92.1966L105.122 92.1173Z" fill="#102048"/>
<path d="M100.948 99.2969L105.004 99.5859C105.004 99.5859 102.742 102.587 100.948 99.2969Z" fill="white"/>
<path opacity="0.4" d="M108.78 95.0605C108.486 96.577 108.068 98.1303 107.465 99.4971C106.673 99.124 106.126 98.3168 106.126 97.3812C106.126 96.0878 107.178 95.0391 108.471 95.0391C108.575 95.0391 108.679 95.0452 108.78 95.0605Z" fill="#EE6F57"/>
<path opacity="0.4" d="M99.3654 99.001C100.559 98.4997 101.12 97.1256 100.619 95.9319C100.118 94.7383 98.7437 94.177 97.55 94.6783C96.3563 95.1796 95.7951 96.5536 96.2964 97.7473C96.7976 98.941 98.1717 99.5023 99.3654 99.001Z" fill="#EE6F57"/>
<g filter="url(#filter0_d_866_930)">
<rect x="24.9561" y="14.9844" width="207.09" height="30" rx="15" fill="white"/>
<rect x="25.2061" y="15.2344" width="206.59" height="29.5" rx="14.75" stroke="#FFC7A6" stroke-width="0.5"/>
</g>
<rect x="30.3984" y="19.2734" width="21.4258" height="21.4258" rx="10.7129" fill="#FC6002"/>
<path d="M45.4767 33.6203L43.8786 32.0214C45.0744 30.4234 44.7484 28.1586 43.1504 26.9628C41.5524 25.767 39.2875 26.0931 38.0917 27.6911C36.8959 29.2891 37.222 31.5539 38.82 32.7497C40.1036 33.7103 41.8667 33.7103 43.1504 32.7497L44.7492 34.3485C44.9501 34.5494 45.2758 34.5494 45.4767 34.3485C45.6776 34.1476 45.6776 33.8218 45.4767 33.6209L45.4767 33.6203ZM40.9985 32.4411C39.5783 32.4411 38.427 31.2898 38.427 29.8696C38.427 28.4494 39.5783 27.2981 40.9985 27.2981C42.4187 27.2981 43.57 28.4494 43.57 29.8696C43.5685 31.2892 42.4181 32.4396 40.9985 32.4411Z" fill="white"/>
<defs>
<filter id="filter0_d_866_930" x="0.956055" y="0.984375" width="255.09" height="78" filterUnits="userSpaceOnUse" color-interpolation-filters="sRGB">
<feFlood flood-opacity="0" result="BackgroundImageFix"/>
<feColorMatrix in="SourceAlpha" type="matrix" values="0 0 0 0 0 0 0 0 0 0 0 0 0 0 0 0 0 0 127 0" result="hardAlpha"/>
<feOffset dy="10"/>
<feGaussianBlur stdDeviation="12"/>
<feComposite in2="hardAlpha" operator="out"/>
<feColorMatrix type="matrix" values="0 0 0 0 0 0 0 0 0 0 0 0 0 0 0 0 0 0 0.08 0"/>
<feBlend mode="normal" in2="BackgroundImageFix" result="effect1_dropShadow_866_930"/>
<feBlend mode="normal" in="SourceGraphic" in2="effect1_dropShadow_866_930" result="shape"/>
</filter>
</defs>
</svg>
