<svg width="245" height="190" viewBox="0 0 245 190" fill="none" xmlns="http://www.w3.org/2000/svg">
<path d="M179.486 121.448C181.012 120.378 182.584 119.378 184.253 118.52C192.839 114.108 200.877 109.579 207.583 102.629C215.526 94.3974 221.094 83.2798 221.095 71.6153C221.096 59.9509 214.819 47.9922 204.485 43.1539C191.624 37.1326 176.91 42.858 162.915 44.3013C144.875 46.1618 126.939 40.6705 109.136 36.8782C91.3331 33.0859 71.9849 31.157 55.8165 39.5051C42.7983 46.2266 33.2114 59.5304 30.7059 74.3512C28.2004 89.1719 32.8353 105.159 42.8462 116.226C57.2902 132.194 80.0095 136.494 101.076 137.513C116.6 138.263 132.171 137.723 147.589 135.9C154.544 135.077 161.053 133.662 167.195 130.203C171.613 127.715 175.382 124.327 179.486 121.448Z" stroke="#F4EBD7" stroke-width="2.5965" stroke-miterlimit="10"/>
<path d="M83.889 136.088C73.0444 134.805 62.1318 132.185 52.5496 126.442C42.9674 120.7 34.7881 111.533 31.5966 100.318C28.4052 89.1025 30.9268 75.8874 39.1409 68.4086C49.3635 59.1009 64.5087 60.5813 77.8194 58.1411C94.9779 54.9954 110.029 44.8094 125.422 36.2934C140.815 27.7775 158.144 20.6303 175.349 24.2347C189.202 27.1366 201.689 37.3061 208.055 50.871C214.421 64.436 214.517 81.0759 208.305 94.4553C199.342 113.759 179.551 124.108 160.387 130.85C146.265 135.818 131.747 139.558 117.019 142.022C111.605 142.928 106.079 143.661 100.625 142.804C95.1714 141.946 89.7255 139.312 86.3509 134.593L83.889 136.088Z" fill="#F4EBD7"/>
<path d="M0 157.715H244.511" stroke="#102048" stroke-width="5" stroke-miterlimit="10"/>
<mask id="mask0_14_22" style="mask-type:luminance" maskUnits="userSpaceOnUse" x="129" y="12" width="74" height="67">
<path d="M129.453 12.0053V70.7326V78.5782L138.568 70.7326H202.026V12.0053H129.453Z" fill="white"/>
</mask>
<g mask="url(#mask0_14_22)">
<path d="M202.026 12.0053H129.453V81.8058H202.026V12.0053Z" fill="white"/>
<g opacity="0.6">
<path d="M150.049 55.6685C143.49 51.5774 140.793 44.7872 140.769 38.2351C140.75 32.7279 143.138 25.9346 151.033 27.1445C156.34 27.9578 160.779 31.2018 165.865 32.6355C169.984 33.7961 174.356 33.457 178.526 33.2516C185.062 32.9299 192.172 36.7291 192.863 41.0888C193.789 46.9331 192.931 53.4084 187.781 56.8118C178.76 62.7725 160.198 61.9989 150.049 55.6685Z" stroke="#1F3C88" stroke-width="2.5" stroke-miterlimit="10" stroke-dasharray="19.91 19.91"/>
</g>
<path d="M155.539 62.3988C147.901 61.2076 142.757 56.0194 140.166 50.0012C137.988 44.943 137.521 37.7574 145.257 35.7741C150.458 34.4409 155.814 35.6842 161.055 35.0081C165.299 34.4607 169.188 32.434 172.943 30.6098C178.829 27.7503 185.654 26.5692 189.205 32.1965C192.363 37.2008 191.701 44.0739 188.298 49.2246C182.338 58.2453 167.358 64.2419 155.539 62.3988Z" fill="#D3DFFF"/>
<path d="M145.036 19.9941C145.421 18.3636 144.411 16.7298 142.781 16.3448C141.15 15.9598 139.516 16.9694 139.131 18.5999C138.746 20.2304 139.756 21.8642 141.386 22.2492C143.017 22.6342 144.651 21.6246 145.036 19.9941Z" fill="#EE6F57"/>
<path d="M142.738 20.5798L142.074 19.6838L141.406 20.5798H140.738L141.745 19.2674L140.781 17.9936H141.454L142.089 18.8411L142.723 17.9936H143.377L142.409 19.2576L143.421 20.5799L142.738 20.5798Z" fill="white"/>
<path d="M152.832 20.0287C153.246 18.4051 152.265 16.7537 150.641 16.3403C149.018 15.9268 147.366 16.9078 146.953 18.5314C146.539 20.155 147.52 21.8064 149.144 22.2198C150.768 22.6333 152.419 21.6523 152.832 20.0287Z" fill="#FBC343"/>
<path d="M151.115 18.9508H148.674V19.6167H151.115V18.9508Z" fill="white"/>
<path d="M177.593 54.8598C170.002 59.207 166.317 58.0129 165.123 57.3383C163.932 58.0129 160.247 59.2071 152.656 54.8598C145.384 50.6915 149.623 41.7299 152.487 36.2773C154.042 33.3154 155.243 30.1897 157.971 28.0547C160.539 26.0466 163.415 25.4264 166.788 25.593C171.425 25.8219 174.302 28.5838 175.725 31.8968C176.856 34.5324 178.261 36.9974 179.497 39.5782C180.655 41.9967 181.588 44.6291 181.675 47.3137C181.776 50.4367 180.428 53.2352 177.593 54.8598Z" fill="#6F3428"/>
<path d="M179.402 54.3309C174.753 49.1002 166.19 50.1918 165.279 50.325C164.368 50.1918 155.806 49.1002 151.156 54.3309C147.655 58.2696 147.701 73.9903 147.701 73.9903C147.701 73.6026 163.988 73.4886 165.279 73.4802C166.571 73.4886 182.858 73.6026 182.858 73.9903C182.858 73.9903 182.903 58.2696 179.402 54.3309Z" fill="#FC6002"/>
<path d="M158.065 38.5461C156.241 38.7325 154.721 43.1773 159.657 43.2705L160.837 41.8726L158.065 38.5461Z" fill="#E28B6D"/>
<path d="M172.536 38.5461C174.593 38.6538 176.055 43.1773 171.12 43.2705L169.939 41.8726L172.536 38.5461Z" fill="#E28B6D"/>
<path d="M165.279 54.4816C163.01 54.4816 161.171 52.6422 161.171 50.3732V45.1895H169.388V50.3732C169.388 52.6423 167.548 54.4816 165.279 54.4816Z" fill="#F9B384"/>
<path d="M169.366 46.2932C166.663 50.6971 163.919 50.6196 161.136 46.4456L169.366 46.2932Z" fill="#E28B6D"/>
<path d="M173.206 35.2596C173.165 35.6619 173.118 36.0569 173.067 36.4483C172.215 42.9624 169.991 48.061 165.159 48.061C160.199 48.061 158.473 43.1672 157.566 36.3605C157.489 35.8045 157.423 35.2303 157.358 34.6487L167.112 30.7498L173.206 35.2596Z" fill="#F9B384"/>
<path d="M156.564 38.3971C159.048 39.2353 163.788 36.4312 163.788 36.4312C163.42 35.365 163.94 34.3157 164.976 33.2766C164.915 34.3327 165.159 35.9893 166.104 36.5989C166.104 36.5989 166.744 36.7513 167.735 36.538C167.493 35.3307 167.67 34.2725 168.405 33.4138C168.405 33.4138 169.518 36.4465 170.067 37.1324C170.76 37.9995 173.258 39.3096 175.492 38.2144L171.331 28.7962L160.313 28.5676L155.33 33.1852L156.564 38.3971Z" fill="#6F3428"/>
<path d="M162.444 39.5655C162.806 39.5655 163.1 39.1636 163.1 38.6679C163.1 38.1722 162.806 37.7703 162.444 37.7703C162.081 37.7703 161.787 38.1722 161.787 38.6679C161.787 39.1636 162.081 39.5655 162.444 39.5655Z" fill="#6F3428"/>
<path d="M167.96 39.5655C168.323 39.5655 168.617 39.1636 168.617 38.6679C168.617 38.1722 168.323 37.7703 167.96 37.7703C167.597 37.7703 167.303 38.1722 167.303 38.6679C167.303 39.1636 167.597 39.5655 167.96 39.5655Z" fill="#6F3428"/>
<path d="M166.064 41.085C166.064 41.9562 166.134 42.6425 165.41 42.6623C164.721 42.6812 164.755 41.9562 164.755 41.085C164.755 40.2138 165.048 39.5076 165.41 39.5076C165.771 39.5076 166.064 40.2139 166.064 41.085Z" fill="#E28B6D"/>
<path d="M163.388 44.1374L167.531 44.0229C167.531 44.0229 165.801 47.3334 163.388 44.1374Z" fill="white"/>
<path opacity="0.3" d="M169.353 43.5342C170.322 43.5342 171.108 42.7483 171.108 41.779C171.108 40.8096 170.322 40.0238 169.353 40.0238C168.384 40.0238 167.598 40.8096 167.598 41.779C167.598 42.7483 168.384 43.5342 169.353 43.5342Z" fill="#EE6F57"/>
<path opacity="0.3" d="M163.546 42.2416C163.701 41.2847 163.05 40.3836 162.094 40.229C161.137 40.0743 160.235 40.7248 160.081 41.6817C159.926 42.6387 160.577 43.5398 161.534 43.6944C162.491 43.849 163.392 43.1986 163.546 42.2416Z" fill="#EE6F57"/>
<g opacity="0.4">
<path d="M160.432 54.4586C160.726 54.801 161.096 55.0742 161.504 55.2799C161.907 55.4935 162.336 55.6609 162.778 55.7844C163.661 56.0287 164.583 56.1418 165.496 56.1013C166.407 56.0618 167.313 55.8738 168.137 55.4942C168.962 55.1169 169.683 54.5257 170.252 53.791L170.432 53.9079C170.198 54.3319 169.892 54.7173 169.544 55.0626C169.188 55.3998 168.784 55.689 168.35 55.9234C167.477 56.3885 166.493 56.6073 165.518 56.6469C164.541 56.6809 163.559 56.5483 162.638 56.2262C162.179 56.0644 161.73 55.8636 161.316 55.6004C160.907 55.3337 160.52 55.0066 160.256 54.5813L160.432 54.4586Z" fill="#6F3428"/>
</g>
<g opacity="0.4">
<path d="M155.78 61.1321C155.816 62.064 155.819 62.9947 155.814 63.9252C155.815 64.8559 155.79 65.7857 155.764 66.7156C155.735 67.6453 155.698 68.5747 155.64 69.5035L155.547 70.8965C155.504 71.3604 155.472 71.8246 155.417 72.2882L155.203 72.2812C155.179 71.8151 155.177 71.3497 155.164 70.884L155.161 69.4879C155.164 68.5573 155.187 67.6274 155.219 66.6977C155.254 65.7682 155.289 64.8387 155.351 63.91C155.407 62.9813 155.47 62.0526 155.566 61.125L155.78 61.1321Z" fill="#6F3428"/>
</g>
<g opacity="0.4">
<path d="M175.19 60.6673C175.346 61.5981 175.47 62.5322 175.586 63.4669C175.708 64.4011 175.804 65.3378 175.899 66.2747C175.991 67.2118 176.075 68.1497 176.138 69.0897L176.226 70.5001C176.244 70.9713 176.272 71.4417 176.278 71.914L176.065 71.9347C175.981 71.4698 175.918 71.0029 175.845 70.537L175.661 69.1358C175.543 68.2011 175.445 67.2646 175.356 66.3273C175.27 65.3896 175.184 64.4519 175.125 63.5116C175.06 62.5719 175.002 61.6315 174.977 60.6879L175.19 60.6673Z" fill="#6F3428"/>
</g>
</g>
<path d="M129.452 12.0132V70.7404V78.586L138.567 70.7404H202.025V12.0132H129.452Z" stroke="#708CD5" stroke-width="3.5" stroke-miterlimit="10"/>
<path opacity="0.15" d="M29.7608 171.261C36.1778 171.261 41.3798 170.271 41.3798 169.049C41.3798 167.827 36.1778 166.837 29.7608 166.837C23.3438 166.837 18.1419 167.827 18.1419 169.049C18.1419 170.271 23.3438 171.261 29.7608 171.261Z" fill="#1F3C88"/>
<path d="M24.431 164.745C21.917 164.745 19.1185 161.065 19.1185 158.571C19.1185 156.036 21.1398 153.973 23.624 153.973C26.1085 153.973 28.1297 156.036 28.1297 158.571C28.1296 160.958 27.1255 164.745 24.431 164.745ZM23.624 155.502C21.9827 155.502 20.6474 156.879 20.6474 158.571C20.6474 160.438 22.9104 163.216 24.431 163.216C25.8281 163.216 26.6009 160.469 26.6009 158.571C26.6008 156.879 25.2653 155.502 23.624 155.502Z" fill="#1F3C88"/>
<path d="M33.1231 168.719H26.5083C25.4091 168.719 24.4937 167.877 24.4028 166.781L23.0348 150.297H36.8705L35.2255 166.816C35.1179 167.896 34.2088 168.719 33.1231 168.719Z" fill="#1F3C88"/>
<path d="M24.6394 130.525C24.1758 132.076 23.9687 133.673 24.2317 135.21C24.3625 135.975 24.5804 136.722 24.883 137.439C25.1945 138.152 25.5806 138.836 26.0207 139.488C26.4758 140.132 26.9586 140.762 27.505 141.346C27.6342 141.486 27.7754 141.66 27.9171 141.83C28.0556 142.002 28.2027 142.164 28.3324 142.344L28.6993 142.908C28.8262 143.092 28.9021 143.318 29.0028 143.521C29.1092 143.722 29.1606 143.956 29.2269 144.178C29.3041 144.398 29.3167 144.64 29.3447 144.874C29.3625 144.991 29.3595 145.11 29.3487 145.23L29.3246 145.586C29.3077 145.703 29.2753 145.819 29.2503 145.934C29.2241 146.05 29.199 146.165 29.1501 146.273L29.0164 146.597C28.9619 146.7 28.9021 146.799 28.8448 146.899C28.7909 147.001 28.7212 147.091 28.6528 147.182C28.5844 147.272 28.5201 147.366 28.4396 147.445C28.1381 147.784 27.802 148.057 27.4008 148.283L27.1458 147.878C27.7119 147.38 28.1757 146.71 28.3328 146.02C28.3635 145.936 28.3708 145.847 28.3805 145.759C28.3892 145.672 28.4067 145.586 28.41 145.499L28.3984 145.236C28.3989 145.15 28.3933 145.063 28.3682 144.977C28.328 144.805 28.3169 144.631 28.2387 144.465C28.1724 144.298 28.1295 144.127 28.0264 143.969C27.9303 143.81 27.8639 143.643 27.7495 143.491L27.4212 143.032C27.3041 142.884 27.1648 142.746 27.0387 142.602L26.6327 142.16C26.3423 141.848 26.0525 141.536 25.7868 141.2C25.507 140.877 25.2606 140.523 25.0133 140.172C24.5464 139.449 24.1098 138.696 23.7996 137.879C23.4925 137.064 23.2743 136.209 23.1957 135.339C23.0169 133.593 23.4317 131.841 24.1969 130.343L24.6394 130.525Z" fill="#D3DFFF"/>
<path d="M30.6479 130.054C31.5035 130.755 32.2037 131.732 32.5265 132.858C32.6956 133.417 32.7679 134.002 32.7762 134.583C32.7842 135.165 32.6903 135.737 32.5752 136.295C32.4448 136.851 32.2579 137.387 32.0413 137.903L31.8964 138.257C31.8536 138.368 31.801 138.479 31.7647 138.59L31.672 138.924C31.6378 139.036 31.634 139.142 31.6107 139.253C31.5827 139.365 31.5937 139.467 31.5888 139.575C31.5766 139.685 31.6059 139.781 31.6155 139.885C31.6191 139.992 31.668 140.08 31.6887 140.183C31.7343 140.273 31.7675 140.374 31.8295 140.459C32.0419 140.819 32.4497 141.126 32.8757 141.319L32.782 141.788C32.175 141.725 31.6095 141.466 31.1567 140.987C31.0434 140.871 30.9578 140.728 30.8658 140.591C30.7991 140.443 30.7059 140.296 30.667 140.138C30.6238 139.98 30.5711 139.819 30.5638 139.66C30.5488 139.501 30.5231 139.336 30.5389 139.183C30.5509 139.03 30.5424 138.865 30.5767 138.718L30.668 138.272C30.7048 138.127 30.7561 137.991 30.8004 137.85C30.8475 137.709 30.8926 137.564 30.9361 137.454C31.1272 136.983 31.2647 136.498 31.3903 136.017C31.5056 135.534 31.5772 135.045 31.6073 134.558C31.63 134.072 31.5958 133.587 31.5131 133.108C31.3438 132.146 30.893 131.241 30.2998 130.381L30.6479 130.054Z" fill="#D3DFFF"/>
<path opacity="0.15" d="M206.262 172.34C219.096 172.34 229.5 170.8 229.5 168.9C229.5 167 219.096 165.46 206.262 165.46C193.428 165.46 183.024 167 183.024 168.9C183.024 170.8 193.428 172.34 206.262 172.34Z" fill="#1F3C88"/>
<path d="M207.74 112.871H204.479V144.772H207.74V112.871Z" fill="#27481F"/>
<path d="M206.925 110.725C206.882 113.033 206.668 114.978 206.488 116.235C206.35 117.201 206.234 117.757 206.234 117.757C197.33 114.868 193.245 109.349 191.545 103.781C191.386 103.273 191.252 102.763 191.136 102.255C189.338 94.5072 191.747 87.1261 191.747 87.1261C195.829 87.9792 198.847 89.7587 201.064 92.0489C201.446 92.4403 201.801 92.8439 202.134 93.2628C206.237 98.4057 207.023 105.496 206.925 110.725Z" fill="#49883A"/>
<path d="M218.468 95.3046C218.29 101.499 215.881 108.715 208.408 115.644C207.836 116.176 207.231 116.708 206.595 117.237C206.528 117.295 206.461 117.35 206.393 117.405C206.393 117.405 205.155 115.589 203.88 112.635C203.862 112.592 203.843 112.553 203.828 112.51C203.382 111.467 202.932 110.284 202.535 108.99C202.207 107.936 201.914 106.81 201.678 105.624C200.779 101.065 200.776 95.6593 203.262 90.3084C205.127 86.2785 208.405 82.2822 213.768 78.6956C213.768 78.6956 218.743 85.8015 218.468 95.3046Z" fill="#49883A"/>
<path opacity="0.5" d="M208.408 115.645C207.836 116.177 207.231 116.709 206.595 117.238C206.528 117.296 206.46 117.351 206.393 117.406C206.393 117.406 205.155 115.59 203.88 112.637C203.862 112.596 203.845 112.552 203.827 112.511L203.828 112.511C203.72 112.259 203.612 111.998 203.504 111.731C203.464 111.628 203.423 111.521 203.382 111.416C203.312 111.237 203.242 111.058 203.173 110.872C203.119 110.727 203.066 110.574 203.013 110.424C202.957 110.267 202.9 110.113 202.845 109.952C202.739 109.639 202.635 109.319 202.534 108.992C202.207 107.937 201.914 106.812 201.678 105.625C200.944 101.907 200.807 97.6237 202.134 93.2666C201.8 92.8477 201.446 92.4441 201.064 92.0527C200.207 94.3145 198.814 99.4993 198.649 104.175C196.591 103.368 194.115 102.707 191.136 102.259C191.252 102.767 191.386 103.277 191.545 103.785C190.276 103.482 188.903 103.216 187.421 102.996C188.592 106.989 193.288 119.709 205.543 119.898C205.855 119.905 206.17 119.901 206.491 119.889C206.995 119.874 207.512 119.834 208.044 119.773C208.044 119.773 208.595 118.039 208.408 115.645Z" fill="#27481F"/>
<path d="M206.568 119.223C206.568 119.232 206.568 119.245 206.565 119.254C206.559 119.33 206.553 119.404 206.544 119.474C206.537 119.508 206.534 119.541 206.531 119.575C206.525 119.633 206.519 119.688 206.51 119.743C206.489 119.911 206.464 120.067 206.44 120.217C206.424 120.315 206.406 120.41 206.388 120.501C206.226 121.324 206.042 121.813 206.042 121.813C205.171 121.868 204.339 121.865 203.538 121.81C189.03 120.838 186.051 102.804 186.051 102.804C186.519 102.862 186.975 102.926 187.421 102.996C188.904 103.217 190.277 103.483 191.546 103.785C196.79 105.033 200.26 106.913 202.535 108.992C203.22 109.616 203.795 110.261 204.275 110.91C205.62 112.72 206.247 114.579 206.489 116.239C206.541 116.581 206.574 116.915 206.596 117.239C206.641 117.96 206.623 118.63 206.568 119.223Z" fill="#49883A"/>
<path opacity="0.38" d="M218.468 95.3049C218.38 98.4023 217.731 101.753 216.172 105.199C214.616 108.645 212.145 112.18 208.409 115.644C208.393 115.656 208.378 115.672 208.363 115.684C208.143 115.889 207.916 116.094 207.684 116.298C207.617 116.36 207.549 116.421 207.479 116.482C207.192 116.733 206.898 116.986 206.595 117.237C206.574 116.913 206.54 116.58 206.488 116.237C206.247 114.577 205.62 112.718 204.275 110.908C203.795 110.26 203.22 109.615 202.535 108.991C202.208 107.936 201.914 106.811 201.679 105.624C202.507 106.107 203.241 106.618 203.883 107.15C204.339 107.523 204.743 107.905 205.113 108.294C207.024 103.294 210.873 98.176 218.468 95.3049Z" fill="#27481F"/>
<path opacity="0.2" d="M206.567 119.221C206.567 119.23 206.567 119.242 206.564 119.251C206.558 119.328 206.552 119.401 206.543 119.471C206.537 119.505 206.534 119.539 206.531 119.572C206.524 119.63 206.518 119.686 206.509 119.741C206.488 119.909 206.463 120.065 206.439 120.214C206.42 120.312 206.405 120.407 206.387 120.499C206.225 121.321 206.041 121.811 206.041 121.811C205.17 121.866 204.338 121.863 203.537 121.807C203.403 120.808 203.014 117.087 203.88 112.635C203.99 112.069 204.121 111.491 204.274 110.907C205.619 112.717 206.246 114.576 206.488 116.237C206.54 116.579 206.573 116.912 206.595 117.236C206.641 117.958 206.622 118.628 206.567 119.221Z" fill="#27481F"/>
<path d="M220.531 140.693L216.945 164.169C216.544 166.787 214.294 168.719 211.646 168.719H200.877C198.532 168.719 196.495 167.203 195.786 165.035C195.694 164.756 195.624 164.466 195.578 164.169L191.991 140.693H220.531Z" fill="#FC6002"/>
<path d="M205.666 121.841C205.666 121.841 201.736 98.5349 226.728 95.1748C226.728 95.1748 228.296 120.714 205.666 121.841Z" fill="#49883A"/>
<path opacity="0.4" d="M220.531 140.693L216.945 164.169C216.544 166.787 214.294 168.719 211.646 168.719H200.877C198.532 168.719 196.495 167.203 195.786 165.035C209.768 162.793 213.517 148.398 214.275 140.693H220.531Z" fill="#FF9A5D"/>
<path opacity="0.15" d="M168.569 169.187C168.569 166.319 143.023 163.994 111.511 163.994C79.9988 163.994 54.453 166.319 54.453 169.187C54.453 171.512 71.2597 173.481 94.424 174.142C96.9466 178.28 92.7359 183.23 89.5086 185.016C83.8415 185.299 79.7745 185.929 80.415 187.274C83.4436 193.634 109.182 186.866 109.182 186.866C109.182 186.866 119.247 187.492 119.247 186.535C119.247 186.095 117.474 185.693 114.559 185.387L114.774 185.374L103.909 174.333C106.396 174.363 108.933 174.379 111.511 174.379C143.023 174.379 168.569 172.054 168.569 169.187Z" fill="#1F3C88"/>
<path d="M173.609 131.05C172.857 143.46 166.601 155.862 156.345 162.687C144.121 170.823 127.029 169.022 113.108 170.059C101.073 170.955 88.9464 171.725 76.9086 170.444C67.0447 169.392 57.0952 165.485 52.3834 155.908C47.6624 146.31 47.1518 133.557 51.8728 123.843C53.3771 120.742 55.3921 117.987 57.7618 115.584C58.147 115.19 58.5476 114.804 58.9542 114.428C59.2294 114.175 59.5077 113.924 59.792 113.679C60.2262 113.303 60.6726 112.936 61.1251 112.579C61.275 112.462 61.4248 112.346 61.5777 112.23C61.7275 112.114 61.8804 112.001 62.0332 111.888C62.1861 111.774 62.339 111.661 62.4949 111.551C62.6111 111.469 62.7273 111.386 62.8435 111.304C63.0361 111.166 63.2318 111.031 63.4306 110.9C65.1887 109.714 67.0416 108.671 68.9526 107.775C70.8117 106.898 72.7257 106.158 74.652 105.558C80.9844 103.592 87.598 102.895 94.1321 102.036C107.998 100.217 122.115 99.5959 136.092 99.6051C147.497 99.6081 160.339 101.314 167.964 111.105C172.27 116.633 174.04 123.98 173.609 131.05Z" fill="#EE6F57"/>
<path d="M150.13 110.086C150.13 110.086 153.071 107.322 154.63 105.723C156.189 104.123 152.788 104.071 151.111 106.065C149.435 108.058 150.13 110.086 150.13 110.086Z" fill="#F9B384"/>
<path d="M68.9528 107.775C67.0418 108.671 65.1888 109.714 63.4307 110.9C63.232 111.032 63.0363 111.166 62.8436 111.304C62.7275 111.386 62.6113 111.469 62.4951 111.552C62.3391 111.662 62.1863 111.775 62.0334 111.888C61.8805 112.001 61.7276 112.114 61.5778 112.23C61.4249 112.346 61.2751 112.463 61.1253 112.579C60.6789 112.934 60.2416 113.297 59.8105 113.67L59.7921 113.68C59.5078 113.924 59.2295 114.175 58.9544 114.429C58.5477 114.805 58.1471 115.19 57.7619 115.585C57.7955 115.909 58.0065 116.22 58.3532 116.292C60.6482 116.756 61.7975 118.945 63.6471 120.19C65.0198 121.114 66.6426 121.367 68.1958 120.838C66.5234 124.38 65.601 127.893 66.3231 131.857C66.5429 133.056 66.9236 134.223 67.4429 135.325C65.2937 133.729 63.2235 130.309 62.372 126.842C62.2511 126.35 61.7539 126.041 61.2625 126.17C60.7706 126.291 60.4696 126.787 60.5904 127.279C61.6445 131.572 64.3279 135.698 67.1159 137.31C67.7797 137.694 68.4539 137.939 69.1216 138.051C69.6739 138.759 70.2903 139.416 70.9676 140.006L75.0893 141.158L78.4527 119.449L68.9528 107.775Z" fill="#B35341"/>
<path d="M80.8982 122.353C72.3764 119.034 66.46 115.504 63.0253 113.154C60.799 111.63 59.6729 108.944 60.1291 106.285L64.5235 80.6703C64.9758 78.0339 66.7239 75.7924 69.1824 74.7384C76.2324 71.7154 83.0965 69.9878 89.1538 69.1501C89.1538 69.1501 92.5468 68.8764 96.8742 69.303C99.722 69.5838 106.241 71.5049 110.385 72.7919C112.727 73.5191 114.606 75.2723 115.493 77.5582C117.23 82.037 120.053 89.6 120.953 93.6875C124.061 107.804 123.552 106.759 123.552 106.759L126.762 128.468L92.6699 130.379L83.9557 126.404L80.8982 122.353Z" fill="#FFB68A"/>
<path d="M101.997 44.7658C101.997 44.7658 98.9771 38.5741 90.9509 41.4024C85.1414 40.1411 80.7078 47.0209 84.9885 56.3847L93.053 58.2576L101.997 44.7658Z" fill="#102048"/>
<path d="M97.7161 62.2697V73.2221C97.7161 75.7844 95.637 77.8636 93.0747 77.8636C89.6012 77.8636 86.7852 75.0475 86.7852 71.574V62.2697H97.7161Z" fill="#F9B384"/>
<path d="M97.7152 66.8161V72.7907C92.8444 72.8151 89.6125 66.5165 89.6125 66.5165L97.7152 66.8161Z" fill="#E28B6D"/>
<path d="M102.534 60.8911C102.241 62.4077 101.822 63.961 101.22 65.3277C100.168 67.728 98.5626 69.5564 96.1104 69.6084C90.3712 69.7307 85.9438 61.8879 85.9438 61.8879L86.8611 51.1863L91.2182 46.2941L103.219 53.7088C103.219 53.7088 103.253 57.1884 102.534 60.8911Z" fill="#F9B384"/>
<path d="M86.6702 58.7516C86.6702 58.7516 87.8551 53.9359 91.9828 50.8018C91.9828 50.8018 97.9835 58.637 104.328 54.8532C110.673 51.0693 107.921 43.6164 101.997 44.763L95.1933 43.9986L86.6702 46.7123L85.2178 53.4009L86.6702 58.7516Z" fill="#102048"/>
<path opacity="0.4" d="M92.6931 114.254C86.9116 101.762 79.6244 107.724 77.8408 103.138C75.3416 96.7113 75.8153 89.4414 75.8023 87.2382L72.3202 106.845C72.3202 106.845 80.0945 107.584 82.9687 112.265L92.6931 114.254Z" fill="#FC6002"/>
<path d="M75.9803 86.9052C75.7634 88.5826 75.5079 90.2532 75.2437 91.9221C74.9869 93.5924 74.6849 95.2548 74.4078 96.9215C74.1176 98.5859 73.8127 100.248 73.4866 101.906L72.9885 104.391C72.8083 105.217 72.6406 106.045 72.4472 106.869L72.1943 106.824C72.2953 105.984 72.4221 105.149 72.5363 104.311L72.9214 101.806C73.1841 100.136 73.4682 98.4709 73.7668 96.8081C74.0784 95.1474 74.3655 93.4825 74.6974 91.8255C75.022 90.1672 75.3554 88.5104 75.7273 86.8605L75.9803 86.9052Z" fill="#1F3C88"/>
<path d="M109.759 83.8056C110.221 85.9841 110.648 88.1688 111.067 90.3551C111.493 92.5402 111.877 94.7328 112.283 96.9212C112.671 99.113 113.051 101.306 113.42 103.501L113.954 106.798C114.118 107.899 114.295 108.998 114.447 110.101L114.212 110.143C113.973 109.055 113.759 107.963 113.533 106.873L112.894 103.595C112.482 101.408 112.08 99.2183 111.687 97.0275C111.312 94.8333 110.915 92.6432 110.559 90.4458C110.196 88.2494 109.842 86.0517 109.523 83.8475L109.759 83.8056Z" fill="#1F3C88"/>
<path opacity="0.4" d="M111.372 93.9189C111.78 97.8938 111.168 118.482 101.588 118.787L101.69 123.272L116.774 122.355L111.372 93.9189Z" fill="#FC6002"/>
<path d="M91.677 118.225C98.4802 115.32 99.7808 115.428 100.697 115.473C103.831 115.626 108.341 121.894 108.341 121.894L108.265 123.041H91.0655L91.677 118.225Z" fill="#E28B6D"/>
<path d="M117.846 121.921H96.6718V125.132H117.846V121.921Z" fill="white"/>
<path d="M146.793 123.878H110L118.255 90.9984H155.049L146.793 123.878Z" fill="#FC6002"/>
<path d="M149.972 111.686C146.332 111.143 134.56 108.697 110.303 123.475L109.743 125.513L146.638 125.134L149.972 111.686Z" fill="#FF9A5D"/>
<path d="M150.67 118.986C150.441 120.534 150.364 122.808 145.567 122.521L144.153 121.795L145.491 120.324L148.377 118.852L150.67 118.986Z" fill="#F9B384"/>
<path d="M151.122 114.807C151.122 114.807 153.747 118.236 151.109 119.292C148.243 120.438 145.491 120.324 145.491 120.324C146.714 116.884 150.689 117.113 150.689 117.113L151.122 114.807Z" fill="#F9B384"/>
<path d="M151.199 112.591C151.199 112.591 154.817 115.955 151.454 116.897C146.704 118.229 145.236 118.324 145.236 118.324C144.982 115.802 149.695 114.171 149.695 114.171L151.199 112.591Z" fill="#F9B384"/>
<path d="M150.46 109.662C150.46 109.662 155.403 112.669 150.765 114.351C146.128 116.032 145.032 116.007 145.032 116.007C144.778 113.484 149.746 112.618 149.746 112.618L150.46 109.662Z" fill="#F9B384"/>
<path d="M145.032 116.006C145.032 116.006 150.422 115.242 152.027 113.943" stroke="#E28B6D" stroke-width="2.5" stroke-miterlimit="10"/>
<path d="M145.236 118.326C145.236 118.326 150.842 117.537 152.6 116.314" stroke="#E28B6D" stroke-width="2.5" stroke-miterlimit="10"/>
<path d="M145.491 120.326C145.491 120.326 148.816 120.441 150.689 119.524" stroke="#E28B6D" stroke-width="2.5" stroke-miterlimit="10"/>
<path d="M93.2822 168.523C93.8427 168.217 102.71 170.154 112.545 162.866L99.8561 159.248L93.2822 168.523Z" fill="#102048"/>
<path d="M149.625 126.436C150.047 125.834 150.411 124.947 149.879 124.44C149.325 123.908 148.42 124.375 147.839 124.877C146.815 125.757 145.886 126.724 145.026 127.751L123.605 131.732L94.2516 138.865L99.2984 145.307C113.975 146.377 122.334 146.653 131.519 145.032C136.2 144.206 140.385 143.354 143.507 140.81C144.25 140.201 144.953 139.18 144.47 138.352C144.143 137.792 143.464 137.645 142.782 137.651C144.351 137.281 145.873 136.74 147.32 136.034C147.965 135.722 148.683 135.233 148.668 134.517C148.659 134.004 148.243 133.569 147.766 133.386C147.289 133.203 146.763 133.218 146.252 133.255C144.296 133.401 142.36 133.829 140.523 134.52C143.868 132.185 147.271 129.766 149.625 126.436ZM140.477 134.551C140.477 134.545 140.48 134.542 140.486 134.536C140.495 134.533 140.507 134.53 140.516 134.524C140.504 134.533 140.489 134.542 140.477 134.551Z" fill="#B35341"/>
<path d="M100.467 129.233C100.467 129.233 129.056 115.627 138.382 116.239C147.708 116.85 147.402 128.469 143.886 133.514C140.369 138.559 132.114 145.286 101.691 143.298L100.467 129.233Z" fill="#102048"/>
<path d="M114.774 185.377C113.227 185.814 111.032 185.921 108.011 185.441C108.011 185.441 104.097 186.456 100.244 187.254C97.6363 187.796 95.0587 188.236 93.7409 188.193C93.6277 188.19 93.5146 188.184 93.3984 188.175C90.8698 187.994 87.6837 186.677 85.9929 184.793C85.9898 184.787 85.9868 184.781 85.9806 184.778C85.5159 184.258 85.1643 183.692 84.9747 183.099C84.0574 180.243 85.9959 176.779 96.4927 177.491C96.4927 177.491 99.957 176.678 100.773 174.128C101.59 171.581 95.5755 159.351 95.5755 159.351L104.137 153.541L112.545 162.867C112.545 162.867 113.82 171.275 113.82 174.027C113.82 174.027 117.385 179.124 117.896 181.365C118.223 182.796 117.508 184.604 114.774 185.377Z" fill="#D3DFFF"/>
<path d="M66.6373 107.936C67.6179 107.559 68.617 107.254 69.6272 106.974C70.1328 106.835 70.6418 106.706 71.1601 106.604C71.4188 106.552 71.6804 106.508 71.9455 106.471C72.079 106.453 72.2115 106.439 72.3501 106.428C72.4972 106.421 72.6414 106.423 72.7787 106.436C73.877 106.552 74.8726 106.897 75.8617 107.262C76.8457 107.637 77.8088 108.057 78.7545 108.511C79.7031 108.96 80.6261 109.459 81.5342 109.983C82.4418 110.508 83.3349 111.059 84.2029 111.648C85.9274 112.838 87.5869 114.146 89.0153 115.687L88.834 115.869C88.0653 115.173 87.2653 114.516 86.4331 113.9C85.6076 113.277 84.753 112.691 83.8793 112.137C82.146 111.005 80.3258 110.009 78.4733 109.09C77.5463 108.631 76.6026 108.207 75.6438 107.828C74.6858 107.47 73.7048 107.087 72.7288 106.954C72.6068 106.937 72.4909 106.933 72.3774 106.934C72.2564 106.94 72.1292 106.95 72.0041 106.963C71.7524 106.991 71.4991 107.026 71.2459 107.07C70.7398 107.159 70.2328 107.262 69.7275 107.375C68.7179 107.605 67.7115 107.873 66.7236 108.178L66.6373 107.936Z" fill="#1F3C88"/>
<path d="M71.7259 147.962C75.1657 147.733 78.5462 147.979 81.0006 147.121C83.625 146.204 90.4792 146.816 90.4792 146.816L86.7082 141.388L71.4201 145.21L71.7259 147.962Z" fill="#B35341"/>
<path d="M71.8785 137.948C68.3622 132.292 68.3622 121.131 72.7958 116.086C77.8629 110.32 88.6954 108.136 94.352 114.863C100.009 121.59 110.404 146.204 112.545 162.868C112.545 162.868 101.079 159.046 93.2818 168.524C93.2818 168.524 83.0388 145.134 80.8985 136.572L75.089 141.159L71.8785 137.948Z" fill="#1F3C88"/>
<path d="M80.899 136.57C80.899 136.57 79.3702 136.01 77.2299 137.437C77.2299 137.437 60.5149 137.08 56.7948 140.851C53.0747 144.622 55.9285 149.667 61.3813 150.228C65.9577 150.698 74.8416 147.148 77.579 145.995C78.135 145.761 78.7258 145.62 79.3278 145.581L83.8547 145.284L80.899 136.57Z" fill="#D3DFFF"/>
<path d="M87.5736 59.0661C87.5736 59.0661 86.4525 55.3506 83.9862 56.2795C81.52 57.2084 82.8331 62.0449 87.7017 63.3902L87.5736 59.0661Z" fill="#F9B384"/>
<path d="M84.9478 79.5557C86.1651 80.4142 87.4623 81.1527 88.8383 81.6761C90.213 82.1916 91.6635 82.5182 93.1187 82.4836C94.5703 82.4658 96.008 82.1079 97.3052 81.4445L97.7934 81.1963C97.9533 81.1083 98.1 80.9975 98.2544 80.899C98.5588 80.6955 98.874 80.5044 99.146 80.2545L99.5755 79.906L99.7912 79.7316C99.861 79.6712 99.9232 79.6025 99.9896 79.5382C100.251 79.276 100.515 79.0159 100.784 78.7573L100.967 78.9113C100.726 79.2021 100.481 79.4914 100.232 79.7784C100.169 79.8495 100.11 79.9248 100.044 79.9925L99.8368 80.1887L99.4211 80.5814C99.151 80.853 98.8337 81.0681 98.5254 81.2959C98.3691 81.4064 98.2203 81.5291 98.057 81.6298L97.5562 81.9158C96.2157 82.6719 94.6699 83.0802 93.1251 83.0892C91.5802 83.0928 90.0473 82.7579 88.6449 82.1547C87.2383 81.5575 85.9438 80.7303 84.8003 79.7437L84.9478 79.5557Z" fill="#1F3C88"/>
<path d="M78.3649 126.81L79.6898 131.446C80.1403 132.987 80.5617 134.537 81.0325 136.072C81.4934 137.609 81.9526 139.147 82.4361 140.676C82.6779 141.44 82.9168 142.207 83.1818 142.963C83.3111 143.342 83.4282 143.727 83.5651 144.104C83.7018 144.48 83.835 144.859 83.9644 145.239L83.7439 145.331C83.4026 144.6 83.0826 143.859 82.7806 143.111C82.4803 142.362 82.2065 141.603 81.9295 140.846C81.3865 139.327 80.9063 137.788 80.4512 136.243C80.0101 134.694 79.5738 133.143 79.1907 131.579C78.8033 130.016 78.4374 128.448 78.1322 126.865L78.3649 126.81Z" fill="#102048"/>
<path opacity="0.1" d="M114.774 185.376C113.227 185.813 111.032 185.92 108.011 185.44C108.011 185.44 101.538 187.097 97.4482 187.747C101.652 186.906 107.768 181.709 107.08 178.422C113.118 180.409 114.762 183.428 114.774 185.376Z" fill="#1F3C88"/>
<path opacity="0.4" d="M98.5169 185.951C97.7372 186.911 96.5753 187.562 95.3553 187.889C94.7163 188.061 94.0589 188.152 93.3985 188.174C90.8698 187.993 87.6838 186.675 85.9929 184.792C85.9898 184.786 85.9868 184.78 85.9807 184.777C85.8003 184.532 85.6321 184.278 85.4853 184.015C86.3843 184.853 87.3627 185.538 88.4176 186.061C88.9466 186.312 89.4816 186.553 90.0412 186.721C90.3133 186.825 90.5977 186.886 90.879 186.966C91.1572 187.052 91.4477 187.085 91.7351 187.137C94.0191 187.522 96.4438 187.284 98.5169 185.951Z" fill="#1F3C88"/>
<path d="M86.4654 59.592C86.4086 59.2583 86.2517 58.9468 86.067 58.6625C85.8782 58.3815 85.6532 58.1189 85.393 57.9351C85.1325 57.7529 84.8497 57.6619 84.6114 57.7909C84.361 57.9155 84.1628 58.2195 83.9897 58.5277L83.8204 58.4687C83.8933 58.1062 84.0274 57.7071 84.407 57.4438C84.5942 57.3131 84.8506 57.2666 85.0733 57.3068C85.2971 57.3473 85.4929 57.4434 85.6583 57.5636C85.9884 57.8065 86.2302 58.122 86.4062 58.4668C86.5768 58.8103 86.6995 59.1983 86.6447 59.5958L86.4654 59.592Z" fill="#E28B6D"/>
<path d="M101.014 59.5032C100.906 60.0305 100.509 60.3949 100.126 60.317C99.7434 60.2389 99.5205 59.7483 99.628 59.2208C99.7355 58.6934 100.133 58.329 100.515 58.4069C100.898 58.485 101.121 58.9758 101.014 59.5032Z" fill="#102048"/>
<path d="M95.0561 59.2608C95.1427 58.7295 94.9005 58.2479 94.5151 58.1851C94.1297 58.1223 93.747 58.502 93.6604 59.0333C93.5738 59.5646 93.816 60.0462 94.2014 60.109C94.5868 60.1719 94.9695 59.7921 95.0561 59.2608Z" fill="#102048"/>
<path d="M97.5846 59.985C97.6209 60.4191 97.6384 60.8512 97.6433 61.274C97.6604 61.4358 97.7357 61.5742 97.8707 61.7214C98.0009 61.8673 98.1695 62.0198 98.315 62.2322C98.3879 62.3371 98.4451 62.471 98.4733 62.6028C98.5039 62.7339 98.5076 62.8641 98.4991 62.9921C98.4774 63.2466 98.3873 63.4971 98.2179 63.7031C98.1351 63.8067 98.0243 63.8919 97.9036 63.9543C97.7782 64.0082 97.6433 64.0427 97.5134 64.0365C97.2522 64.0249 97.0275 63.9237 96.8408 63.7928L96.9255 63.6348C97.1234 63.6993 97.3212 63.7489 97.4958 63.716C97.669 63.6918 97.807 63.5992 97.8991 63.4571C98.0861 63.1783 98.1133 62.7419 97.9328 62.4817C97.8385 62.3308 97.6823 62.1891 97.5343 62.0027C97.3848 61.8262 97.2419 61.5596 97.2519 61.2822C97.2851 60.838 97.338 60.4029 97.4059 59.9701L97.5846 59.985Z" fill="#E28B6D"/>
<path d="M92.657 57.4264C92.9006 57.1834 93.1902 56.9816 93.5155 56.8369C93.8394 56.6912 94.207 56.6106 94.5797 56.6336C94.9524 56.6553 95.3179 56.7939 95.6091 57.0108C95.9028 57.2261 96.1291 57.5055 96.2965 57.8072L96.155 57.9172C95.9022 57.702 95.6581 57.4997 95.3916 57.3499C95.1259 57.2003 94.8414 57.1093 94.5475 57.089C93.9547 57.0436 93.3515 57.2797 92.762 57.5717L92.657 57.4264Z" fill="#102048"/>
<path d="M98.877 57.9523C98.9782 57.6268 99.2487 57.3701 99.5468 57.2175C99.8478 57.0603 100.187 56.9938 100.522 56.9994C100.858 57.0067 101.195 57.0929 101.487 57.2645C101.779 57.4332 102.021 57.6926 102.147 57.994L101.997 58.0919C101.582 57.6741 101.059 57.4743 100.51 57.4557C99.9692 57.4436 99.3961 57.5929 99.0379 58.0316L98.877 57.9523Z" fill="#102048"/>
<path d="M94.7027 65.1317L98.7586 65.4207C98.7586 65.4207 96.4961 68.4215 94.7027 65.1317Z" fill="white"/>
<path opacity="0.4" d="M102.535 60.8937C102.242 62.4103 101.823 63.9636 101.22 65.3303C100.428 64.9573 99.881 64.1501 99.881 63.2145C99.881 61.9211 100.933 60.8723 102.226 60.8723C102.33 60.8723 102.434 60.8784 102.535 60.8937Z" fill="#EE6F57"/>
<path opacity="0.4" d="M93.1202 64.8371C94.3139 64.3358 94.8752 62.9617 94.3739 61.768C93.8726 60.5744 92.4986 60.0131 91.3049 60.5144C90.1112 61.0157 89.5499 62.3897 90.0512 63.5834C90.5525 64.7771 91.9266 65.3384 93.1202 64.8371Z" fill="#EE6F57"/>
<path d="M59.2429 58.0426C61.8137 55.1961 63.38 51.4248 63.38 47.2871C63.38 38.421 56.1926 31.2336 47.3265 31.2336C38.4605 31.2336 31.2731 38.421 31.2731 47.2871C31.2731 56.1531 38.4605 63.3406 47.3265 63.3406C49.3796 63.3406 51.3406 62.9509 53.1454 62.2485L61.7631 65.7659L59.2429 58.0426Z" stroke="#FF7D30" stroke-width="3.5" stroke-miterlimit="10"/>
<path d="M40.1579 49.3872C41.1047 49.3872 41.8722 48.6197 41.8722 47.673C41.8722 46.7262 41.1047 45.9588 40.1579 45.9588C39.2112 45.9588 38.4437 46.7262 38.4437 47.673C38.4437 48.6197 39.2112 49.3872 40.1579 49.3872Z" fill="black"/>
<path d="M47.3266 49.3873C48.2734 49.3873 49.0408 48.6199 49.0408 47.6731C49.0408 46.7264 48.2734 45.9589 47.3266 45.9589C46.3799 45.9589 45.6124 46.7264 45.6124 47.6731C45.6124 48.6199 46.3799 49.3873 47.3266 49.3873Z" fill="black"/>
<path d="M54.4951 49.3873C55.4418 49.3873 56.2093 48.6199 56.2093 47.6731C56.2093 46.7264 55.4418 45.9589 54.4951 45.9589C53.5484 45.9589 52.7809 46.7264 52.7809 47.6731C52.7809 48.6199 53.5484 49.3873 54.4951 49.3873Z" fill="black"/>
<path d="M100.291 2H68.7161C66.9255 2 65.4605 3.46509 65.4605 5.25563V18.805C65.4605 20.5957 66.9256 22.0607 68.7161 22.0607H71.6318L76.3708 29.1839L77.7801 22.0607H100.291C102.082 22.0607 103.547 20.5956 103.547 18.805V5.25563C103.547 3.46496 102.082 2 100.291 2Z" stroke="#FF7D30" stroke-width="3.5" stroke-miterlimit="10"/>
<path d="M97.2495 6.93182H71.7564C71.3273 6.93182 70.9795 7.27967 70.9795 7.70877C70.9795 8.13786 71.3273 8.48571 71.7564 8.48571H97.2495C97.6786 8.48571 98.0264 8.13786 98.0264 7.70877C98.0264 7.27967 97.6786 6.93182 97.2495 6.93182Z" fill="black"/>
<path d="M97.2495 11.0275H71.7564C71.3273 11.0275 70.9795 11.3753 70.9795 11.8044C70.9795 12.2335 71.3273 12.5814 71.7564 12.5814H97.2495C97.6786 12.5814 98.0264 12.2335 98.0264 11.8044C98.0264 11.3753 97.6786 11.0275 97.2495 11.0275Z" fill="black"/>
<path d="M97.2495 15.1274H71.7564C71.3273 15.1274 70.9795 15.4752 70.9795 15.9043C70.9795 16.3334 71.3273 16.6812 71.7564 16.6812H97.2495C97.6786 16.6812 98.0264 16.3334 98.0264 15.9043C98.0264 15.4752 97.6786 15.1274 97.2495 15.1274Z" fill="black"/>
</svg>
