<svg width="66" height="65" viewBox="0 0 66 65" fill="none" xmlns="http://www.w3.org/2000/svg">
<g clip-path="url(#clip0_294_4903)">
<path d="M63.2125 32.4992C64.2164 31.3302 64.9198 29.9339 65.2619 28.4315C65.6039 26.9291 65.5742 25.366 65.1754 23.8776C64.7766 22.3893 64.0206 21.0208 62.9732 19.8907C61.9257 18.7607 60.6183 17.9033 59.1645 17.3929C59.4493 15.8785 59.3604 14.3176 58.9054 12.8454C58.4503 11.3732 57.643 10.0342 56.5533 8.94471C55.4637 7.85519 54.1246 7.04801 52.6524 6.59317C51.1801 6.13834 49.6191 6.04961 48.1048 6.33467C47.5948 4.88047 46.7376 3.57273 45.6075 2.525C44.4775 1.47727 43.1088 0.721204 41.6202 0.322454C40.1317 -0.0762964 38.5683 -0.10568 37.0658 0.236853C35.5633 0.579386 34.1671 1.28348 32.9985 2.28801C31.8295 1.28417 30.4333 0.580711 28.9309 0.238652C27.4285 -0.103408 25.8653 -0.0737346 24.377 0.325097C22.8886 0.723929 21.5201 1.47987 20.39 2.52735C19.26 3.57483 18.4026 4.88221 17.8922 6.33607C16.378 6.05147 14.8171 6.14061 13.3451 6.59574C11.8731 7.05088 10.5344 7.85828 9.44507 8.9479C8.35573 10.0375 7.54867 11.3765 7.09391 12.8486C6.63915 14.3207 6.55042 15.8815 6.8354 17.3957C5.38154 17.9061 4.07416 18.7635 3.02668 19.8935C1.9792 21.0236 1.22325 22.3921 0.824415 23.8805C0.425583 25.3688 0.395905 26.932 0.737965 28.4344C1.08002 29.9368 1.7835 31.333 2.78734 32.502C1.78319 33.6709 1.0795 35.0673 0.737346 36.5698C0.395189 38.0724 0.424892 39.6358 0.823899 41.1242C1.22291 42.6127 1.97915 43.9813 3.02699 45.1112C4.07483 46.2412 5.38261 47.0983 6.83681 47.6083C6.55158 49.1225 6.64021 50.6835 7.09503 52.1557C7.54985 53.6278 8.35711 54.9668 9.44672 56.0563C10.5363 57.1457 11.8754 57.9528 13.3476 58.4075C14.8199 58.8621 16.3809 58.9505 17.895 58.6651C18.4054 60.119 19.2628 61.4263 20.3929 62.4738C21.5229 63.5213 22.8915 64.2772 24.3798 64.6761C25.8681 65.0749 27.4313 65.1046 28.9337 64.7625C30.4361 64.4205 31.8324 63.717 33.0013 62.7132C34.1703 63.7173 35.5666 64.421 37.0692 64.7632C38.5717 65.1053 40.1351 65.0756 41.6236 64.6766C43.112 64.2776 44.4806 63.5213 45.6106 62.4735C46.7405 61.4257 47.5977 60.1179 48.1076 58.6637C49.6219 58.9488 51.1829 58.8602 52.6551 58.4053C54.1273 57.9505 55.4663 57.1433 56.5559 56.0537C57.6454 54.9641 58.4527 53.6252 58.9075 52.1529C59.3623 50.6807 59.451 49.1197 59.1658 47.6055C60.6198 47.0952 61.9273 46.2378 62.9748 45.1077C64.0224 43.9777 64.7783 42.609 65.177 41.1206C65.5757 39.6321 65.6052 38.0689 65.2628 36.5665C64.9205 35.0641 64.2167 33.6679 63.2125 32.4992Z" fill="#0D5E95"/>
<path d="M27.1658 44.9065L18.1344 35.8807C17.7916 35.5374 17.5991 35.0721 17.5991 34.587C17.5991 34.1019 17.7916 33.6366 18.1344 33.2933L19.2316 32.1946C19.5749 31.8519 20.0402 31.6594 20.5253 31.6594C21.0105 31.6594 21.4758 31.8519 21.8191 32.1946L28.3841 38.7555L43.8454 22.3252C44.1781 21.9722 44.6372 21.7656 45.1221 21.7509C45.6069 21.7361 46.0778 21.9143 46.4314 22.2463L47.5582 23.3098C47.9116 23.6425 48.1185 24.102 48.1333 24.5871C48.1481 25.0723 47.9696 25.5435 47.6371 25.8972L29.7969 44.8656C29.6289 45.0446 29.4266 45.1881 29.2021 45.2873C28.9776 45.3866 28.7354 45.4398 28.49 45.4436C28.2445 45.4474 28.0008 45.4018 27.7733 45.3095C27.5458 45.2173 27.3392 45.0802 27.1658 44.9065Z" fill="white"/>
</g>
<defs>
<clipPath id="clip0_294_4903">
<rect width="65" height="65" fill="white" transform="translate(0.5)"/>
</clipPath>
</defs>
</svg>
