<svg width="16" height="16" viewBox="0 0 16 16" fill="none" xmlns="http://www.w3.org/2000/svg">
<path fill-rule="evenodd" clip-rule="evenodd" d="M12.9071 9.58248C12.9071 9.20008 12.7552 8.83334 12.4848 8.56294C12.2144 8.29254 11.8477 8.14062 11.4653 8.14062H11.4637C11.0813 8.14062 10.7145 8.29254 10.4441 8.56294C10.1737 8.83334 10.0218 9.20008 10.0218 9.58248C10.0218 10.2271 10.0218 11.0692 10.0218 11.7139C10.0218 12.0963 10.1737 12.463 10.4441 12.7334C10.7145 13.0038 11.0813 13.1557 11.4637 13.1557H11.4653C11.8477 13.1557 12.2144 13.0038 12.4848 12.7334C12.7552 12.463 12.9071 12.0963 12.9071 11.7139V9.58248ZM5.9434 9.58248C5.94342 9.20008 5.7915 8.83334 5.5211 8.56294C5.2507 8.29254 4.88398 8.14062 4.50156 8.14062H4.49995C4.11755 8.14062 3.75081 8.29254 3.48041 8.56294C3.21001 8.83334 3.05811 9.20008 3.05811 9.58248C3.05811 10.2271 3.05811 11.0692 3.05811 11.7139C3.05811 12.0963 3.21001 12.463 3.48041 12.7334C3.75081 13.0038 4.11755 13.1557 4.49995 13.1557H4.50156C4.88398 13.1557 5.2507 13.0038 5.5211 12.7334C5.7915 12.463 5.94342 12.0963 5.9434 11.7139V9.58248ZM11.9717 9.58248V11.7139C11.9717 11.8482 11.9183 11.977 11.8234 12.072C11.7284 12.1669 11.5996 12.2203 11.4653 12.2203C11.4653 12.2203 11.4637 12.2203 11.4637 12.2203C11.3294 12.2203 11.2006 12.1669 11.1056 12.072C11.0106 11.977 10.9573 11.8482 10.9573 11.7139V9.58248C10.9573 9.44818 11.0106 9.31937 11.1056 9.2244C11.2006 9.12944 11.3294 9.07609 11.4637 9.07608C11.4637 9.07608 11.4653 9.07608 11.4653 9.07608C11.5996 9.07609 11.7284 9.12944 11.8234 9.2244C11.9183 9.31937 11.9717 9.44818 11.9717 9.58248ZM5.00795 9.58248V11.7139C5.00795 11.8482 4.95461 11.977 4.85964 12.072C4.76467 12.1669 4.63588 12.2203 4.50159 12.2203C4.50153 12.2203 4.49996 12.2203 4.49996 12.2203C4.36563 12.2203 4.23684 12.1669 4.14188 12.072C4.04692 11.977 3.99356 11.8482 3.99356 11.7139V9.58248C3.99356 9.44818 4.04692 9.31937 4.14188 9.2244C4.23684 9.12944 4.36563 9.07609 4.49993 9.07608C4.49999 9.07608 4.50156 9.07608 4.50156 9.07608C4.63588 9.07609 4.76467 9.12944 4.85964 9.2244C4.95461 9.31937 5.00795 9.44818 5.00795 9.58248Z" fill="#FC6002"/>
<path fill-rule="evenodd" clip-rule="evenodd" d="M14.1471 10.674V7.35914C14.1471 4.34543 11.704 1.90234 8.69031 1.90234C8.22077 1.90234 7.74471 1.90234 7.27517 1.90234C4.26145 1.90234 1.81836 4.34543 1.81836 7.35914C1.81836 9.12153 1.81836 10.674 1.81836 10.674C1.81836 10.9321 2.02793 11.1417 2.28609 11.1417C2.54423 11.1417 2.75381 10.9321 2.75381 10.674V7.35917C2.75383 4.86206 4.7781 2.8378 7.27517 2.8378C7.74471 2.8378 8.22077 2.8378 8.69031 2.8378C11.1874 2.8378 13.2116 4.86206 13.2117 7.35912C13.2117 7.35917 13.2117 10.674 13.2117 10.674C13.2117 10.9321 13.4212 11.1417 13.6794 11.1417C13.9375 11.1417 14.1471 10.9321 14.1471 10.674ZM6.59 4.23055H9.09694C9.35508 4.23055 9.56466 4.02096 9.56466 3.76282C9.56466 3.50466 9.35508 3.29509 9.09694 3.29509H6.59C6.33184 3.29509 6.12227 3.50466 6.12227 3.76282C6.12227 4.02096 6.33184 4.23055 6.59 4.23055Z" fill="#FC6002"/>
</svg>
